<svg width="1882" height="691" viewBox="0 0 1882 691" fill="none" xmlns="http://www.w3.org/2000/svg">
<path d="M380.5 0.00428249C292.1 -0.975616 90 166.451 0 250.287V768H1846V121.675C1735.5 104.663 1491.4 76.1919 1399 98.4029C1283.5 126.167 1288.5 101.261 1252 105.344C1215.5 109.427 1223.5 125.758 1139.5 132.291C1055.5 138.824 1003.5 204.293 942.5 214.5C881.5 224.707 807.5 100.036 741 99.2195C674.5 98.4029 652 32.2598 610.5 48.9997C516 89.4205 491 1.22916 380.5 0.00428249Z" fill="url(#paint0_linear_16_74)" fill-opacity="0.9"/>
<path d="M364.5 200.556C297.5 233.463 169.5 381.969 153 401.798V768H1882V161.742C1708 187.899 1611 40.237 1512 51.6281C1466 57.5346 1429.5 105.63 1400.5 111.959C1371.5 118.287 1362.5 87.9109 1330.5 90.8641C1298.5 93.8174 1273.5 131.788 1250 157.945C1226.5 184.102 1139.5 248.23 1053.5 261.308C967.5 274.387 879.5 230.51 816.5 186.634C753.5 142.757 700 171.867 666 177.774C632 183.68 596.5 133.475 541.5 136.85C486.5 140.225 431.5 167.648 364.5 200.556Z" fill="url(#paint1_linear_16_74)" fill-opacity="0.7"/>
<defs>
<linearGradient id="paint0_linear_16_74" x1="626" y1="32.5" x2="693.918" y2="319.216" gradientUnits="userSpaceOnUse">
<stop offset="0.0809758" stop-color="#DD8E7F"/>
<stop offset="0.929534" stop-color="#EEB39B"/>
</linearGradient>
<linearGradient id="paint1_linear_16_74" x1="1018" y1="217" x2="1017.31" y2="336.496" gradientUnits="userSpaceOnUse">
<stop stop-color="#E0998C"/>
<stop offset="1" stop-color="#E2C0A0"/>
</linearGradient>
</defs>
</svg>
