<svg width="1824" height="540" viewBox="0 0 1824 540" fill="none" xmlns="http://www.w3.org/2000/svg">
<path d="M234 19.9612C131.2 59.1612 4.5 192.961 -46 254.961V947.461C228.167 1033.13 781.3 1115.86 800.5 761.461C824.5 318.461 569.5 90.4612 469 56.9612C368.5 23.4612 362.5 -29.0388 234 19.9612Z" fill="url(#paint0_linear_16_80)"/>
<path d="M653.875 167.391C489.452 175.446 550.924 763.519 547.425 782H1454L1418.02 156.965C1314.07 190.61 1074.78 236.386 949.237 150.331C792.311 42.7627 818.298 159.335 653.875 167.391Z" fill="url(#paint1_linear_16_80)"/>
<path d="M1515.4 55.3428C1732.47 95.3885 1824 723.692 1824 749.008V923L256.494 884.335C230.485 817.746 286.441 773.677 356.063 707.763C443.091 625.37 1130.81 113.062 1294.37 131.474C1396.9 143.016 1417.87 36.0104 1515.4 55.3428Z" fill="url(#paint2_linear_16_80)"/>
<g filter="url(#filter0_f_16_80)">
<mask id="mask0_16_80" style="mask-type:alpha" maskUnits="userSpaceOnUse" x="584" y="204" width="567" height="169">
<path d="M588.082 275.972C603.787 275.306 635.332 266.093 653 248.5C670.668 230.907 685.581 212.663 688.69 204L692.107 210.494C691.943 218.325 691.5 215.5 696 232C699.711 245.608 745.174 280.495 781 268L819.725 297.464L958.612 268.475L965.974 269.975C989.926 261.404 1044.97 244.354 1075.42 243.991L1075.41 243.985H1076.4C1076.07 243.985 1075.75 243.987 1075.42 243.991L1086.7 258C1093.74 255.001 1123.34 225.901 1146.5 229.5C1169.66 233.099 1081.5 327.5 1086.7 372.436C901.192 376.267 541.754 362.339 588.082 275.972Z" fill="#BD8496" fill-opacity="0.8"/>
</mask>
<g mask="url(#mask0_16_80)">
<path d="M561.166 225.176H589.159C589.159 225.435 589.094 225.695 588.965 225.954C588.965 226.084 588.965 226.278 588.965 226.538C588.835 227.056 588.706 227.64 588.576 228.288C588.576 228.937 588.641 229.585 588.77 230.233C588.77 230.882 588.77 231.595 588.77 232.373C588.9 233.021 589.03 233.735 589.159 234.513C589.937 237.884 592.075 240.997 595.574 243.85C599.203 246.573 605.294 247.934 613.847 247.934C614.884 247.934 615.921 247.934 616.958 247.934C618.124 247.805 619.226 247.74 620.262 247.74C626.224 247.221 631.796 245.665 636.98 243.071C642.294 240.478 645.599 236.069 646.894 229.844C647.024 229.196 647.089 228.677 647.089 228.288C647.218 227.77 647.283 227.251 647.283 226.732C647.154 222.842 645.275 219.989 641.646 218.173C638.017 216.228 633.352 214.542 627.649 213.116C627.261 212.986 626.872 212.921 626.483 212.921C626.094 212.792 625.705 212.662 625.317 212.532L611.126 208.837C610.867 208.966 610.607 209.031 610.348 209.031C610.219 208.901 610.089 208.772 609.959 208.642C600.758 206.438 592.464 203.52 585.077 199.889C577.82 196.128 574.256 188.996 574.385 178.492C574.385 176.936 574.45 175.315 574.58 173.629C574.839 171.814 575.163 169.933 575.552 167.988C576.07 165.654 576.848 163.125 577.884 160.402C578.921 157.549 580.347 154.631 582.161 151.649C586.179 145.035 592.594 138.94 601.406 133.364C610.219 127.788 622.53 125 638.341 125C653.633 125 664.584 127.983 671.194 133.948C677.803 139.913 681.821 146.462 683.246 153.594C683.506 154.891 683.7 156.187 683.829 157.484C683.959 158.781 684.024 160.078 684.024 161.375C684.024 162.931 683.894 164.422 683.635 165.848C683.506 167.275 683.311 168.701 683.052 170.128L655.059 169.933C655.059 169.804 655.059 169.609 655.059 169.35C655.059 169.09 655.124 168.831 655.253 168.572C655.253 168.183 655.253 167.858 655.253 167.599C655.253 167.34 655.253 167.016 655.253 166.627C655.253 165.719 655.189 164.811 655.059 163.903C654.929 162.866 654.735 161.893 654.476 160.986C653.569 158.003 651.43 155.28 648.061 152.816C644.691 150.352 638.989 149.12 630.954 149.12C629.788 149.12 628.621 149.185 627.455 149.315C626.289 149.315 625.122 149.444 623.956 149.704C619.29 150.482 614.884 152.103 610.737 154.566C606.72 157.03 604.192 160.791 603.156 165.848C603.026 166.497 602.896 167.145 602.767 167.794C602.767 168.312 602.767 168.831 602.767 169.35C602.767 172.332 603.609 174.602 605.294 176.158C606.979 177.584 608.858 178.622 610.931 179.27C611.579 179.529 612.227 179.789 612.875 180.048C613.523 180.178 614.171 180.308 614.819 180.437L647.089 188.607C654.994 190.811 661.863 193.924 667.695 197.944C673.656 201.834 676.637 208.253 676.637 217.201C676.637 218.498 676.572 219.924 676.443 221.48C676.313 223.036 676.054 224.657 675.665 226.343C673.332 237.366 668.991 245.989 662.64 252.214C656.29 258.309 649.551 262.847 642.423 265.83C636.073 268.423 629.917 270.044 623.956 270.693C618.124 271.471 613.783 271.86 610.931 271.86C592.788 271.86 580.152 268.812 573.024 262.718C565.897 256.493 561.75 249.685 560.583 242.293C560.324 241.126 560.13 240.024 560 238.987C560 237.82 560 236.717 560 235.68C560 233.864 560.13 232.114 560.389 230.428C560.648 228.612 560.907 226.927 561.166 225.37V225.176Z" fill="#BD8496" fill-opacity="0.8"/>
<path d="M830.402 128.501L810.962 219.34C807.074 237.884 799.104 251.306 787.052 259.605C774.999 267.775 760.16 271.86 742.535 271.86C740.073 271.86 737.416 271.73 734.565 271.471C731.714 271.212 728.863 270.758 726.012 270.109C721.346 268.942 716.875 267.256 712.598 265.052C708.322 262.718 704.693 259.411 701.712 255.132C700.028 252.408 698.732 249.426 697.824 246.184C697.047 242.812 696.658 239.246 696.658 235.485C696.658 233.281 696.723 231.011 696.852 228.677C697.112 226.213 697.5 223.75 698.019 221.286L717.847 128.501H747.589L728.344 219.146C727.956 220.961 727.696 222.582 727.567 224.009C727.437 225.435 727.372 226.862 727.372 228.288C727.372 234.902 729.252 239.765 733.01 242.877C736.898 245.86 741.628 247.351 747.201 247.351C757.18 247.351 764.891 245.017 770.334 240.348C775.777 235.68 779.341 229.131 781.025 220.702L800.659 128.501H830.402Z" fill="#BD8496" fill-opacity="0.8"/>
<path d="M923.26 225.76L944.06 128.501H971.276L941.533 268.164H912.374L876.605 168.572H876.217L855.028 268.164H827.812L857.555 128.501H888.269L922.871 225.76H923.26Z" fill="#BD8496" fill-opacity="0.8"/>
<path d="M971.408 225.176H999.401C999.401 225.435 999.336 225.695 999.206 225.954C999.206 226.084 999.206 226.278 999.206 226.538C999.077 227.056 998.947 227.64 998.817 228.288C998.817 228.937 998.882 229.585 999.012 230.233C999.012 230.882 999.012 231.595 999.012 232.373C999.141 233.021 999.271 233.735 999.401 234.513C1000.18 237.884 1002.32 240.997 1005.82 243.85C1009.44 246.573 1015.54 247.934 1024.09 247.934C1025.13 247.934 1026.16 247.934 1027.2 247.934C1028.37 247.805 1029.47 247.74 1030.5 247.74C1036.47 247.221 1042.04 245.665 1047.22 243.071C1052.54 240.478 1055.84 236.069 1057.14 229.844C1057.27 229.196 1057.33 228.677 1057.33 228.288C1057.46 227.77 1057.52 227.251 1057.52 226.732C1057.4 222.842 1055.52 219.989 1051.89 218.173C1048.26 216.228 1043.59 214.542 1037.89 213.116C1037.5 212.986 1037.11 212.921 1036.72 212.921C1036.34 212.792 1035.95 212.662 1035.56 212.532L1021.37 208.837C1021.11 208.966 1020.85 209.031 1020.59 209.031C1020.46 208.901 1020.33 208.772 1020.2 208.642C1011 206.438 1002.71 203.52 995.318 199.889C988.061 196.128 984.497 188.996 984.627 178.492C984.627 176.936 984.691 175.315 984.821 173.629C985.08 171.814 985.404 169.933 985.793 167.988C986.311 165.654 987.089 163.125 988.126 160.402C989.163 157.549 990.588 154.631 992.402 151.649C996.42 145.035 1002.83 138.94 1011.65 133.364C1020.46 127.788 1032.77 125 1048.58 125C1063.87 125 1074.83 127.983 1081.44 133.948C1088.04 139.913 1092.06 146.462 1093.49 153.594C1093.75 154.891 1093.94 156.187 1094.07 157.484C1094.2 158.781 1094.27 160.078 1094.27 161.375C1094.27 162.931 1094.14 164.422 1093.88 165.848C1093.75 167.275 1093.55 168.701 1093.29 170.128L1065.3 169.933C1065.3 169.804 1065.3 169.609 1065.3 169.35C1065.3 169.09 1065.37 168.831 1065.49 168.572C1065.49 168.183 1065.49 167.858 1065.49 167.599C1065.49 167.34 1065.49 167.016 1065.49 166.627C1065.49 165.719 1065.43 164.811 1065.3 163.903C1065.17 162.866 1064.98 161.893 1064.72 160.986C1063.81 158.003 1061.67 155.28 1058.3 152.816C1054.93 150.352 1049.23 149.12 1041.2 149.12C1040.03 149.12 1038.86 149.185 1037.7 149.315C1036.53 149.315 1035.36 149.444 1034.2 149.704C1029.53 150.482 1025.13 152.103 1020.98 154.566C1016.96 157.03 1014.43 160.791 1013.4 165.848C1013.27 166.497 1013.14 167.145 1013.01 167.794C1013.01 168.312 1013.01 168.831 1013.01 169.35C1013.01 172.332 1013.85 174.602 1015.54 176.158C1017.22 177.584 1019.1 178.622 1021.17 179.27C1021.82 179.529 1022.47 179.789 1023.12 180.048C1023.76 180.178 1024.41 180.308 1025.06 180.437L1057.33 188.607C1065.24 190.811 1072.1 193.924 1077.94 197.944C1083.9 201.834 1086.88 208.253 1086.88 217.201C1086.88 218.498 1086.81 219.924 1086.68 221.48C1086.55 223.036 1086.3 224.657 1085.91 226.343C1083.57 237.366 1079.23 245.989 1072.88 252.214C1066.53 258.309 1059.79 262.847 1052.66 265.83C1046.31 268.423 1040.16 270.044 1034.2 270.693C1028.37 271.471 1024.02 271.86 1021.17 271.86C1003.03 271.86 990.394 268.812 983.266 262.718C976.138 256.493 971.991 249.685 970.825 242.293C970.565 241.126 970.371 240.024 970.241 238.987C970.241 237.82 970.241 236.717 970.241 235.68C970.241 233.864 970.371 232.114 970.63 230.428C970.889 228.612 971.149 226.927 971.408 225.37V225.176Z" fill="#BD8496" fill-opacity="0.8"/>
<path d="M1231.51 128.501L1226.26 153.205H1152.19L1145.97 182.577H1214.01L1208.76 207.28H1140.72L1132.95 243.461H1210.32L1205.07 268.164H1099.12L1128.87 128.501H1231.51Z" fill="#BD8496" fill-opacity="0.8"/>
<path d="M1312.57 153.205L1288.07 268.164H1258.91L1283.41 153.205H1241.22L1246.47 128.501H1360L1354.75 153.205H1312.57Z" fill="#BD8496" fill-opacity="0.8"/>
</g>
</g>
<path d="M838.42 314.067C698.939 347.919 241.999 618.737 238 623.37V819L1418.34 807.597C1431.84 801.658 1479.24 755.572 1560.82 618.737C1662.81 447.694 1283.36 226.051 1139.38 239.592C995.399 253.133 977.902 280.214 838.42 314.067Z" fill="url(#paint3_linear_16_80)"/>
<defs>
<filter id="filter0_f_16_80" x="559" y="179" width="616.387" height="117.86" filterUnits="userSpaceOnUse" color-interpolation-filters="sRGB">
<feFlood flood-opacity="0" result="BackgroundImageFix"/>
<feBlend mode="normal" in="SourceGraphic" in2="BackgroundImageFix" result="shape"/>
<feGaussianBlur stdDeviation="12.5" result="effect1_foregroundBlur_16_80"/>
</filter>
<linearGradient id="paint0_linear_16_80" x1="263" y1="7.27019e-06" x2="445.5" y2="490.5" gradientUnits="userSpaceOnUse">
<stop stop-color="#684567"/>
<stop offset="0.67272" stop-color="#9A6774"/>
</linearGradient>
<linearGradient id="paint1_linear_16_80" x1="891.5" y1="105" x2="877.966" y2="725.781" gradientUnits="userSpaceOnUse">
<stop stop-color="#B07072"/>
<stop offset="0.381031" stop-color="#573C6B"/>
</linearGradient>
<linearGradient id="paint2_linear_16_80" x1="1475.93" y1="44.017" x2="1150.92" y2="867.73" gradientUnits="userSpaceOnUse">
<stop stop-color="#6F4C6E"/>
<stop offset="0.616919" stop-color="#A36874"/>
</linearGradient>
<linearGradient id="paint3_linear_16_80" x1="1071" y1="214" x2="1052.88" y2="556.089" gradientUnits="userSpaceOnUse">
<stop stop-color="#A76E7C"/>
<stop offset="0.840389" stop-color="#2C245A"/>
</linearGradient>
</defs>
</svg>
