<svg width="748" height="150" viewBox="0 0 748 150" fill="none" xmlns="http://www.w3.org/2000/svg">
<path d="M681.635 99.8412C718.501 82.8646 763.239 110.13 781 125.885V150H0C18.2409 134.084 98.8851 94.5366 141.607 118.651C184.329 142.766 188.17 135.049 213.611 118.651C239.052 102.253 272.174 101.289 292.335 107.558C312.496 113.828 337.937 123.474 350.418 104.665C382.1 50.1658 421.942 44.8606 440.663 46.3075C455.639 47.465 463.224 43.253 465.144 41.0023C472.824 32.8033 485.305 0.97119 544.348 0.00660793C623.456 -0.765058 668.834 66.2415 681.635 99.8412Z" fill="url(#paint0_linear_16_68)" fill-opacity="0.7"/>
<defs>
<linearGradient id="paint0_linear_16_68" x1="390.5" y1="-24" x2="390.5" y2="408" gradientUnits="userSpaceOnUse">
<stop stop-color="#E09D95"/>
<stop offset="1" stop-color="#E09D95" stop-opacity="0"/>
</linearGradient>
</defs>
</svg>
