<svg width="2140" height="407" viewBox="0 0 2140 407" fill="none" xmlns="http://www.w3.org/2000/svg">
<path d="M630.67 124.085C629.984 122.852 628.798 120.731 628.256 119.764C634.594 117.627 639.072 118.77 643.123 125.297C639.077 124.899 635.073 124.511 630.67 124.085ZM537.56 245.486C541.973 245.896 545.855 246.395 549.748 246.581C553.635 246.762 557.533 246.618 563.004 246.618C553.151 252.588 543.994 251.966 537.56 245.486ZM481.157 166.462C484.214 170.13 486.224 172.544 489.021 175.903C480.226 174.043 472.463 172.395 464.704 170.752C464.699 169.801 464.699 168.854 464.694 167.903C474.398 172.453 479.577 165.389 485.565 160.557C487.788 162.321 489.691 163.826 493.02 166.462C488.495 166.462 485.714 166.462 481.157 166.462ZM440.616 174.277C436.819 173.479 433.012 172.687 427.615 171.56C431.613 168.945 433.804 167.515 436.256 165.91C438.048 168.147 439.616 170.109 441.19 172.071C440.999 172.804 440.813 173.538 440.616 174.277ZM367.011 251.03C371.472 252.099 375.928 253.167 381.464 254.496C374.349 260.471 370.76 255.331 367.011 251.03ZM320.222 198.065C320.849 199.207 321.498 200.403 322.742 202.684C315.016 202.684 308.326 202.684 301.626 202.684C301.174 202.046 300.717 201.408 300.26 200.77C304.248 199.941 308.241 199.106 312.586 198.203C309.039 194.588 305.886 191.377 302.727 188.167C303.078 187.385 303.424 186.604 303.775 185.822C312.027 187.587 318.217 200.994 328.916 189.017C328.953 190.266 328.996 191.51 329.038 192.754C326.103 194.524 323.173 196.289 320.222 198.065ZM302.732 222.889C310.081 221.815 317.324 220.757 324.571 219.699C324.731 220.593 324.885 221.486 325.045 222.379C318.525 227.375 309.608 227.577 302.732 222.889ZM203.13 209.137C202.513 208.202 201.896 207.266 201.279 206.33C205.788 203.566 210.292 200.797 214.796 198.033C215.131 198.713 215.461 199.388 215.791 200.069C211.574 203.088 207.352 206.113 203.13 209.137ZM124.553 201.041C130.232 199.76 134.496 198.798 140.282 197.496C142.233 198.452 146.003 200.302 149.742 202.131C147.46 205.698 137.277 205.804 124.553 201.041ZM139.872 185.785C140.798 186.949 142.185 188.687 143.988 190.952C137.198 190.952 131.189 190.952 125.175 190.952C125.153 190.367 125.127 189.793 125.106 189.214C129.817 188.119 134.528 187.024 139.872 185.785ZM722.748 321.831C724.923 319.444 727.215 317.589 728.597 315.207C729.741 313.23 729.805 310.625 730.342 308.302C728.427 308.026 726.513 307.59 724.588 307.516C721.286 307.388 717.973 307.484 714.666 307.484C714.437 306.516 714.203 305.549 713.969 304.586C720.026 301.705 726.088 298.819 734 295.056C726.369 293.184 720.669 291.792 714.431 290.266C718.919 284.578 730.267 288.576 731.591 278.641C726.757 277.567 722.137 276.536 717.005 275.398C720.93 272.65 724.226 270.343 728.56 267.307C724.301 266.669 721.116 266.186 717.271 265.612C718.813 262.699 720.206 260.078 722.307 256.123C717.909 256.75 715.048 257.165 712.124 257.585C712.757 254.619 713.294 252.115 713.512 251.089C715.655 245.322 717.271 240.963 718.904 236.561C716.021 236.2 713.336 236.332 711.087 235.402C709.944 234.924 708.721 232.335 709.029 231.065C710.284 225.839 712.118 220.752 713.464 216.473C710.13 214.293 706.934 212.215 704.27 210.477C705.498 206.012 706.737 201.52 708.226 196.124C704.014 197.352 701.212 198.171 697.4 199.282C698.713 194.636 699.723 191.064 700.824 187.151C697.415 186.614 694.267 186.12 690.635 185.546C694.842 179.045 698.591 173.24 702.935 166.521C697.921 164.809 695.751 157.835 688.221 161.386C686.291 162.295 682.622 159.525 679.474 157.027C690.487 156.841 696.655 151.759 698.054 139.528C694.342 138.613 689.173 137.725 684.302 135.998C680.389 134.61 676.831 132.208 673.12 130.257C673.348 129.598 673.582 128.939 673.811 128.279C677.469 128.721 681.133 129.167 685.063 129.64C688.237 125.297 691.758 120.486 695.698 115.112C691.476 114.32 688.2 110.493 683.202 114.538C682.106 115.426 677.156 111.561 672.327 109.015C678.235 108.106 682.351 108.473 685.228 106.761C688.477 104.832 690.614 101.031 694.533 96.5604C687.413 94.9285 681.394 93.5571 675.374 92.1804C675.209 92.8767 675.039 93.5729 674.874 94.2693C673.279 92.0526 671.684 89.8361 669.754 87.1517C675.151 86.5776 680.671 85.9873 686.578 85.3548C682.016 77.4131 678.379 71.0767 674.741 64.7563C684.855 58.9674 677.039 50.6323 679.118 43.9026C678.4 43.5677 677.687 43.2276 676.969 42.8927C674.029 47.9267 671.088 52.9553 667.01 59.9295C666.648 53.6357 666.393 49.2928 666.148 44.9339C668.398 44.6787 670.179 44.482 671.195 44.3704C671.875 41.7019 672.652 39.6181 672.896 37.4705C673.167 35.0731 672.955 32.6226 672.955 30.1933C671.774 29.1887 670.594 28.184 669.408 27.1793C668.132 29.7468 666.856 32.3143 664.537 36.9709C666.568 30.5229 668.009 25.9566 669.11 22.4642C667.318 19.801 665.867 17.6429 664.42 15.4953C663.288 20.12 662.07 25.1169 660.661 30.8739C659.831 30.9802 657.959 31.2139 656.821 31.3574C657.327 38.6347 657.826 45.7527 658.443 54.5821C654.859 52.089 652.865 50.7016 650.515 49.059C651.259 55.1934 651.966 61.0035 652.764 67.5844C655.593 69.3546 659.608 71.8689 663.617 74.3833C657.199 77.5833 651.733 73.8622 645.782 71.8741C644.261 73.1765 642.421 74.75 640.007 76.8231C647.181 80.7249 649.691 93.0999 662.011 85.9502C658.528 97.7086 647.335 89.1077 641.411 96.1404C643.528 99.2714 645.974 102.891 647.877 105.709C646.33 107.995 644.798 110.27 642.709 113.358C637.03 114.9 632.946 111.78 632.329 104.827C632.084 102.041 633.956 99.1279 634.435 96.2043C634.807 93.9185 634.504 91.5264 632.956 88.1668C629.776 91.7496 626.591 95.3272 622.608 99.803C622.231 96.0289 621.944 93.1319 621.582 89.5012C630.287 90.0487 627.703 83.2498 629.309 77.445C626.331 79.0504 624.182 80.1986 622.518 81.097C622.518 77.3866 622.518 72.9958 622.518 68.605C621.529 68.5306 620.545 68.4561 619.561 68.387C618.902 72.7724 618.243 77.1633 617.626 81.2883C616.711 80.8471 614.733 79.9115 612.335 78.774C612.962 84.717 613.489 89.7722 614.143 96.0182C610.883 94.6467 608.932 93.828 606.342 92.7436C607.023 97.0759 607.64 101.004 608.395 105.82C611.096 107.16 615.079 109.127 619.588 111.359C612.011 115.734 603.705 105.018 596.271 112.625C603.008 115.958 607.102 124.633 616.616 119.546C616.61 120.556 616.61 121.566 616.605 122.57C613.622 122.82 610.601 122.836 607.672 123.368C604.274 123.979 600.955 125.037 596.467 126.196C599.435 129.332 601.785 131.82 604.343 134.525C600.434 136.689 596.552 138.836 592.426 141.127C597.238 145.242 602.295 149.564 607.741 154.226C598.658 158.669 594.808 157.872 591.852 151.727C587.433 152.27 587.8 152.19 586.704 147.193C586.444 146.018 582.849 145.571 580.297 144.604C580.642 143.876 581.584 141.92 582.536 139.937C581.233 138.927 579.802 137.816 578.861 137.082C576.404 140.07 573.916 143.084 570.959 146.677C571.156 148.974 571.47 152.684 571.853 157.208C569.029 156.283 567.046 155.629 564.536 154.805C565.121 158.292 565.583 161.067 566.11 164.193C568.96 165.314 572.698 166.787 576.442 168.259L576.271 169.418C572.789 169.078 569.311 168.7 565.828 168.397C562.483 168.11 559.133 167.898 555.783 167.653C555.581 168.605 555.374 169.551 555.161 170.497C561.042 172.714 566.923 174.93 575.022 177.982C570.193 177.982 567.263 177.812 564.36 178.03C561.499 178.242 558.665 178.843 554.406 179.491C557.474 182.08 559.372 183.691 561.856 185.79C558.171 187.582 554.714 189.262 551.034 191.053C555.554 194.03 560.037 196.985 564.52 199.941C564.27 200.499 564.02 201.062 563.77 201.626C557.293 201.626 550.811 201.626 543.978 201.626C545.26 198.91 546.398 196.502 547.876 193.365C544.941 193.099 542.197 192.844 539.506 192.595C539.134 193.132 538.762 193.668 538.395 194.2C537.342 193.536 536.294 192.871 535.241 192.207C536.656 192.339 538.076 192.467 539.506 192.595C542.808 187.832 546.243 182.888 550.933 176.132C541.968 174.112 534.513 172.437 527.063 170.758C527.052 170.072 527.042 169.386 527.031 168.7C536.209 169.375 542.627 165.931 545.68 156.347C537.613 154.024 529.344 151.642 521.076 149.261C521.139 148.299 521.203 147.342 521.267 146.385C532.327 151.196 536.624 142.855 542.218 136.917C536.363 131.192 526.579 140.984 522.607 132.824C528.674 130.055 534.848 127.232 541.016 124.42C540.761 123.405 540.511 122.395 540.256 121.385C534.173 120.386 528.084 119.386 521.325 118.28C520.283 114.522 520.294 114.873 525.5 114.746C528.068 114.682 530.599 113.045 532.577 112.327C529.514 107.266 526.68 102.652 523.942 97.9851C523.564 97.3472 523.325 95.8801 523.58 95.7259C530.87 91.3511 524.5 85.4027 525.989 80.4006C525.383 80.0604 524.771 79.7254 524.165 79.3852C521.102 83.4677 518.034 87.5501 514.019 92.8978C513.642 88.1508 513.386 84.9614 513.131 81.7773C513.881 82.0696 514.625 82.362 515.375 82.6543C517.412 78.4974 519.454 74.3353 521.496 70.1784C520.974 69.7 520.453 69.2163 519.932 68.7379C517.741 70.0243 515.561 71.3053 513.365 72.597C511.403 68.3284 520.996 62.88 512.137 59.5789C510.164 63.183 507.787 67.5099 505.415 71.8422L504.102 70.7471C504.554 76.1639 505.001 81.586 505.548 88.2094C502.305 86.6731 500.364 85.7536 497.875 84.5735C498.476 89.464 499.04 94.0247 499.651 98.9896C502.725 100.478 506.761 102.429 510.797 104.385C510.786 104.97 510.775 105.549 510.765 106.134C504.873 105.177 498.976 104.22 491.786 103.051C491.473 103.274 489.734 104.507 487.384 106.166C494.536 109.903 498.519 119.732 508.872 113.193C508.967 114.156 509.063 115.107 509.159 116.064C505.995 116.728 502.836 117.388 499.678 118.052C496.163 118.796 492.653 119.551 487.761 120.588C490.829 124.165 493.201 126.924 495.807 129.959C491.962 132.213 488.016 134.531 483.741 137.035C488.474 141.356 493.626 146.055 498.779 150.76C498.625 151.461 498.471 152.152 498.322 152.849C487.102 151.786 477.839 164.373 465.805 156.836C471.798 154.518 477.791 152.2 483.784 149.883C483.645 149.096 483.507 148.309 483.374 147.522C475.76 146.103 468.155 144.684 460.546 143.264C460.7 142.557 460.854 141.85 461.009 141.149C465.965 140.872 470.921 140.601 476.461 140.293C474.999 134.185 466.188 134.945 467.863 128.157C468.097 127.19 468.368 126.185 468.347 125.202C468.256 121.422 468.06 117.648 467.9 113.868C460.849 114.411 462.375 110.206 463.513 106.097C463.678 105.485 463.157 104.688 462.753 103.295C460.488 104.513 458.435 105.618 457.217 106.272C457.217 102.849 457.217 98.7398 457.217 94.636C456.319 94.5669 455.425 94.5086 454.527 94.4395C453.782 98.3891 453.043 102.328 452.368 105.916C451.549 105.64 449.47 104.943 447.358 104.236C447.816 109.472 448.22 114.001 448.704 119.546C445.593 118.265 443.785 117.52 441.243 116.479C441.86 120.55 442.392 124.085 443.035 128.322C446.066 129.656 449.969 131.378 453.872 133.095L453.633 134.339C446.401 133.611 439.17 132.883 431.932 132.155C431.698 133.282 431.464 134.403 431.225 135.525C437.287 138.22 443.339 140.915 449.587 143.695C444.716 144.46 438.611 145.412 430.789 146.635C434.123 149.723 436.271 151.717 439.015 154.252C435.846 155.794 432.815 157.75 429.492 158.728C426.961 159.472 426.801 158.925 427.019 154.975C427.168 152.275 419.048 145.864 416.533 146.507C415.788 146.698 414.805 145.965 413.922 145.656C416.432 140.761 413.071 139.336 409.631 137.114C407.876 135.982 407.599 132.553 406.616 130.081C403.388 134.206 400.899 137.38 397.693 141.478C397.852 143.403 398.15 147.14 398.506 151.504C395.885 150.632 393.811 149.936 391.445 149.149C391.902 155.741 392.7 161.599 400.144 163.523C394.141 163.108 388.143 162.699 382.139 162.284C382.001 162.943 381.857 163.602 381.714 164.262C385 166.531 388.286 168.791 392.524 171.714C388.797 172.878 386.021 173.756 382.378 174.899C383.915 176.738 385.239 178.322 387.191 180.661C384.229 182.41 381.315 184.121 377.88 186.147C382.192 188.959 386.733 191.925 391.971 195.343C384.707 197.671 378.917 199.526 372.679 201.525C374.434 197.719 375.694 194.981 377.13 191.872C372.243 191.245 367.979 190.692 364.395 190.234C369.489 184.664 374.109 179.608 379.56 173.644C374.088 171.247 371.398 165.702 364.49 168.557C362.342 169.444 358.806 166.978 355.812 164.836C365.282 163.672 372.663 160.759 374.173 149.218C366.601 146.815 358.067 144.099 349.532 141.393C349.734 140.527 349.936 139.666 350.138 138.805C353.674 139.049 357.216 139.288 361.087 139.549C364.283 135.668 367.851 131.341 371.414 127.014C371.259 126.35 371.1 125.685 370.935 125.021C367.069 125.425 363.129 126.477 359.359 126.036C356.195 125.664 353.233 123.548 351.085 122.608C357.54 119.248 363.623 116.085 369.701 112.922C369.531 111.795 369.366 110.663 369.196 109.536C363.022 108.324 356.849 107.117 349.319 105.64C349.5 104.678 349.984 102.105 350.112 101.414C354.764 100.744 358.045 100.271 362.049 99.6966C357.742 92.7755 354.132 86.9656 350.494 81.1183C360.183 75.9141 352.754 68.1637 354.897 62.0613C354.227 61.7477 353.552 61.4286 352.882 61.1149C349.819 65.8513 346.756 70.5823 342.965 76.4296C342.311 71.369 341.832 67.6429 341.311 63.6082C343.778 63.1564 345.762 62.795 347.059 62.5558C347.82 57.9098 348.49 53.8271 349.442 48.001C346.107 50.6642 343.784 52.5194 340.652 55.0125C342.103 50.4569 343.326 46.6191 344.411 43.2117C342.832 40.8887 341.354 38.704 339.498 35.9771C338.854 42.1539 338.253 47.9267 337.722 53.0032C336.887 52.5673 334.669 51.4032 332.393 50.2125C333.01 57.596 333.547 64.0919 334.217 72.1293C330.681 69.8063 328.831 68.589 326.236 66.8774C327.039 72.7141 327.757 77.9289 328.56 83.6964C331.495 85.44 335.456 87.7895 340.003 90.4792C332.181 95.8375 323.524 82.1708 316.308 92.4249C323.141 96.0183 326.64 107.266 337.924 99.9572C334.473 111.684 323.37 103.115 317.201 109.717C319.387 112.534 321.769 115.612 324.476 119.11C320.823 121.826 316.946 124.707 312.82 127.775C317.361 132.511 322.636 138.002 329.453 145.104C322.519 146.374 317.653 147.267 311.575 148.378C314.872 152.96 317.728 156.931 320.987 161.466C317.478 161.466 314.388 161.466 311.299 161.466C310.911 162.236 310.528 163.002 310.145 163.767C314.006 166.207 317.887 168.615 321.716 171.114C322.476 171.608 323.683 172.639 323.545 173.059C323.109 174.388 322.429 176.068 321.328 176.674C316.765 179.199 312.012 181.373 306.97 183.856C306.481 181.224 306.082 179.039 305.38 175.233C301.541 178.301 298.303 180.889 294.341 184.058C293.794 181.634 293.336 179.614 293.198 179.008C295.889 176.222 297.771 174.51 299.308 172.522C299.739 171.964 299.154 170.619 299.037 169.636C297.106 169.902 295.176 170.173 292.852 170.492C293.884 168.445 294.889 166.447 295.83 164.575C294.543 163.608 293.283 162.656 292.108 161.763C289.821 164.48 287.184 167.621 284.355 170.986C284.621 173.633 284.977 177.184 285.408 181.426C282.653 180.852 280.835 180.48 278.022 179.89C278.729 182.585 279.208 184.398 279.995 187.396C275.257 187.167 270.625 187.029 266.031 186.566C265.627 186.524 265.446 184.307 265.286 183.627C269.019 183.281 272.444 182.968 277.963 182.463C274.007 179.699 271.694 178.577 270.099 176.812C268.732 175.303 267.232 172.894 267.498 171.151C268.025 167.754 269.748 164.543 271.433 160.036C262.787 162.183 258.294 162.662 257.852 162.911C260.102 159.77 261.899 157.25 263.691 154.741C261.596 154.311 259.501 153.875 257.161 153.396C257.714 152.36 258.639 150.627 259.198 149.574C258.14 148.171 257.225 146.847 256.14 145.688C256.028 145.566 254.949 146.582 254.242 146.746C249.068 148.006 243.708 151.35 239.496 146.177C245.207 143.748 251.142 141.234 257.071 138.714C256.959 137.827 256.842 136.944 256.725 136.057C250.812 135.126 244.894 134.196 238.98 133.266C238.869 133.776 238.752 134.286 238.635 134.797C237.045 133.048 235.46 131.299 233.716 129.38C239.113 129.098 244.218 128.827 249.339 128.556C245.978 123.469 243.261 119.429 240.656 115.32C240.299 114.762 240.273 113.805 240.459 113.13C241.097 110.796 242.389 108.521 242.485 106.187C242.575 104.141 241.395 102.041 240.772 99.9624C239.097 101.259 237.22 102.365 235.795 103.896C234.306 105.507 233.248 107.522 230.802 111.131C230.153 106.373 229.792 103.705 229.728 103.232C233.004 99.0961 235.205 96.6083 236.965 93.8441C237.305 93.3125 235.726 90.6653 235.349 90.7344C233.477 91.0746 231.717 91.9995 229.122 93.0361C230.238 90.0806 231.35 87.1514 232.248 84.7806C230.802 83.1115 229.467 81.57 227.947 79.8158C227.069 84.1109 226.208 88.3104 225.415 92.1749C224.41 91.7497 222.486 90.931 220.374 90.038C220.959 95.6142 221.47 100.515 222.108 106.644C218.694 105.177 216.721 104.327 214.275 103.274C215.009 107.532 215.695 111.492 216.471 115.984C219.534 117.345 223.374 119.051 227.218 120.763C227.245 121.247 227.271 121.736 227.303 122.219C219.821 121.459 212.34 120.694 204.858 119.928C204.73 120.805 204.597 121.683 204.47 122.56C210.84 125.792 215.206 134.324 224.873 128.827C224.91 129.784 224.942 130.751 224.979 131.708C221.895 132.123 218.779 132.42 215.722 132.984C212.361 133.606 209.053 134.478 204.119 135.605C207.373 138.677 209.665 140.846 212.287 143.323C208.463 145.481 204.688 147.602 200.551 149.936C205.204 153.822 210.08 157.899 216.806 163.523C209.803 164.485 205.102 165.133 199.009 165.973C202.396 169.556 204.911 172.225 207.889 175.388C204.98 175.733 202.274 176.063 198.216 176.552C202.433 180.501 204.22 186.162 211.058 182.335C210.893 190.144 204.986 189.283 199.035 190.399C200.125 188.603 200.763 187.561 202.157 185.264C193.766 183.367 185.768 181.559 177.765 179.752C177.845 179.119 177.93 178.492 178.01 177.859C181.881 177.684 186.145 178.46 189.517 177.073C192.968 175.659 195.547 172.129 199.998 168.211C191.426 167.823 185.263 167.547 179.089 167.27L179.259 166.042C184.954 163.64 190.649 161.237 196.344 158.834C196.206 158.042 196.063 157.25 195.914 156.463C188.363 155.214 180.807 153.965 173.251 152.71C173.346 152.014 173.442 151.313 173.538 150.611C178.632 150.218 183.731 149.819 190.889 149.266C187.002 146.087 184.768 144.556 182.907 142.669C180.498 140.224 177.93 138.241 181.525 133.925C183.168 131.953 181.291 127.051 181.014 123.474C178.866 125.042 176.643 126.52 174.596 128.21C173.437 129.162 172.57 130.459 170.422 132.915C169.778 129.066 169.358 126.53 168.933 123.995C169.56 124.293 170.188 124.596 170.81 124.893C173.043 121.491 175.276 118.089 177.505 114.687C176.882 114.129 176.255 113.565 175.627 113.007C173.596 114.076 171.554 115.144 168.534 116.728C169.81 113.682 170.889 111.115 171.831 108.882C170.491 107.426 169.241 106.065 167.619 104.295C166.636 108.032 165.636 111.811 164.684 115.394C164.046 115.155 162.142 114.453 160.063 113.677C160.568 118.807 161.036 123.554 161.642 129.715C158.064 127.923 156.309 127.046 153.655 125.712C154.527 130.081 155.256 133.755 156.08 137.864C159.074 139.14 162.86 140.75 166.646 142.361C166.582 142.877 166.524 143.392 166.46 143.908C162.77 143.392 159.09 142.781 155.389 142.393C151.996 142.042 148.577 141.925 144.86 142.839C150.582 147.772 155.368 154.826 164.716 149.766C164.711 150.733 164.705 151.695 164.7 152.663C158.228 153.662 151.757 154.661 143.728 155.9C147.008 158.893 149.311 160.998 151.911 163.374C147.934 165.335 144.089 167.239 140.048 169.237C144.658 172.921 149.433 176.738 154.208 180.555C153.815 181.586 153.421 182.617 153.023 183.648C142.042 182.048 131.061 180.453 120.081 178.853C120.171 178.253 120.261 177.652 120.352 177.051C124.957 176.669 129.556 176.281 136.118 175.738C132.21 172.879 129.828 171.539 127.982 169.662C126.345 167.999 122.947 166.5 127.089 163.156C128.466 162.045 127.222 157.686 127.179 154.81C125.005 155.719 122.628 156.336 120.719 157.633C119.347 158.574 118.592 160.429 116.566 163.273C115.619 159.052 115.14 156.926 115.13 156.883C118.411 153.263 120.628 150.824 122.84 148.384C122.298 147.624 121.75 146.869 121.208 146.108C119.129 146.773 117.049 147.432 115.008 148.086C113.657 145.04 122.601 141.011 113.338 139.07C112.567 141.186 111.482 144.158 110.466 146.954C109.339 146.832 107.558 146.64 105.968 146.47C106.414 150.733 106.808 154.497 107.287 159.116C104.202 158.053 102.309 157.405 99.7143 156.511C100.469 160.084 100.166 164.139 102.043 166.085C104.25 168.365 108.355 168.807 111.445 171.188C104.511 170.54 97.5873 169.891 90.6533 169.243C90.5629 169.934 90.4725 170.619 90.3821 171.3C93.9661 173.479 97.5501 175.653 102.852 178.875C94.45 180.081 87.6276 181.065 80.082 182.149C81.7623 177.615 83.0652 174.096 84.3201 170.72C79.5131 170.098 75.3069 169.556 72.1376 169.147C76.9021 162.965 81.2572 157.59 85.1337 151.887C85.575 151.238 83.4267 147.459 82.2781 147.358C78.5399 147.033 75.961 141.218 71.0263 145.285C69.9894 146.14 65.9586 143.355 63.0712 141.021C73.9296 140.458 79.6939 134.818 82.007 124.702C75.8227 117.26 62.4225 123.176 56.8604 111.955C61.2952 112.518 65.1132 113.002 68.5323 113.433C72.0419 108.617 75.4771 103.896 79.3216 98.6283C74.9878 98.4848 71.7495 94.8009 66.8254 98.1551C65.3153 99.1864 60.3593 95.1517 57.1635 92.2439C67.8038 95.1995 71.9728 87.7415 77.8699 80.2835C71.0263 78.7579 64.9111 77.3918 58.8013 76.0309C58.663 76.6688 58.5248 77.3068 58.3865 77.9446C56.7487 75.7599 55.1109 73.5752 53.0955 70.8855C58.7108 70.3964 64.1401 69.9286 70.2818 69.3917C65.7353 61.567 62.1194 55.3475 58.3972 48.9367C67.639 43.0947 60.8804 34.9935 61.343 27.4132C59.5085 29.6139 57.4187 31.6552 55.9138 34.0685C54.3345 36.5988 53.3136 39.4799 50.1018 42.0208C49.9157 37.8533 49.7349 33.6963 49.5275 29.0876C51.5907 28.7952 53.4306 28.5349 54.8823 28.3276C55.6427 23.2351 56.3339 18.5997 57.2857 12.2314C54.1218 14.8999 51.9045 16.7711 48.9054 19.3067C50.2454 14.5013 51.4418 10.2328 52.4415 6.64468C50.9632 4.35892 49.6232 2.2964 48.1343 0C47.8897 1.58409 47.8844 3.54569 47.225 5.25735C46.7624 6.45871 45.417 7.31451 44.2578 8.54776C45.0714 11.6947 46.0233 15.3731 47.0283 19.2589C44.6194 17.3825 42.5881 15.7984 40.275 13.9964C40.8812 22.3793 41.397 29.6033 42.0564 38.7198C38.5149 36.1735 36.7707 34.9138 34.2928 33.1331C34.9309 39.2036 35.5105 44.6627 36.223 51.4243C38.9137 53.1254 43.2156 55.8364 47.4218 58.4996C43.2103 61.8326 35.9838 60.6844 29.608 55.4005C27.816 57.0271 26.024 58.6645 23.78 60.7111C31.0172 64.0653 32.8145 78.2689 45.8903 70.8003C44.1249 72.9957 42.3541 75.1966 41.95 75.6909C35.2074 76.6371 30.2887 77.3334 23.6683 78.2636C27.0396 83.2232 29.507 86.8539 31.9956 90.5111C28.4382 93.4029 24.5404 96.5762 20.4193 99.9305C25.1945 105.432 30.4322 111.471 37.0366 119.083C30.2302 120.481 25.2742 121.496 18.8666 122.809C22.4134 127.934 25.3593 132.202 28.5073 136.747C25.3965 136.891 22.2752 137.04 17.7819 137.247C21.5148 142.515 22.6261 148.75 30.8417 147.841C31.8626 159.196 17.4628 154.624 15.5059 163.406C21.8444 173.309 21.8444 173.309 36.8239 171.092C33.8886 173.192 30.948 175.286 27.8054 177.53C28.4275 178.742 29.0922 180.028 29.9749 181.745C23.1951 182.824 16.6439 183.871 10.1831 184.903C10.9116 199.845 25.8645 197.108 32.8517 204.486C26.2633 211.131 18.2657 209.43 9.6673 208.499C11.5125 212.194 12.6238 216.165 15.1018 218.908C17.8031 221.895 21.7753 223.734 25.1945 226.078C25.2157 226.876 25.237 227.668 25.2636 228.47C17.4043 230.379 9.54499 232.287 1.0848 234.339C4.605 240.521 7.61474 245.816 11.337 252.354C10.8106 252.689 8.66759 254.071 5.73231 255.964C9.17807 259.823 12.5228 263.56 15.9899 267.446C11.3476 269.476 2.82897 265.298 2.70667 276.068C6.80649 278.731 12.1878 282.229 17.8775 285.923C17.5372 286.056 15.8676 287.38 14.4744 287.135C8.1146 286.003 4.07327 287.73 3.03635 294.651C2.91937 295.428 1.05287 295.954 0 296.592C0 297.107 0 297.623 0 298.144C5.01975 300.754 10.8797 301.817 13.1502 308.494C16.1759 317.397 29.1401 320.183 36.3506 313.74C40.1101 310.386 43.3538 306.447 48.1875 301.344C47.4802 309.222 46.89 315.851 46.2572 322.857C49.9157 322.857 53.1434 322.857 56.9295 322.857C56.536 318.466 56.1904 314.511 55.7862 309.95C66.8626 320.141 70.9465 317.924 75.3069 313.32C89.7227 316.462 101.209 310.647 113.423 302.838C112.769 307.399 112.28 310.817 111.737 314.607C115.125 314.607 118.156 314.607 121.633 314.607C121.633 312.422 121.633 310.312 121.633 308.159C136.905 312.991 151.826 313.235 167.22 304.879C166.657 308.845 166.285 311.487 165.817 314.766C169.422 314.766 172.788 314.766 176.452 314.766C176.149 312.098 175.861 309.615 175.457 306.075C181.945 311.29 188.001 309.69 194.792 309.541C203.273 309.36 213.616 305.554 221.917 314.368C227.984 320.8 236.944 318.753 244.904 316C247.542 315.085 250.27 314.415 252.955 313.639C253.205 314.431 253.449 315.234 253.699 316.031C251.439 317.472 249.18 318.907 246.967 320.311C248.382 325.042 261.591 333.504 266.765 333.935C275.772 334.679 283.504 332.005 291.677 324.473C290.954 329.921 290.507 333.249 290.007 337.039C293.411 337.039 296.405 337.039 299.919 337.039C299.818 334.955 299.728 333.084 299.638 331.075C316.755 337.023 333.064 330.341 350.032 330.108C349.686 325.828 349.383 322.097 349.043 317.935C358.816 325.882 362.98 326.333 368.686 320.417C376.019 323.537 382.681 322.139 389.078 317.706C390.413 316.786 392.429 316.829 394.141 316.451C401.676 314.782 409.216 313.113 417.267 311.327C417.118 312.863 416.793 316.17 416.432 319.816C419.495 319.816 422.52 319.816 426.067 319.816C426.243 317.86 426.418 315.936 426.455 315.463C434.32 315.463 441.775 315.84 449.177 315.351C456.271 314.883 463.306 313.517 470.362 312.549C470.357 311.688 470.352 310.827 470.341 309.961C468.246 309.259 466.145 308.552 463.933 307.803C467.406 302.386 472.399 301.737 479.349 305.4C491.292 311.699 499.444 309.982 508.351 299.308C508.824 298.739 509.265 298.144 511.637 297.793C511.057 302.843 510.478 307.893 509.829 313.506C513.323 313.506 516.758 313.506 520.379 313.506C520.081 310.115 519.826 307.101 519.464 302.955C525.76 308.398 531.524 312.47 538.602 306.155C539.192 305.623 541.022 306.139 542.117 306.569C554.608 311.539 566.248 310.822 578.047 299.935C577.537 304.975 577.197 308.276 576.761 312.576C579.701 312.741 582.61 312.906 586.13 313.102C586.332 310.652 586.502 308.563 586.673 306.484C587.247 306.415 587.725 306.266 588.177 306.325C593.277 306.957 598.366 307.994 603.481 308.169C608.177 308.324 612.909 307.324 617.605 307.494C618.131 307.51 618.514 311.763 618.509 313.995C620.891 319.742 630.728 318.445 630.792 327.965C630.803 329.634 637.567 332.154 641.422 332.643C645.378 333.143 649.728 332.08 653.668 330.899C661.145 328.667 663.585 331.101 662.15 340C665.771 340 669.387 340 673.008 340C673.008 335.933 673.008 331.867 673.008 327.551C675.768 329.9 678.166 333.462 681.192 334.116C684.435 334.823 688.275 332.797 691.784 332.441C704.807 330.602 717.829 328.762 730.852 326.923C730.825 325.988 730.799 325.047 730.772 324.117C728.289 323.41 725.806 322.703 722.748 321.831Z" fill="url(#paint0_linear_105_35)"/>
<path d="M1323.67 191.087C1322.98 189.854 1321.79 187.733 1321.26 186.766C1327.59 184.629 1332.07 185.771 1336.12 192.299C1332.08 191.906 1328.07 191.513 1323.67 191.087ZM1230.56 312.49C1234.97 312.899 1238.85 313.404 1242.75 313.585C1246.64 313.766 1250.53 313.622 1256 313.622C1246.15 319.592 1237 318.975 1230.56 312.49ZM1174.15 233.465C1177.22 237.138 1179.23 239.546 1182.02 242.906C1173.23 241.045 1165.46 239.398 1157.71 237.755C1157.7 236.809 1157.7 235.857 1157.7 234.906C1167.4 239.456 1172.58 232.397 1178.57 227.565C1180.79 229.324 1182.69 230.828 1186.02 233.465C1181.5 233.465 1178.72 233.465 1174.15 233.465ZM1133.62 241.274C1129.82 240.487 1126.01 239.69 1120.62 238.563C1124.62 235.953 1126.81 234.518 1129.26 232.918C1131.05 235.155 1132.62 237.112 1134.19 239.073C1134 239.807 1133.81 240.541 1133.62 241.274ZM1060.01 318.029C1064.47 319.103 1068.93 320.171 1074.47 321.5C1067.35 327.47 1063.76 322.335 1060.01 318.029ZM1013.22 265.073C1013.85 266.216 1014.5 267.407 1015.74 269.687C1008.02 269.687 1001.32 269.687 994.629 269.687C994.172 269.054 993.72 268.411 993.263 267.773C997.251 266.944 1001.24 266.11 1005.59 265.206C1002.04 261.596 998.889 258.38 995.73 255.169C996.081 254.388 996.427 253.607 996.772 252.831C1005.03 254.59 1011.22 268.002 1021.92 256.02C1021.96 257.269 1022 258.513 1022.04 259.757C1019.11 261.527 1016.18 263.292 1013.22 265.073ZM995.735 289.893C1003.08 288.819 1010.33 287.761 1017.57 286.703C1017.73 287.596 1017.89 288.489 1018.05 289.382C1011.52 294.379 1002.61 294.586 995.735 289.893ZM896.133 276.146C895.517 275.205 894.9 274.269 894.283 273.334C898.787 270.569 903.296 267.805 907.8 265.041C908.135 265.716 908.465 266.391 908.794 267.072C904.572 270.091 900.356 273.116 896.133 276.146ZM817.552 268.044C823.236 266.763 827.501 265.801 833.281 264.499C835.238 265.456 839.008 267.306 842.746 269.134C840.465 272.701 830.282 272.813 817.552 268.044ZM832.877 252.793C833.802 253.952 835.19 255.696 836.992 257.955C830.202 257.955 824.193 257.955 818.179 257.955C818.158 257.376 818.131 256.791 818.11 256.217C822.821 255.122 827.527 254.027 832.877 252.793ZM1415.75 388.836C1417.92 386.449 1420.21 384.594 1421.59 382.207C1422.74 380.235 1422.8 377.635 1423.34 375.307C1421.42 375.036 1419.51 374.6 1417.58 374.52C1414.28 374.393 1410.97 374.483 1407.67 374.483C1407.43 373.521 1407.2 372.559 1406.97 371.591C1413.03 368.71 1419.09 365.824 1427 362.055C1419.37 360.194 1413.67 358.801 1407.43 357.276C1411.92 351.583 1423.27 355.575 1424.6 345.639C1419.75 344.566 1415.14 343.545 1410 342.402C1413.93 339.654 1417.23 337.347 1421.56 334.312C1417.3 333.668 1414.12 333.195 1410.27 332.616C1411.81 329.703 1413.2 327.082 1415.31 323.122C1410.91 323.754 1408.05 324.164 1405.12 324.589C1405.76 321.623 1406.29 319.119 1406.51 318.098C1408.65 312.331 1410.27 307.966 1411.9 303.565C1409.02 303.209 1406.33 303.336 1404.08 302.406C1402.94 301.933 1401.72 299.344 1402.02 298.068C1403.28 292.843 1405.12 287.756 1406.46 283.471C1403.13 281.297 1399.93 279.218 1397.26 277.48C1398.49 273.015 1399.74 268.523 1401.22 263.127C1397.01 264.355 1394.21 265.174 1390.4 266.285C1391.71 261.639 1392.72 258.067 1393.83 254.154C1390.42 253.617 1387.26 253.123 1383.64 252.549C1387.84 246.042 1391.59 240.243 1395.93 233.524C1390.92 231.812 1388.75 224.837 1381.22 228.388C1379.29 229.297 1375.62 226.528 1372.47 224.035C1383.48 223.843 1389.65 218.762 1391.05 206.535C1387.34 205.616 1382.17 204.728 1377.3 203C1373.39 201.613 1369.83 199.21 1366.12 197.259C1366.35 196.6 1366.58 195.941 1366.81 195.282C1370.47 195.723 1374.13 196.169 1378.06 196.642C1381.24 192.305 1384.76 187.494 1388.7 182.114C1384.48 181.322 1381.2 177.495 1376.2 181.54C1375.1 182.428 1370.16 178.563 1365.33 176.017C1371.23 175.108 1375.35 175.475 1378.23 173.763C1381.48 171.839 1383.61 168.038 1387.53 163.562C1380.41 161.935 1374.39 160.559 1368.37 159.182C1368.21 159.878 1368.04 160.574 1367.87 161.276C1366.28 159.059 1364.68 156.843 1362.75 154.158C1368.15 153.579 1373.67 152.989 1379.58 152.356C1375.02 144.415 1371.38 138.078 1367.74 131.758C1377.86 125.969 1370.04 117.633 1372.11 110.904C1371.4 110.569 1370.68 110.234 1369.96 109.893C1367.02 114.927 1364.09 119.956 1360.01 126.936C1359.65 120.642 1359.4 116.294 1359.14 111.935C1361.4 111.685 1363.18 111.483 1364.2 111.371C1364.88 108.708 1365.65 106.619 1365.9 104.471C1366.16 102.074 1365.95 99.6234 1365.95 97.194C1364.77 96.1893 1363.59 95.1899 1362.4 94.1852C1361.13 96.7527 1359.86 99.3151 1357.54 103.972C1359.57 97.5289 1361.01 92.9626 1362.11 89.4648C1360.32 86.8069 1358.86 84.6432 1357.42 82.4956C1356.29 87.1204 1355.06 92.112 1353.66 97.8744C1352.83 97.9807 1350.96 98.2146 1349.82 98.3582C1350.33 105.641 1350.83 112.759 1351.44 121.588C1347.85 119.09 1345.87 117.702 1343.51 116.065C1344.26 122.194 1344.97 128.004 1345.76 134.591C1348.59 136.355 1352.61 138.87 1356.61 141.384C1350.2 144.585 1344.73 140.863 1338.78 138.875C1337.26 140.178 1335.42 141.751 1333 143.824C1340.18 147.731 1342.69 160.096 1355.02 152.952C1351.53 164.71 1340.34 156.109 1334.41 163.142C1336.53 166.273 1338.97 169.893 1340.87 172.711C1339.33 175.002 1337.79 177.266 1335.71 180.365C1330.02 181.902 1325.95 178.781 1325.33 171.833C1325.08 169.048 1326.96 166.129 1327.43 163.206C1327.8 160.92 1327.5 158.528 1325.96 155.168C1322.78 158.751 1319.59 162.329 1315.61 166.805C1315.23 163.036 1314.94 160.133 1314.58 156.508C1323.29 157.05 1320.7 150.251 1322.31 144.452C1319.33 146.046 1317.18 147.2 1315.51 148.098C1315.51 144.388 1315.51 139.997 1315.51 135.611C1314.53 135.532 1313.55 135.462 1312.56 135.388C1311.9 139.774 1311.24 144.159 1310.63 148.29C1309.71 147.854 1307.73 146.913 1305.34 145.775C1305.96 151.724 1306.49 156.774 1307.14 163.02C1303.88 161.648 1301.93 160.83 1299.34 159.745C1300.02 164.083 1300.64 168.006 1301.4 172.822C1304.1 174.162 1308.08 176.134 1312.59 178.361C1305.01 182.736 1296.71 172.019 1289.27 179.626C1296.01 182.959 1300.1 191.635 1309.62 186.553C1309.61 187.557 1309.61 188.568 1309.61 189.578C1306.62 189.822 1303.6 189.843 1300.67 190.37C1297.27 190.981 1293.96 192.039 1289.47 193.198C1292.44 196.334 1294.79 198.827 1297.34 201.528C1293.44 203.691 1289.55 205.839 1285.42 208.13C1290.24 212.244 1295.3 216.571 1300.74 221.228C1291.66 225.667 1287.81 224.88 1284.85 218.73C1280.43 219.272 1280.8 219.192 1279.71 214.201C1279.44 213.02 1275.85 212.579 1273.3 211.606C1273.64 210.878 1274.58 208.922 1275.54 206.939C1274.23 205.929 1272.8 204.818 1271.86 204.09C1269.41 207.072 1266.92 210.086 1263.96 213.68C1264.15 215.976 1264.47 219.686 1264.85 224.21C1262.03 223.285 1260.04 222.631 1257.54 221.807C1258.12 225.3 1258.58 228.07 1259.11 231.195C1261.96 232.317 1265.7 233.789 1269.44 235.262L1269.27 236.421C1265.79 236.08 1262.31 235.703 1258.83 235.4C1255.48 235.113 1252.13 234.906 1248.78 234.656C1248.58 235.607 1248.37 236.554 1248.16 237.5C1254.04 239.717 1259.92 241.933 1268.02 244.985C1263.19 244.985 1260.26 244.82 1257.36 245.032C1254.5 245.245 1251.67 245.846 1247.41 246.494C1250.48 249.088 1252.37 250.688 1254.86 252.793C1251.17 254.585 1247.72 256.265 1244.04 258.056C1248.55 261.033 1253.03 263.989 1257.52 266.944C1257.27 267.508 1257.02 268.066 1256.77 268.629C1250.29 268.629 1243.81 268.629 1236.98 268.629C1238.26 265.913 1239.4 263.505 1240.88 260.368C1237.94 260.103 1235.19 259.848 1232.51 259.603C1232.14 260.135 1231.76 260.672 1231.39 261.208C1230.34 260.539 1229.3 259.874 1228.24 259.21C1229.65 259.337 1231.08 259.47 1232.51 259.603C1235.81 254.84 1239.24 249.896 1243.93 243.135C1234.97 241.115 1227.51 239.44 1220.06 237.76C1220.05 237.074 1220.04 236.389 1220.03 235.703C1229.21 236.384 1235.63 232.933 1238.68 223.349C1230.61 221.026 1222.35 218.644 1214.08 216.263C1214.14 215.306 1214.2 214.349 1214.26 213.387C1225.33 218.203 1229.63 209.863 1235.22 203.92C1229.36 198.195 1219.58 207.986 1215.61 199.827C1221.68 197.057 1227.84 194.24 1234.02 191.422C1233.76 190.412 1233.51 189.397 1233.26 188.387C1227.17 187.387 1221.09 186.388 1214.33 185.283C1213.28 181.524 1213.29 181.875 1218.5 181.748C1221.07 181.684 1223.6 180.046 1225.58 179.329C1222.52 174.268 1219.68 169.654 1216.94 164.987C1216.57 164.349 1216.33 162.882 1216.58 162.727C1223.87 158.358 1217.5 152.404 1218.99 147.402C1218.38 147.067 1217.77 146.727 1217.17 146.387C1214.1 150.469 1211.04 154.552 1207.02 159.899C1206.64 155.152 1206.39 151.963 1206.13 148.779C1206.88 149.071 1207.63 149.363 1208.37 149.656C1210.41 145.499 1212.46 141.336 1214.5 137.18C1213.97 136.701 1213.45 136.223 1212.93 135.739C1210.74 137.025 1208.56 138.307 1206.37 139.598C1204.4 135.33 1214 129.881 1205.14 126.58C1203.17 130.184 1200.79 134.511 1198.41 138.838L1197.1 137.748C1197.55 143.165 1198 148.582 1198.55 155.216C1195.31 153.675 1193.37 152.755 1190.88 151.575C1191.48 156.465 1192.04 161.026 1192.65 165.991C1195.72 167.48 1199.76 169.431 1203.8 171.387C1203.79 171.972 1203.78 172.556 1203.77 173.136C1197.87 172.179 1191.98 171.222 1184.79 170.058C1184.47 170.276 1182.73 171.509 1180.39 173.168C1187.54 176.905 1191.52 186.734 1201.87 180.195C1201.97 181.152 1202.06 182.114 1202.16 183.066C1199 183.73 1195.84 184.389 1192.68 185.059C1189.16 185.798 1185.65 186.553 1180.76 187.589C1183.83 191.167 1186.2 193.926 1188.81 196.967C1184.96 199.215 1181.02 201.533 1176.74 204.037C1181.47 208.358 1186.63 213.063 1191.78 217.767C1191.63 218.464 1191.47 219.155 1191.32 219.857C1180.1 218.788 1170.84 231.376 1158.8 223.838C1164.8 221.52 1170.79 219.203 1176.78 216.885C1176.65 216.098 1176.51 215.311 1176.37 214.525C1168.76 213.105 1161.16 211.686 1153.54 210.267C1153.7 209.56 1153.86 208.853 1154.01 208.151C1158.97 207.875 1163.92 207.603 1169.46 207.295C1168 201.187 1159.19 201.953 1160.86 195.165C1161.1 194.192 1161.37 193.187 1161.35 192.204C1161.26 188.424 1161.06 184.65 1160.9 180.87C1153.85 181.412 1155.38 177.208 1156.52 173.099C1156.68 172.493 1156.15 171.69 1155.75 170.292C1153.49 171.514 1151.44 172.62 1150.22 173.279C1150.22 169.851 1150.22 165.747 1150.22 161.638C1149.32 161.574 1148.42 161.51 1147.52 161.446C1146.78 165.391 1146.04 169.335 1145.37 172.918C1144.55 172.641 1142.47 171.945 1140.36 171.238C1140.82 176.474 1141.22 181.003 1141.71 186.548C1138.59 185.266 1136.79 184.528 1134.25 183.48C1134.86 187.552 1135.39 191.087 1136.03 195.324C1139.07 196.658 1142.97 198.381 1146.87 200.098L1146.64 201.342C1139.4 200.619 1132.17 199.885 1124.93 199.162C1124.7 200.284 1124.47 201.405 1124.23 202.527C1130.28 205.222 1136.34 207.917 1142.58 210.697C1137.71 211.463 1131.61 212.415 1123.79 213.642C1127.13 216.726 1129.27 218.719 1132.01 221.255C1128.85 222.796 1125.82 224.752 1122.49 225.731C1119.96 226.48 1119.8 225.927 1120.02 221.978C1120.17 219.277 1112.05 212.872 1109.54 213.51C1108.79 213.701 1107.8 212.967 1106.92 212.659C1109.43 207.763 1106.07 206.338 1102.63 204.122C1100.88 202.984 1100.6 199.555 1099.62 197.083C1096.38 201.209 1093.9 204.382 1090.7 208.481C1090.85 210.41 1091.15 214.142 1091.51 218.506C1088.89 217.635 1086.81 216.938 1084.45 216.151C1084.9 222.743 1085.7 228.601 1093.15 230.531C1087.14 230.111 1081.14 229.701 1075.14 229.287C1075 229.946 1074.86 230.605 1074.72 231.27C1078 233.529 1081.29 235.793 1085.53 238.717C1081.8 239.887 1079.02 240.758 1075.38 241.901C1076.92 243.74 1078.24 245.325 1080.19 247.664C1077.23 249.413 1074.32 251.13 1070.88 253.15C1075.19 255.962 1079.74 258.928 1084.97 262.346C1077.71 264.674 1071.92 266.53 1065.68 268.528C1067.44 264.728 1068.7 261.984 1070.13 258.88C1065.25 258.247 1060.98 257.695 1057.4 257.232C1062.49 251.667 1067.11 246.611 1072.56 240.647C1067.09 238.249 1064.39 232.705 1057.49 235.56C1055.34 236.447 1051.81 233.981 1048.81 231.839C1058.28 230.674 1065.67 227.766 1067.18 216.22C1059.6 213.812 1051.07 211.107 1042.53 208.39C1042.74 207.529 1042.94 206.673 1043.14 205.812C1046.68 206.051 1050.21 206.285 1054.09 206.551C1057.29 202.67 1060.85 198.343 1064.42 194.016C1064.26 193.352 1064.1 192.687 1063.94 192.023C1060.07 192.427 1056.13 193.479 1052.36 193.038C1049.19 192.666 1046.23 190.556 1044.09 189.609C1050.54 186.25 1056.62 183.087 1062.7 179.924C1062.53 178.797 1062.36 177.67 1062.19 176.538C1056.03 175.331 1049.85 174.119 1042.32 172.641C1042.5 171.679 1042.99 169.106 1043.11 168.415C1047.76 167.746 1051.05 167.273 1055.05 166.698C1050.74 159.772 1047.13 153.967 1043.5 148.12C1053.18 142.921 1045.75 135.165 1047.9 129.062C1047.22 128.749 1046.55 128.43 1045.88 128.116C1042.82 132.853 1039.76 137.584 1035.97 143.436C1035.31 138.37 1034.83 134.644 1034.31 130.609C1036.78 130.157 1038.76 129.796 1040.06 129.557C1040.82 124.911 1041.49 120.828 1042.44 115.007C1039.11 117.665 1036.78 119.52 1033.65 122.014C1035.11 117.463 1036.33 113.62 1037.41 110.212C1035.83 107.889 1034.35 105.705 1032.5 102.978C1031.86 109.155 1031.26 114.928 1030.72 120.01C1029.89 119.568 1027.67 118.404 1025.4 117.213C1026.01 124.602 1026.55 131.093 1027.22 139.13C1023.68 136.807 1021.83 135.59 1019.23 133.884C1020.04 139.715 1020.76 144.93 1021.56 150.703C1024.5 152.447 1028.46 154.791 1033.01 157.486C1025.18 162.839 1016.53 149.172 1009.31 159.426C1016.14 163.025 1019.64 174.268 1030.93 166.964C1027.48 178.686 1016.37 170.116 1010.2 176.719C1012.39 179.541 1014.77 182.619 1017.48 186.112C1013.83 188.828 1009.95 191.715 1005.82 194.776C1010.36 199.513 1015.63 205.004 1022.46 212.111C1015.52 213.376 1010.65 214.27 1004.58 215.381C1007.87 219.963 1010.73 223.934 1013.99 228.474C1010.48 228.474 1007.39 228.474 1004.3 228.474C1003.91 229.239 1003.53 230.004 1003.15 230.77C1007.01 233.21 1010.89 235.623 1014.72 238.116C1015.47 238.611 1016.68 239.647 1016.55 240.057C1016.11 241.391 1015.43 243.071 1014.33 243.682C1009.76 246.202 1005.01 248.376 999.973 250.858C999.484 248.227 999.085 246.042 998.378 242.241C994.544 245.303 991.306 247.892 987.339 251.06C986.797 248.636 986.339 246.616 986.201 246.016C988.892 243.23 990.774 241.513 992.311 239.525C992.742 238.972 992.157 237.622 992.034 236.639C990.11 236.904 988.179 237.175 985.856 237.494C986.887 235.448 987.892 233.455 988.833 231.583C987.547 230.611 986.286 229.654 985.106 228.766C982.825 231.482 980.182 234.624 977.358 237.989C977.624 240.636 977.98 244.187 978.411 248.434C975.651 247.86 973.838 247.477 971.02 246.898C971.732 249.588 972.211 251.406 972.998 254.404C968.26 254.17 963.628 254.037 959.029 253.57C958.63 253.527 958.449 251.31 958.29 250.63C962.022 250.284 965.447 249.971 970.967 249.466C967.01 246.701 964.692 245.58 963.102 243.815C961.735 242.305 960.231 239.902 960.502 238.159C961.028 234.762 962.751 231.551 964.437 227.044C955.79 229.186 951.297 229.664 950.856 229.914C953.105 226.767 954.902 224.253 956.694 221.744C954.599 221.313 952.499 220.883 950.165 220.399C950.718 219.362 951.643 217.629 952.201 216.577C951.143 215.173 950.228 213.855 949.144 212.691C949.032 212.574 947.953 213.584 947.245 213.754C942.066 215.009 936.711 218.352 932.5 213.18C938.211 210.756 944.145 208.236 950.074 205.716C949.957 204.834 949.846 203.946 949.729 203.059C943.815 202.128 937.897 201.198 931.984 200.268C931.867 200.778 931.755 201.288 931.638 201.799C930.048 200.05 928.459 198.301 926.72 196.382C932.117 196.095 937.222 195.829 942.342 195.558C938.982 190.471 936.265 186.431 933.654 182.321C933.303 181.763 933.276 180.807 933.462 180.132C934.1 177.798 935.393 175.523 935.488 173.189C935.579 171.142 934.398 169.043 933.776 166.964C932.096 168.261 930.219 169.367 928.799 170.898C927.31 172.509 926.252 174.523 923.806 178.133C923.157 173.375 922.79 170.706 922.726 170.233C926.007 166.098 928.209 163.615 929.969 160.846C930.304 160.319 928.73 157.667 928.352 157.736C926.48 158.076 924.72 158.996 922.12 160.038C923.242 157.082 924.353 154.153 925.252 151.782C923.806 150.113 922.471 148.577 920.95 146.817C920.073 151.112 919.211 155.312 918.419 159.176C917.409 158.751 915.489 157.938 913.378 157.04C913.958 162.616 914.473 167.517 915.112 173.646C911.698 172.179 909.725 171.328 907.279 170.276C908.013 174.534 908.699 178.494 909.475 182.986C912.538 184.352 916.377 186.059 920.222 187.765C920.248 188.249 920.275 188.738 920.301 189.227C912.82 188.461 905.343 187.696 897.862 186.93C897.734 187.808 897.601 188.685 897.468 189.562C903.839 192.794 908.21 201.326 917.871 195.829C917.914 196.791 917.946 197.753 917.983 198.71C914.894 199.125 911.783 199.422 908.72 199.986C905.365 200.608 902.057 201.48 897.117 202.607C900.377 205.679 902.669 207.848 905.29 210.331C901.467 212.484 897.691 214.61 893.554 216.938C898.207 220.824 903.078 224.896 909.81 230.525C902.807 231.488 898.106 232.136 892.012 232.976C895.4 236.559 897.915 239.233 900.893 242.385C897.984 242.736 895.277 243.066 891.22 243.555C895.437 247.504 897.224 253.166 904.057 249.338C903.897 257.147 897.989 256.286 892.039 257.402C893.129 255.605 893.762 254.563 895.16 252.267C886.769 250.369 878.772 248.562 870.769 246.754C870.849 246.122 870.934 245.49 871.014 244.862C874.885 244.692 879.144 245.463 882.521 244.076C885.966 242.667 888.551 239.132 893.002 235.214C884.43 234.831 878.261 234.549 872.093 234.273L872.263 233.045C877.958 230.642 883.653 228.24 889.348 225.837C889.21 225.045 889.061 224.258 888.918 223.466C881.361 222.217 873.811 220.967 866.249 219.718C866.35 219.017 866.446 218.315 866.542 217.613C871.636 217.22 876.735 216.821 883.893 216.268C880 213.09 877.772 211.564 875.911 209.671C873.497 207.226 870.934 205.243 874.529 200.932C876.172 198.96 874.295 194.054 874.018 190.476C871.864 192.044 869.647 193.522 867.6 195.212C866.441 196.164 865.569 197.461 863.426 199.917C862.782 196.074 862.362 193.533 861.937 190.997C862.564 191.3 863.186 191.598 863.814 191.901C866.047 188.498 868.281 185.091 870.509 181.689C869.881 181.131 869.259 180.567 868.631 180.009C866.6 181.078 864.558 182.141 861.533 183.73C862.814 180.684 863.893 178.122 864.835 175.884C863.495 174.427 862.245 173.067 860.623 171.297C859.64 175.034 858.64 178.813 857.688 182.401C857.05 182.162 855.146 181.455 853.067 180.679C853.572 185.809 854.04 190.556 854.646 196.722C851.068 194.925 849.313 194.048 846.66 192.719C847.532 197.083 848.26 200.757 849.079 204.866C852.078 206.142 855.864 207.752 859.645 209.363C859.586 209.879 859.523 210.394 859.459 210.91C855.774 210.394 852.094 209.783 848.393 209.395C845.001 209.044 841.581 208.932 837.864 209.841C843.581 214.775 848.372 221.829 857.72 216.773C857.715 217.735 857.709 218.698 857.704 219.665C851.233 220.664 844.761 221.664 836.732 222.903C840.013 225.895 842.315 228 844.91 230.377C840.938 232.344 837.093 234.247 833.052 236.245C837.657 239.924 842.437 243.741 847.213 247.557C846.819 248.589 846.426 249.62 846.027 250.651C835.046 249.051 824.066 247.456 813.085 245.856C813.175 245.255 813.266 244.655 813.356 244.049C817.961 243.671 822.561 243.289 829.122 242.741C825.214 239.887 822.827 238.542 820.987 236.671C819.349 235.007 815.951 233.507 820.093 230.164C821.471 229.047 820.226 224.689 820.184 221.813C818.009 222.722 815.632 223.333 813.723 224.641C812.346 225.576 811.596 227.431 809.57 230.275C808.618 226.055 808.14 223.929 808.134 223.886C811.415 220.266 813.633 217.826 815.845 215.386C815.302 214.626 814.755 213.871 814.212 213.116C812.133 213.775 810.054 214.434 808.012 215.088C806.661 212.042 815.605 208.013 806.342 206.073C805.571 208.188 804.487 211.16 803.471 213.956C802.344 213.834 800.562 213.642 798.972 213.472C799.414 217.735 799.812 221.499 800.291 226.119C797.202 225.055 795.314 224.407 792.719 223.514C793.474 227.086 793.171 231.142 795.048 233.088C797.249 235.368 801.355 235.809 804.449 238.191C797.515 237.542 790.587 236.899 783.658 236.251C783.568 236.936 783.477 237.622 783.387 238.308C786.971 240.482 790.549 242.661 795.856 245.883C787.455 247.09 780.632 248.067 773.087 249.147C774.767 244.618 776.07 241.099 777.325 237.723C772.518 237.101 768.312 236.559 765.142 236.15C769.901 229.973 774.262 224.593 778.138 218.889C778.58 218.24 776.426 214.461 775.283 214.365C771.545 214.036 768.966 208.22 764.026 212.292C762.994 213.143 758.964 210.357 756.076 208.023C766.934 207.46 772.699 201.82 775.012 191.709C768.827 184.267 755.427 190.178 749.86 178.962C754.295 179.52 758.118 180.004 761.532 180.44C765.041 175.618 768.482 170.898 772.321 165.63C767.993 165.486 764.754 161.808 759.83 165.162C758.32 166.188 753.364 162.153 750.168 159.251C760.809 162.201 764.978 154.743 770.875 147.285C764.031 145.759 757.916 144.393 751.806 143.032C751.668 143.67 751.524 144.313 751.391 144.951C749.754 142.761 748.116 140.576 746.101 137.887C751.716 137.397 757.14 136.93 763.287 136.398C758.74 128.568 755.124 122.349 751.402 115.943C760.644 110.096 753.885 101.994 754.348 94.4139C752.513 96.6199 750.424 98.6559 748.919 101.069C747.339 103.6 746.313 106.481 743.107 109.022C742.921 104.859 742.734 100.697 742.532 96.0883C744.59 95.7959 746.435 95.5354 747.887 95.3281C748.642 90.2355 749.339 85.6002 750.285 79.2319C747.127 81.9004 744.909 83.7716 741.91 86.3073C743.25 81.5017 744.447 77.233 745.446 73.6448C743.968 71.359 742.628 69.2911 741.134 67C740.895 68.5841 740.884 70.5457 740.23 72.2574C739.767 73.4588 738.422 74.3201 737.263 75.5534C738.076 78.695 739.028 82.3735 740.033 86.2647C737.624 84.3829 735.593 82.7987 733.28 80.9966C733.881 89.3797 734.402 96.604 735.061 105.721C731.52 103.174 729.776 101.92 727.298 100.134C727.936 106.204 728.516 111.664 729.228 118.425C731.919 120.126 736.221 122.843 740.427 125.501C736.215 128.834 728.989 127.686 722.608 122.402C720.821 124.028 719.029 125.665 716.785 127.712C724.022 131.066 725.82 145.27 738.895 137.801C737.125 139.997 735.354 142.198 734.955 142.692C728.207 143.644 723.294 144.335 716.673 145.265C720.045 150.23 722.507 153.855 725.001 157.518C721.443 160.41 717.545 163.578 713.424 166.932C718.2 172.434 723.437 178.473 730.042 186.091C723.235 187.483 718.279 188.499 711.866 189.812C715.413 194.936 718.364 199.204 721.512 203.75C718.396 203.898 715.28 204.042 710.787 204.255C714.52 209.523 715.626 215.753 723.847 214.849C724.868 226.204 710.468 221.627 708.511 230.414C714.85 240.312 714.85 240.312 729.829 238.095C726.894 240.195 723.953 242.289 720.81 244.533C721.433 245.745 722.097 247.036 722.975 248.748C716.2 249.827 709.649 250.874 703.188 251.906C703.917 266.849 718.87 264.111 725.857 271.489C719.268 278.139 711.271 276.433 702.667 275.502C704.518 279.197 705.629 283.168 708.102 285.906C710.808 288.899 714.78 290.738 718.2 293.082C718.221 293.879 718.242 294.677 718.269 295.474C710.409 297.383 702.55 299.291 694.09 301.343C697.61 307.525 700.62 312.82 704.337 319.358C703.816 319.688 701.668 321.075 698.732 322.973C702.183 326.827 705.528 330.564 708.995 334.45C704.353 336.486 695.834 332.302 695.712 343.072C699.812 345.735 705.193 349.233 710.883 352.928C710.542 353.066 708.867 354.389 707.479 354.14C701.114 353.007 697.078 354.735 696.042 361.656C695.925 362.432 694.058 362.953 693 363.596C693 364.112 693 364.633 693 365.149C698.02 367.759 703.885 368.822 706.15 375.499C709.176 384.403 722.145 387.193 729.356 380.745C733.115 377.386 736.359 373.457 741.193 368.354C740.485 376.227 739.89 382.856 739.262 389.867C742.921 389.867 746.148 389.867 749.929 389.867C749.541 385.471 749.195 381.511 748.791 376.955C759.867 387.145 763.946 384.934 768.312 380.325C782.727 383.472 794.213 377.651 806.427 369.842C805.773 374.403 805.284 377.821 804.742 381.617C808.124 381.617 811.16 381.617 814.638 381.617C814.638 379.432 814.638 377.316 814.638 375.164C829.909 379.99 844.825 380.24 860.224 371.889C859.661 375.844 859.289 378.491 858.821 381.771C862.426 381.771 865.792 381.771 869.456 381.771C869.147 379.097 868.865 376.615 868.456 373.08C874.949 378.3 881.005 376.689 887.79 376.546C896.277 376.365 906.614 372.564 914.92 381.367C920.987 387.799 929.947 385.758 937.908 383.004C940.545 382.095 943.273 381.426 945.958 380.639C946.203 381.442 946.453 382.239 946.703 383.036C944.443 384.472 942.178 385.912 939.971 387.31C941.385 392.052 954.589 400.515 959.768 400.94C968.776 401.684 976.507 399.005 984.68 391.478C983.952 396.932 983.511 400.26 983.005 404.05C986.409 404.05 989.402 404.05 992.917 404.05C992.821 401.961 992.731 400.089 992.641 398.085C1009.75 404.034 1026.06 397.352 1043.03 397.113C1042.69 392.833 1042.39 389.102 1042.05 384.939C1051.82 392.887 1055.98 393.338 1061.69 387.422C1069.02 390.548 1075.68 389.15 1082.08 384.716C1083.42 383.791 1085.43 383.839 1087.14 383.462C1094.68 381.787 1102.22 380.123 1110.26 378.337C1110.11 379.873 1109.79 383.18 1109.43 386.821C1112.49 386.821 1115.52 386.821 1119.07 386.821C1119.24 384.865 1119.41 382.946 1119.46 382.468C1127.32 382.468 1134.78 382.845 1142.18 382.361C1149.27 381.893 1156.31 380.527 1163.36 379.555C1163.36 378.693 1163.35 377.832 1163.34 376.971C1161.25 376.264 1159.15 375.552 1156.93 374.813C1160.41 369.391 1165.4 368.742 1172.35 372.405C1184.29 378.704 1192.45 376.992 1201.35 366.313C1201.83 365.744 1202.27 365.148 1204.64 364.798C1204.06 369.848 1203.47 374.898 1202.83 380.517C1206.32 380.517 1209.76 380.517 1213.38 380.517C1213.08 377.115 1212.82 374.111 1212.47 369.965C1218.76 375.403 1224.53 379.48 1231.6 373.159C1232.19 372.628 1234.02 373.138 1235.11 373.574C1247.61 378.545 1259.25 377.827 1271.05 366.94C1270.53 371.979 1270.2 375.28 1269.76 379.581C1272.7 379.746 1275.61 379.911 1279.13 380.113C1279.33 377.662 1279.5 375.568 1279.67 373.495C1280.25 373.425 1280.72 373.277 1281.17 373.33C1286.28 373.962 1291.36 375.004 1296.48 375.174C1301.18 375.328 1305.91 374.334 1310.61 374.494C1311.13 374.515 1311.51 378.768 1311.51 381.006C1313.89 386.752 1323.73 385.455 1323.79 394.976C1323.8 396.639 1330.57 399.165 1334.42 399.643C1338.38 400.143 1342.73 399.085 1346.67 397.905C1354.15 395.672 1356.59 398.101 1355.15 407C1358.77 407 1362.39 407 1366 407C1366 402.939 1366 398.872 1366 394.556C1368.77 396.911 1371.17 400.472 1374.19 401.126C1377.43 401.833 1381.27 399.802 1384.78 399.446C1397.81 397.607 1410.83 395.768 1423.85 393.928C1423.83 392.993 1423.8 392.057 1423.77 391.122C1421.29 390.415 1418.81 389.702 1415.75 388.836Z" fill="url(#paint1_linear_105_35)"/>
<path d="M1480.11 126.275C1480.83 125.026 1482.08 122.867 1482.64 121.883C1476.01 119.703 1471.32 120.866 1467.08 127.508C1471.31 127.108 1475.5 126.713 1480.11 126.275ZM1577.53 249.818C1572.92 250.24 1568.85 250.749 1564.78 250.933C1560.72 251.122 1556.64 250.971 1550.92 250.971C1561.22 257.045 1570.8 256.418 1577.53 249.818ZM1636.55 169.406C1633.35 173.138 1631.25 175.594 1628.32 179.013C1637.52 177.114 1645.65 175.437 1653.76 173.771C1653.77 172.803 1653.77 171.834 1653.78 170.871C1643.62 175.497 1638.2 168.313 1631.94 163.395C1629.61 165.186 1627.62 166.722 1624.14 169.406C1628.88 169.406 1631.78 169.406 1636.55 169.406ZM1678.96 177.352C1682.95 176.541 1686.92 175.74 1692.57 174.593C1688.39 171.932 1686.1 170.471 1683.53 168.843C1681.66 171.12 1680.01 173.116 1678.37 175.112C1678.57 175.859 1678.76 176.606 1678.96 177.352ZM1755.98 255.455C1751.32 256.548 1746.65 257.641 1740.86 258.993C1748.31 265.068 1752.06 259.837 1755.98 255.455ZM1804.94 201.56C1804.29 202.728 1803.61 203.94 1802.3 206.266C1810.39 206.266 1817.39 206.266 1824.4 206.266C1824.87 205.617 1825.35 204.962 1825.83 204.313C1821.65 203.469 1817.48 202.625 1812.93 201.7C1816.64 198.027 1819.94 194.76 1823.24 191.487C1822.88 190.697 1822.52 189.902 1822.15 189.107C1813.51 190.903 1807.04 204.546 1795.84 192.358C1795.8 193.624 1795.76 194.89 1795.72 196.156C1798.79 197.957 1801.85 199.758 1804.94 201.56ZM1823.24 226.822C1815.55 225.73 1807.97 224.659 1800.39 223.582C1800.22 224.491 1800.06 225.4 1799.89 226.309C1806.71 231.393 1816.05 231.599 1823.24 226.822ZM1927.46 212.828C1928.1 211.881 1928.75 210.929 1929.39 209.972C1924.68 207.164 1919.96 204.346 1915.25 201.533C1914.9 202.225 1914.55 202.912 1914.21 203.599C1918.63 206.677 1923.04 209.755 1927.46 212.828ZM2009.68 204.589C2003.74 203.291 1999.27 202.312 1993.22 200.986C1991.18 201.96 1987.23 203.837 1983.32 205.698C1985.7 209.328 1996.36 209.442 2009.68 204.589ZM1993.64 189.069C1992.67 190.254 1991.22 192.023 1989.34 194.327C1996.44 194.327 2002.73 194.327 2009.02 194.327C2009.05 193.732 2009.07 193.142 2009.09 192.547C2004.17 191.438 1999.24 190.329 1993.64 189.069ZM1383.77 327.516C1381.5 325.081 1379.09 323.199 1377.65 320.77C1376.45 318.763 1376.39 316.112 1375.82 313.748C1377.83 313.467 1379.83 313.023 1381.84 312.942C1385.3 312.813 1388.76 312.905 1392.22 312.905C1392.47 311.931 1392.71 310.946 1392.95 309.967C1386.62 307.03 1380.28 304.098 1372 300.262C1379.98 298.364 1385.94 296.946 1392.47 295.394C1387.77 289.606 1375.9 293.668 1374.51 283.558C1379.58 282.465 1384.41 281.421 1389.78 280.258C1385.67 277.467 1382.23 275.113 1377.69 272.03C1382.15 271.375 1385.48 270.889 1389.5 270.304C1387.88 267.34 1386.43 264.673 1384.24 260.637C1388.83 261.287 1391.82 261.703 1394.89 262.136C1394.23 259.112 1393.66 256.564 1393.43 255.525C1391.2 249.656 1389.5 245.22 1387.79 240.741C1390.81 240.373 1393.62 240.503 1395.97 239.556C1397.17 239.075 1398.45 236.441 1398.12 235.142C1396.81 229.825 1394.9 224.648 1393.48 220.293C1396.98 218.075 1400.31 215.966 1403.1 214.191C1401.82 209.653 1400.53 205.081 1398.97 199.585C1403.37 200.84 1406.31 201.668 1410.29 202.804C1408.92 198.071 1407.86 194.441 1406.71 190.459C1410.28 189.908 1413.57 189.399 1417.37 188.82C1412.97 182.204 1409.05 176.302 1404.5 169.459C1409.75 167.723 1412.02 160.62 1419.89 164.234C1421.91 165.164 1425.76 162.341 1429.05 159.804C1417.52 159.614 1411.07 154.442 1409.61 141.995C1413.5 141.059 1418.9 140.156 1423.99 138.398C1428.09 136.986 1431.82 134.541 1435.7 132.556C1435.46 131.885 1435.22 131.214 1434.97 130.549C1431.14 130.998 1427.31 131.447 1423.2 131.928C1419.88 127.514 1416.19 122.618 1412.08 117.149C1416.49 116.343 1419.92 112.448 1425.15 116.565C1426.29 117.468 1431.47 113.536 1436.52 110.944C1430.34 110.014 1426.04 110.387 1423.03 108.651C1419.63 106.687 1417.4 102.819 1413.29 98.27C1420.74 96.6092 1427.04 95.208 1433.34 93.8124C1433.51 94.5156 1433.69 95.2297 1433.86 95.9384C1435.53 93.6826 1437.2 91.4268 1439.22 88.6949C1433.57 88.1053 1427.8 87.5048 1421.62 86.861C1426.39 78.7846 1430.2 72.3364 1434 65.899C1423.42 60.0081 1431.59 51.5314 1429.42 44.683C1430.18 44.3367 1430.92 43.996 1431.67 43.6552C1434.75 48.7726 1437.83 53.8953 1442.09 60.9927C1442.47 54.5878 1442.73 50.168 1442.99 45.7268C1440.64 45.4726 1438.78 45.2672 1437.71 45.1536C1437 42.4434 1436.19 40.3174 1435.93 38.1373C1435.65 35.6922 1435.87 33.1983 1435.87 30.7261C1437.11 29.7037 1438.34 28.6869 1439.58 27.6645C1440.91 30.2719 1442.25 32.8847 1444.68 37.6289C1442.55 31.0671 1441.05 26.4201 1439.9 22.8607C1441.77 20.1559 1443.29 17.9543 1444.8 15.7688C1445.98 20.4751 1447.26 25.5602 1448.74 31.4187C1449.6 31.5269 1451.56 31.7703 1452.75 31.9164C1452.22 39.322 1451.7 46.5654 1451.05 55.5506C1454.8 53.0081 1456.89 51.5962 1459.35 49.9301C1458.57 56.1727 1457.83 62.0799 1456.99 68.7824C1454.04 70.5838 1449.84 73.1372 1445.64 75.6959C1452.35 78.9525 1458.07 75.1712 1464.3 73.148C1465.9 74.4734 1467.82 76.0745 1470.34 78.1788C1462.84 82.1549 1460.21 94.7429 1447.32 87.4725C1450.96 99.433 1462.67 90.6803 1468.88 97.8426C1466.66 101.029 1464.1 104.713 1462.11 107.574C1463.73 109.906 1465.33 112.216 1467.52 115.364C1473.46 116.927 1477.73 113.757 1478.38 106.682C1478.64 103.847 1476.67 100.883 1476.17 97.902C1475.79 95.5813 1476.1 93.1417 1477.72 89.7282C1481.05 93.3689 1484.38 97.0093 1488.55 101.57C1488.94 97.7288 1489.25 94.7806 1489.62 91.0859C1480.52 91.6431 1483.22 84.7245 1481.54 78.8172C1484.66 80.4455 1486.9 81.6192 1488.64 82.5334C1488.64 78.7521 1488.64 74.2892 1488.64 69.821C1489.68 69.7452 1490.71 69.6695 1491.73 69.5938C1492.42 74.0621 1493.11 78.525 1493.76 82.7228C1494.72 82.2792 1496.79 81.3217 1499.3 80.1641C1498.64 86.2174 1498.09 91.3564 1497.4 97.7126C1500.82 96.317 1502.86 95.4841 1505.56 94.3805C1504.86 98.7947 1504.21 102.792 1503.42 107.688C1500.6 109.051 1496.42 111.058 1491.71 113.325C1499.63 117.777 1508.33 106.876 1516.1 114.617C1509.05 118.004 1504.78 126.838 1494.82 121.661C1494.82 122.683 1494.83 123.711 1494.83 124.739C1497.95 124.988 1501.11 125.009 1504.17 125.545C1507.73 126.167 1511.2 127.243 1515.9 128.423C1512.79 131.62 1510.33 134.151 1507.66 136.899C1511.75 139.106 1515.81 141.292 1520.13 143.618C1515.09 147.805 1509.8 152.203 1504.1 156.947C1513.61 161.47 1517.63 160.664 1520.73 154.41C1525.35 154.956 1524.97 154.881 1526.12 149.796C1526.39 148.595 1530.15 148.141 1532.82 147.161C1532.45 146.415 1531.48 144.43 1530.48 142.406C1531.84 141.379 1533.34 140.253 1534.32 139.507C1536.89 142.542 1539.49 145.614 1542.59 149.266C1542.39 151.608 1542.05 155.378 1541.66 159.987C1544.61 159.041 1546.68 158.381 1549.31 157.542C1548.7 161.091 1548.21 163.915 1547.67 167.09C1544.69 168.231 1540.77 169.735 1536.85 171.228L1537.03 172.413C1540.67 172.062 1544.31 171.677 1547.96 171.369C1551.46 171.082 1554.96 170.866 1558.47 170.617C1558.68 171.58 1558.9 172.543 1559.11 173.506C1552.96 175.762 1546.82 178.017 1538.34 181.122C1543.39 181.122 1546.45 180.955 1549.49 181.171C1552.49 181.388 1555.45 181.999 1559.91 182.659C1556.7 185.299 1554.71 186.932 1552.11 189.075C1555.97 190.898 1559.59 192.602 1563.44 194.425C1558.71 197.459 1554.02 200.462 1549.33 203.469C1549.59 204.037 1549.85 204.611 1550.11 205.179C1556.89 205.179 1563.67 205.179 1570.82 205.179C1569.48 202.425 1568.29 199.975 1566.75 196.783C1569.81 196.507 1572.69 196.247 1575.5 195.999C1575.89 196.545 1576.28 197.086 1576.67 197.632C1577.76 196.956 1578.86 196.28 1579.96 195.598C1578.48 195.728 1576.99 195.869 1575.5 195.999C1572.04 191.152 1568.45 186.121 1563.54 179.245C1572.93 177.19 1580.72 175.48 1588.52 173.776C1588.53 173.078 1588.54 172.381 1588.55 171.677C1578.95 172.37 1572.24 168.864 1569.04 159.111C1577.48 156.742 1586.13 154.318 1594.79 151.895C1594.72 150.921 1594.65 149.942 1594.58 148.974C1583.01 153.869 1578.51 145.382 1572.66 139.339C1578.79 133.508 1589.02 143.478 1593.19 135.168C1586.84 132.35 1580.38 129.483 1573.92 126.616C1574.18 125.588 1574.45 124.56 1574.71 123.527C1581.08 122.516 1587.45 121.498 1594.53 120.368C1595.61 116.549 1595.6 116.906 1590.16 116.776C1587.47 116.706 1584.82 115.045 1582.75 114.314C1585.96 109.159 1588.92 104.469 1591.79 99.7195C1592.18 99.065 1592.43 97.572 1592.17 97.4205C1584.53 92.9684 1591.2 86.9097 1589.64 81.8247C1590.28 81.4785 1590.92 81.1379 1591.56 80.7917C1594.76 84.9408 1597.96 89.0951 1602.17 94.5372C1602.57 89.7064 1602.83 86.4663 1603.09 83.226C1602.31 83.5181 1601.54 83.8156 1600.75 84.1185C1598.62 79.8828 1596.48 75.6525 1594.35 71.4169C1594.89 70.93 1595.44 70.4431 1595.98 69.9562C1598.27 71.2599 1600.56 72.5636 1602.85 73.8781C1604.91 69.5342 1594.87 63.995 1604.13 60.6303C1606.2 64.298 1608.69 68.7012 1611.17 73.11L1612.54 71.9956C1612.07 77.5133 1611.6 83.0259 1611.03 89.7716C1614.43 88.2028 1616.45 87.2723 1619.06 86.066C1618.43 91.0428 1617.84 95.6895 1617.2 100.742C1613.99 102.257 1609.77 104.242 1605.54 106.227C1605.55 106.822 1605.56 107.417 1605.57 108.012C1611.74 107.033 1617.91 106.06 1625.43 104.875C1625.76 105.097 1627.58 106.352 1630.03 108.04C1622.55 111.848 1618.38 121.85 1607.55 115.196C1607.45 116.17 1607.35 117.144 1607.25 118.118C1610.56 118.794 1613.87 119.459 1617.17 120.141C1620.85 120.898 1624.52 121.661 1629.64 122.721C1626.43 126.356 1623.95 129.169 1621.23 132.258C1625.24 134.552 1629.37 136.905 1633.85 139.458C1628.89 143.856 1623.5 148.638 1618.11 153.426C1618.27 154.134 1618.43 154.843 1618.6 155.551C1630.33 154.459 1640.02 167.279 1652.61 159.609C1646.34 157.245 1640.07 154.892 1633.81 152.528C1633.95 151.732 1634.09 150.926 1634.24 150.131C1642.2 148.681 1650.16 147.237 1658.12 145.793C1657.95 145.073 1657.8 144.359 1657.64 143.64C1652.45 143.364 1647.26 143.083 1641.46 142.769C1643 136.553 1652.22 137.332 1650.47 130.424C1650.22 129.434 1649.93 128.417 1649.96 127.411C1650.05 123.57 1650.25 119.73 1650.43 115.883C1657.8 116.435 1656.21 112.156 1655.02 107.969C1654.84 107.352 1655.38 106.541 1655.81 105.118C1658.18 106.357 1660.32 107.482 1661.6 108.153C1661.6 104.664 1661.6 100.488 1661.6 96.3061C1662.54 96.2412 1663.48 96.1763 1664.41 96.1114C1665.19 100.125 1665.97 104.139 1666.67 107.785C1667.53 107.504 1669.7 106.795 1671.91 106.076C1671.44 111.404 1671.02 116.019 1670.51 121.655C1673.77 120.352 1675.66 119.6 1678.31 118.534C1677.67 122.678 1677.11 126.275 1676.44 130.586C1673.27 131.95 1669.18 133.697 1665.1 135.444L1665.35 136.716C1672.92 135.974 1680.49 135.233 1688.05 134.492C1688.3 135.634 1688.54 136.775 1688.79 137.922C1682.46 140.664 1676.13 143.407 1669.59 146.236C1674.68 147.01 1681.07 147.978 1689.25 149.228C1685.76 152.371 1683.51 154.399 1680.65 156.974C1683.96 158.543 1687.13 160.539 1690.61 161.534C1693.26 162.292 1693.43 161.735 1693.2 157.71C1693.04 154.967 1701.54 148.443 1704.17 149.092C1704.95 149.287 1705.98 148.546 1706.9 148.227C1704.27 143.245 1707.79 141.801 1711.39 139.539C1713.23 138.382 1713.51 134.898 1714.54 132.377C1717.92 136.575 1720.52 139.804 1723.89 143.975C1723.72 145.939 1723.4 149.736 1723.03 154.183C1725.77 153.296 1727.94 152.587 1730.42 151.781C1729.94 158.494 1729.1 164.456 1721.32 166.409C1727.6 165.992 1733.88 165.57 1740.16 165.148C1740.3 165.824 1740.45 166.495 1740.6 167.166C1737.16 169.47 1733.72 171.775 1729.29 174.745C1733.19 175.935 1736.09 176.822 1739.91 177.99C1738.3 179.862 1736.92 181.474 1734.87 183.854C1737.97 185.629 1741.02 187.371 1744.61 189.432C1740.1 192.299 1735.35 195.312 1729.87 198.795C1737.47 201.159 1743.53 203.047 1750.06 205.087C1748.22 201.214 1746.89 198.422 1745.4 195.258C1750.51 194.619 1754.97 194.062 1758.72 193.592C1753.39 187.922 1748.56 182.783 1742.85 176.714C1748.58 174.274 1751.4 168.632 1758.63 171.537C1760.87 172.44 1764.57 169.93 1767.7 167.75C1757.79 166.565 1750.07 163.601 1748.49 151.851C1756.41 149.406 1765.35 146.647 1774.27 143.888C1774.06 143.012 1773.85 142.136 1773.64 141.259C1769.94 141.503 1766.23 141.746 1762.19 142.017C1758.84 138.068 1755.11 133.665 1751.38 129.256C1751.54 128.58 1751.71 127.903 1751.88 127.227C1755.93 127.638 1760.05 128.709 1764 128.26C1767.3 127.882 1770.4 125.734 1772.65 124.771C1765.9 121.352 1759.53 118.139 1753.17 114.915C1753.35 113.768 1753.52 112.621 1753.7 111.474C1760.16 110.241 1766.62 109.008 1774.49 107.509C1774.31 106.53 1773.8 103.912 1773.67 103.209C1768.8 102.527 1765.37 102.046 1761.17 101.456C1765.68 94.4128 1769.46 88.5057 1773.26 82.5498C1763.13 77.2592 1770.91 69.3665 1768.66 63.1618C1769.36 62.8372 1770.07 62.5183 1770.77 62.1937C1773.98 67.0136 1777.18 71.8334 1781.14 77.7839C1781.83 72.634 1782.33 68.8365 1782.87 64.7361C1780.29 64.2762 1778.22 63.903 1776.86 63.6649C1776.06 58.937 1775.36 54.7771 1774.37 48.8537C1777.85 51.5584 1780.29 53.4463 1783.56 55.9888C1782.05 51.3528 1780.76 47.4471 1779.63 43.9796C1781.28 41.6156 1782.83 39.387 1784.77 36.6119C1785.44 42.8978 1786.07 48.7726 1786.63 53.9442C1787.5 53.4952 1789.83 52.3105 1792.2 51.1041C1791.56 58.618 1791 65.223 1790.3 73.4077C1794 71.0437 1795.94 69.7993 1798.65 68.0629C1797.81 73.9971 1797.06 79.304 1796.22 85.1787C1793.14 86.9531 1789 89.3388 1784.24 92.0815C1792.43 97.5289 1801.48 83.6263 1809.03 94.0559C1801.89 97.7182 1798.22 109.159 1786.42 101.726C1790.03 113.655 1801.65 104.934 1808.1 111.653C1805.81 114.526 1803.32 117.658 1800.49 121.212C1804.32 123.981 1808.37 126.913 1812.68 130.035C1807.93 134.849 1802.41 140.443 1795.28 147.67C1802.53 148.963 1807.63 149.872 1813.99 151.002C1810.54 155.66 1807.55 159.701 1804.14 164.32C1807.81 164.32 1811.05 164.32 1814.28 164.32C1814.68 165.099 1815.08 165.878 1815.48 166.657C1811.44 169.14 1807.39 171.591 1803.38 174.133C1802.59 174.642 1801.32 175.691 1801.46 176.113C1801.92 177.466 1802.63 179.181 1803.78 179.797C1808.56 182.367 1813.54 184.579 1818.8 187.105C1819.32 184.428 1819.73 182.199 1820.47 178.331C1824.49 181.453 1827.87 184.087 1832.02 187.311C1832.6 184.844 1833.07 182.789 1833.22 182.172C1830.4 179.337 1828.43 177.59 1826.82 175.572C1826.37 175.004 1826.98 173.63 1827.11 172.63C1829.13 172.905 1831.15 173.17 1833.58 173.506C1832.5 171.418 1831.45 169.389 1830.46 167.485C1831.81 166.495 1833.13 165.527 1834.36 164.618C1836.75 167.382 1839.51 170.585 1842.47 174.009C1842.19 176.703 1841.82 180.317 1841.37 184.633C1844.25 184.049 1846.15 183.665 1849.1 183.07C1848.35 185.807 1847.85 187.657 1847.03 190.708C1851.99 190.476 1856.83 190.335 1861.65 189.859C1862.06 189.821 1862.25 187.565 1862.42 186.873C1858.51 186.516 1854.93 186.202 1849.16 185.683C1853.3 182.87 1855.72 181.728 1857.39 179.932C1858.81 178.396 1860.38 175.951 1860.11 174.177C1859.55 170.72 1857.75 167.452 1855.99 162.865C1865.04 165.045 1869.74 165.532 1870.2 165.792C1867.85 162.589 1865.97 160.031 1864.09 157.472C1866.28 157.034 1868.47 156.596 1870.92 156.103C1870.34 155.048 1869.37 153.29 1868.79 152.214C1869.9 150.791 1870.86 149.444 1872 148.259C1872.11 148.14 1873.24 149.168 1873.98 149.341C1879.39 150.618 1885 154.021 1889.4 148.763C1883.43 146.29 1877.22 143.726 1871.02 141.162C1871.14 140.259 1871.26 139.361 1871.38 138.458C1877.57 137.516 1883.76 136.564 1889.94 135.617C1890.07 136.137 1890.18 136.656 1890.31 137.181C1891.97 135.401 1893.63 133.616 1895.45 131.668C1889.8 131.376 1884.46 131.1 1879.11 130.824C1882.62 125.648 1885.47 121.542 1888.2 117.36C1888.56 116.792 1888.59 115.813 1888.4 115.126C1887.73 112.751 1886.38 110.441 1886.28 108.061C1886.19 105.984 1887.42 103.842 1888.07 101.726C1889.83 103.046 1891.79 104.177 1893.28 105.735C1894.83 107.369 1895.94 109.424 1898.5 113.092C1899.19 108.251 1899.56 105.54 1899.63 105.059C1896.2 100.845 1893.89 98.3184 1892.05 95.5055C1891.7 94.9645 1893.35 92.2652 1893.74 92.3356C1895.7 92.6872 1897.54 93.623 1900.26 94.6832C1899.09 91.6755 1897.93 88.6894 1896.99 86.2768C1898.51 84.5782 1899.9 83.015 1901.49 81.2299C1902.41 85.5954 1903.31 89.8743 1904.14 93.8071C1905.19 93.3689 1907.2 92.5411 1909.41 91.6269C1908.8 97.3069 1908.27 102.289 1907.6 108.532C1911.17 107.033 1913.23 106.173 1915.8 105.097C1915.03 109.435 1914.31 113.46 1913.5 118.036C1910.3 119.421 1906.27 121.158 1902.25 122.894C1902.22 123.392 1902.2 123.884 1902.17 124.382C1910 123.603 1917.82 122.824 1925.65 122.05C1925.79 122.943 1925.92 123.835 1926.06 124.728C1919.39 128.017 1914.82 136.699 1904.71 131.106C1904.67 132.079 1904.63 133.059 1904.59 134.038C1907.83 134.46 1911.08 134.757 1914.28 135.336C1917.8 135.969 1921.26 136.851 1926.42 137.998C1923.02 141.13 1920.62 143.337 1917.87 145.858C1921.88 148.048 1925.83 150.212 1930.15 152.587C1925.29 156.541 1920.19 160.685 1913.15 166.409C1920.47 167.388 1925.39 168.048 1931.77 168.902C1928.22 172.548 1925.59 175.269 1922.48 178.483C1925.52 178.84 1928.36 179.175 1932.6 179.673C1928.18 183.692 1926.31 189.448 1919.16 185.558C1919.33 193.5 1925.51 192.623 1931.74 193.759C1930.6 191.936 1929.94 190.871 1928.47 188.534C1937.25 186.608 1945.62 184.763 1954 182.924C1953.91 182.286 1953.82 181.642 1953.74 181.004C1949.69 180.825 1945.23 181.609 1941.7 180.203C1938.09 178.764 1935.39 175.172 1930.73 171.18C1939.7 170.79 1946.16 170.504 1952.61 170.228L1952.44 168.973C1946.48 166.527 1940.51 164.088 1934.56 161.643C1934.7 160.837 1934.86 160.031 1935.01 159.225C1942.91 157.953 1950.82 156.688 1958.72 155.411C1958.62 154.697 1958.52 153.988 1958.42 153.274C1953.09 152.874 1947.75 152.468 1940.26 151.906C1944.34 148.665 1946.67 147.113 1948.61 145.192C1951.14 142.704 1953.82 140.686 1950.06 136.294C1948.35 134.287 1950.31 129.294 1950.6 125.653C1952.85 127.249 1955.17 128.758 1957.32 130.473C1958.52 131.447 1959.44 132.767 1961.68 135.26C1962.35 131.349 1962.79 128.763 1963.24 126.183C1962.58 126.491 1961.93 126.8 1961.27 127.103C1958.94 123.641 1956.6 120.179 1954.27 116.711C1954.92 116.143 1955.58 115.57 1956.23 115.002C1958.36 116.089 1960.49 117.176 1963.65 118.788C1962.32 115.689 1961.19 113.081 1960.2 110.809C1961.61 109.327 1962.91 107.937 1964.61 106.141C1965.65 109.938 1966.69 113.79 1967.68 117.436C1968.35 117.192 1970.35 116.473 1972.52 115.683C1971.99 120.909 1971.5 125.734 1970.86 132.009C1974.61 130.186 1976.45 129.288 1979.22 127.936C1978.31 132.377 1977.55 136.121 1976.69 140.297C1973.55 141.6 1969.6 143.234 1965.63 144.873C1965.7 145.403 1965.76 145.923 1965.82 146.447C1969.69 145.923 1973.54 145.3 1977.41 144.911C1980.96 144.543 1984.54 144.435 1988.42 145.366C1982.44 150.38 1977.43 157.564 1967.65 152.414C1967.65 153.393 1967.66 154.378 1967.67 155.357C1974.44 156.374 1981.21 157.391 1989.61 158.657C1986.18 161.697 1983.77 163.844 1981.05 166.257C1985.21 168.259 1989.23 170.195 1993.46 172.229C1988.64 175.973 1983.64 179.862 1978.64 183.746C1979.05 184.79 1979.47 185.839 1979.88 186.894C1991.37 185.266 2002.86 183.638 2014.35 182.015C2014.26 181.404 2014.16 180.792 2014.07 180.176C2009.26 179.786 2004.44 179.397 1997.57 178.84C2001.66 175.935 2004.16 174.572 2006.08 172.662C2007.8 170.969 2011.36 169.443 2007.02 166.041C2005.58 164.905 2006.88 160.474 2006.92 157.548C2009.2 158.473 2011.69 159.095 2013.68 160.42C2015.12 161.378 2015.91 163.26 2018.03 166.16C2019.03 161.865 2019.52 159.695 2019.53 159.652C2016.1 155.973 2013.78 153.49 2011.46 151.007C2012.04 150.234 2012.6 149.466 2013.17 148.692C2015.35 149.363 2017.52 150.039 2019.66 150.699C2021.08 147.6 2011.71 143.499 2021.41 141.53C2022.21 143.678 2023.35 146.707 2024.41 149.547C2025.59 149.428 2027.45 149.233 2029.12 149.055C2028.66 153.393 2028.24 157.223 2027.74 161.924C2030.97 160.842 2032.95 160.182 2035.66 159.273C2034.87 162.909 2035.19 167.036 2033.22 169.016C2030.92 171.342 2026.63 171.791 2023.39 174.214C2030.64 173.554 2037.89 172.895 2045.14 172.235C2045.24 172.933 2045.33 173.63 2045.43 174.328C2041.68 176.54 2037.93 178.758 2032.38 182.037C2041.17 183.265 2048.31 184.26 2056.2 185.364C2054.44 180.755 2053.08 177.174 2051.77 173.733C2056.8 173.106 2061.2 172.548 2064.52 172.137C2059.54 165.846 2054.98 160.371 2050.92 154.567C2050.46 153.912 2052.7 150.061 2053.91 149.958C2057.82 149.633 2060.52 143.715 2065.68 147.854C2066.76 148.719 2070.98 145.885 2074 143.51C2062.64 142.942 2056.61 137.197 2054.19 126.908C2060.66 119.335 2074.68 125.356 2080.51 113.936C2075.86 114.509 2071.87 115.002 2068.29 115.44C2064.62 110.533 2061.02 105.73 2057 100.369C2061.53 100.228 2064.92 96.4794 2070.07 99.8928C2071.66 100.937 2076.84 96.8309 2080.18 93.8773C2069.06 96.8796 2064.69 89.2954 2058.52 81.7058C2065.68 80.1533 2072.08 78.7629 2078.48 77.3727C2078.62 78.0272 2078.76 78.6766 2078.9 79.3257C2080.62 77.1024 2082.34 74.879 2084.44 72.1364C2078.57 71.6441 2072.88 71.1625 2066.46 70.6216C2071.21 62.6533 2075 56.3295 2078.9 49.8056C2069.22 43.8551 2076.29 35.611 2075.82 27.897C2077.73 30.1419 2079.92 32.2192 2081.49 34.6697C2083.15 37.2447 2084.22 40.1766 2087.57 42.7624C2087.77 38.5267 2087.96 34.2913 2088.17 29.6012C2086.02 29.3037 2084.09 29.0384 2082.57 28.8328C2081.77 23.6504 2081.06 18.9333 2080.06 12.4473C2083.37 15.1629 2085.69 17.0726 2088.82 19.653C2087.42 14.7627 2086.17 10.4187 2085.12 6.76724C2086.67 4.44114 2088.08 2.33696 2089.64 3.05176e-05C2089.89 1.61749 2089.89 3.60825 2090.58 5.35013C2091.07 6.57269 2092.47 7.44887 2093.69 8.70389C2092.84 11.9009 2091.84 15.6443 2090.79 19.6041C2093.31 17.6891 2095.43 16.0772 2097.86 14.2434C2097.23 22.7797 2096.68 30.1257 2096 39.4031C2099.7 36.8119 2101.53 35.5353 2104.11 33.7231C2103.45 39.8953 2102.84 45.4563 2102.09 52.3318C2099.28 54.0629 2094.78 56.8272 2090.38 59.532C2094.78 62.9292 2102.34 61.7609 2109.01 56.3784C2110.9 58.0392 2112.77 59.6999 2115.11 61.788C2107.54 65.196 2105.66 79.6502 2091.98 72.0497C2093.83 74.2893 2095.68 76.5236 2096.1 77.0266C2103.16 77.995 2108.3 78.6981 2115.23 79.6448C2111.7 84.6973 2109.12 88.3865 2106.52 92.1137C2110.24 95.0565 2114.32 98.2861 2118.63 101.7C2113.63 107.298 2108.15 113.438 2101.24 121.19C2108.36 122.607 2113.55 123.641 2120.26 124.977C2116.55 130.197 2113.46 134.535 2110.17 139.161C2113.42 139.312 2116.69 139.458 2121.39 139.675C2117.48 145.036 2116.32 151.375 2107.72 150.456C2106.66 162.01 2121.73 157.358 2123.78 166.295C2117.14 176.368 2117.14 176.368 2101.46 174.117C2104.54 176.254 2107.61 178.385 2110.9 180.663C2110.25 181.902 2109.56 183.211 2108.64 184.952C2115.73 186.051 2122.58 187.122 2129.34 188.166C2128.58 203.366 2112.93 200.592 2105.62 208.095C2112.51 214.857 2120.89 213.125 2129.88 212.179C2127.95 215.944 2126.79 219.985 2124.19 222.771C2121.37 225.811 2117.21 227.688 2113.64 230.068C2113.61 230.879 2113.59 231.691 2113.56 232.502C2121.79 234.45 2130.01 236.386 2138.86 238.48C2135.18 244.771 2132.03 250.159 2128.14 256.807C2128.68 257.148 2130.93 258.56 2134 260.486C2130.4 264.413 2126.9 268.216 2123.26 272.165C2128.12 274.237 2137.04 269.98 2137.16 280.939C2132.87 283.65 2127.24 287.209 2121.29 290.974C2121.64 291.109 2123.39 292.456 2124.85 292.202C2131.51 291.05 2135.73 292.813 2136.82 299.851C2136.94 300.646 2138.89 301.177 2140 301.831C2140 302.35 2140 302.881 2140 303.411C2134.74 306.067 2128.61 307.143 2126.24 313.943C2123.07 323.004 2109.51 325.839 2101.96 319.277C2098.03 315.858 2094.63 311.861 2089.57 306.662C2090.31 314.684 2090.94 321.43 2091.59 328.56C2087.77 328.56 2084.4 328.56 2080.43 328.56C2080.83 324.091 2081.2 320.061 2081.63 315.42C2070.03 325.79 2065.76 323.54 2061.2 318.85C2046.12 322.052 2034.1 316.129 2021.32 308.182C2022 312.829 2022.52 316.302 2023.08 320.164C2019.54 320.164 2016.37 320.164 2012.73 320.164C2012.73 317.941 2012.73 315.793 2012.73 313.597C1996.75 318.514 1981.14 318.768 1965.03 310.265C1965.62 314.289 1966.01 316.983 1966.5 320.326C1962.72 320.326 1959.2 320.326 1955.37 320.326C1955.69 317.605 1955.99 315.079 1956.42 311.482C1949.62 316.788 1943.28 315.155 1936.19 315.003C1927.31 314.819 1916.49 310.952 1907.8 319.91C1901.45 326.455 1892.07 324.378 1883.75 321.576C1880.99 320.651 1878.13 319.969 1875.32 319.174C1875.07 319.986 1874.8 320.797 1874.54 321.614C1876.91 323.069 1879.28 324.535 1881.58 325.963C1880.11 330.783 1866.29 339.395 1860.88 339.828C1851.44 340.591 1843.36 337.864 1834.81 330.204C1835.57 335.749 1836.03 339.135 1836.56 342.992C1832.99 342.992 1829.87 342.992 1826.18 342.992C1826.29 340.866 1826.38 338.968 1826.48 336.923C1808.57 342.976 1791.51 336.176 1773.75 335.933C1774.11 331.584 1774.43 327.781 1774.78 323.545C1764.56 331.632 1760.2 332.092 1754.24 326.071C1746.56 329.252 1739.59 327.83 1732.9 323.318C1731.5 322.377 1729.39 322.425 1727.6 322.041C1719.71 320.343 1711.82 318.639 1703.4 316.827C1703.56 318.39 1703.9 321.754 1704.27 325.465C1701.07 325.465 1697.9 325.465 1694.19 325.465C1694.01 323.475 1693.82 321.517 1693.79 321.03C1685.56 321.03 1677.76 321.419 1670.01 320.921C1662.59 320.445 1655.23 319.055 1647.84 318.071C1647.86 317.189 1647.86 316.312 1647.87 315.436C1650.06 314.717 1652.26 313.997 1654.58 313.24C1650.94 307.722 1645.72 307.062 1638.44 310.795C1625.95 317.2 1617.42 315.458 1608.1 304.59C1607.6 304.011 1607.14 303.411 1604.66 303.048C1605.26 308.187 1605.88 313.332 1606.56 319.044C1602.89 319.044 1599.3 319.044 1595.51 319.044C1595.82 315.588 1596.09 312.526 1596.47 308.306C1589.89 313.84 1583.85 317.989 1576.45 311.557C1575.83 311.022 1573.91 311.541 1572.77 311.985C1559.7 317.037 1547.52 316.307 1535.17 305.234C1535.71 310.362 1536.06 313.721 1536.52 318.092C1533.44 318.265 1530.4 318.428 1526.71 318.633C1526.5 316.139 1526.32 314.013 1526.15 311.898C1525.55 311.828 1525.04 311.677 1524.57 311.736C1519.24 312.38 1513.91 313.435 1508.56 313.608C1503.65 313.77 1498.69 312.753 1493.78 312.915C1493.23 312.937 1492.83 317.265 1492.84 319.542C1490.34 325.39 1480.06 324.07 1479.98 333.758C1479.97 335.451 1472.89 338.021 1468.87 338.513C1464.72 339.022 1460.17 337.94 1456.05 336.744C1448.22 334.472 1445.68 336.944 1447.17 346C1443.39 346 1439.6 346 1435.81 346C1435.81 341.862 1435.81 337.723 1435.81 333.336C1432.93 335.727 1430.42 339.352 1427.25 340.017C1423.86 340.737 1419.84 338.67 1416.17 338.313C1402.54 336.436 1388.92 334.564 1375.29 332.698C1375.32 331.741 1375.34 330.788 1375.37 329.836C1377.97 329.122 1380.57 328.397 1383.77 327.516Z" fill="url(#paint2_linear_105_35)"/>
<defs>
<linearGradient id="paint0_linear_105_35" x1="1756" y1="346" x2="1756" y2="-93" gradientUnits="userSpaceOnUse">
<stop stop-color="#1C1C46"/>
<stop offset="1" stop-color="#283762"/>
</linearGradient>
<linearGradient id="paint1_linear_105_35" x1="1756" y1="346" x2="1756" y2="-93" gradientUnits="userSpaceOnUse">
<stop stop-color="#1C1C46"/>
<stop offset="1" stop-color="#283762"/>
</linearGradient>
<linearGradient id="paint2_linear_105_35" x1="1756" y1="346" x2="1756" y2="-93" gradientUnits="userSpaceOnUse">
<stop stop-color="#1C1C46"/>
<stop offset="1" stop-color="#283762"/>
</linearGradient>
</defs>
</svg>
