<svg width="1920" height="300" viewBox="0 0 1920 300" fill="none" xmlns="http://www.w3.org/2000/svg">
<path d="M597.67 124.085C596.984 122.852 595.798 120.731 595.256 119.764C601.594 117.627 606.072 118.77 610.123 125.297C606.077 124.899 602.073 124.511 597.67 124.085ZM504.56 245.486C508.973 245.896 512.855 246.395 516.748 246.581C520.635 246.762 524.533 246.618 530.004 246.618C520.151 252.588 510.994 251.966 504.56 245.486ZM448.157 166.462C451.214 170.13 453.224 172.544 456.021 175.903C447.226 174.043 439.463 172.395 431.704 170.752C431.699 169.801 431.699 168.854 431.694 167.903C441.398 172.453 446.577 165.389 452.565 160.557C454.788 162.321 456.691 163.826 460.02 166.462C455.495 166.462 452.714 166.462 448.157 166.462ZM407.616 174.277C403.819 173.479 400.012 172.687 394.615 171.56C398.613 168.945 400.804 167.515 403.256 165.91C405.048 168.147 406.616 170.109 408.19 172.071C407.999 172.804 407.813 173.538 407.616 174.277ZM334.011 251.03C338.472 252.099 342.928 253.167 348.464 254.496C341.349 260.471 337.76 255.331 334.011 251.03ZM287.222 198.065C287.849 199.207 288.498 200.403 289.742 202.684C282.016 202.684 275.326 202.684 268.626 202.684C268.174 202.046 267.717 201.408 267.26 200.77C271.248 199.941 275.241 199.106 279.586 198.203C276.039 194.588 272.886 191.377 269.727 188.167C270.078 187.385 270.424 186.604 270.775 185.822C279.027 187.587 285.217 200.994 295.916 189.017C295.953 190.266 295.996 191.51 296.038 192.754C293.103 194.524 290.173 196.289 287.222 198.065ZM269.732 222.889C277.081 221.815 284.324 220.757 291.571 219.699C291.731 220.593 291.885 221.486 292.045 222.379C285.525 227.375 276.608 227.577 269.732 222.889ZM170.13 209.137C169.513 208.202 168.896 207.266 168.279 206.33C172.788 203.566 177.292 200.797 181.796 198.033C182.131 198.713 182.461 199.388 182.791 200.069C178.574 203.088 174.352 206.113 170.13 209.137ZM91.5525 201.041C97.2316 199.76 101.496 198.798 107.282 197.496C109.233 198.452 113.003 200.302 116.742 202.131C114.46 205.698 104.277 205.804 91.5525 201.041ZM106.872 185.785C107.798 186.949 109.185 188.687 110.988 190.952C104.198 190.952 98.1888 190.952 92.1747 190.952C92.1534 190.367 92.1268 189.793 92.1056 189.214C96.8169 188.119 101.528 187.024 106.872 185.785ZM689.748 321.831C691.923 319.444 694.215 317.589 695.597 315.207C696.741 313.23 696.805 310.625 697.342 308.302C695.427 308.026 693.513 307.59 691.588 307.516C688.286 307.388 684.973 307.484 681.666 307.484C681.437 306.516 681.203 305.549 680.969 304.586C687.026 301.705 693.088 298.819 701 295.056C693.369 293.184 687.669 291.792 681.431 290.266C685.919 284.578 697.267 288.576 698.591 278.641C693.757 277.567 689.137 276.536 684.005 275.398C687.93 272.65 691.226 270.343 695.56 267.307C691.301 266.669 688.116 266.186 684.271 265.612C685.813 262.699 687.206 260.078 689.307 256.123C684.909 256.75 682.048 257.165 679.124 257.585C679.757 254.619 680.294 252.115 680.512 251.089C682.655 245.322 684.271 240.963 685.904 236.561C683.021 236.2 680.336 236.332 678.087 235.402C676.944 234.924 675.721 232.335 676.029 231.065C677.284 225.839 679.118 220.752 680.464 216.473C677.13 214.293 673.934 212.215 671.27 210.477C672.498 206.012 673.737 201.52 675.226 196.124C671.014 197.352 668.212 198.171 664.4 199.282C665.713 194.636 666.723 191.064 667.824 187.151C664.415 186.614 661.267 186.12 657.635 185.546C661.842 179.045 665.591 173.24 669.935 166.521C664.921 164.809 662.751 157.835 655.221 161.386C653.291 162.295 649.622 159.525 646.474 157.027C657.487 156.841 663.655 151.759 665.054 139.528C661.342 138.613 656.173 137.725 651.302 135.998C647.389 134.61 643.831 132.208 640.12 130.257C640.348 129.598 640.582 128.939 640.811 128.279C644.469 128.721 648.133 129.167 652.063 129.64C655.237 125.297 658.758 120.486 662.698 115.112C658.476 114.32 655.2 110.493 650.202 114.538C649.106 115.426 644.156 111.561 639.327 109.015C645.235 108.106 649.351 108.473 652.228 106.761C655.477 104.832 657.614 101.031 661.533 96.5604C654.413 94.9285 648.394 93.5571 642.374 92.1804C642.209 92.8767 642.039 93.5729 641.874 94.2693C640.279 92.0526 638.684 89.8361 636.754 87.1517C642.151 86.5776 647.671 85.9873 653.578 85.3548C649.016 77.4131 645.379 71.0767 641.741 64.7563C651.855 58.9674 644.039 50.6323 646.118 43.9026C645.4 43.5677 644.687 43.2276 643.969 42.8927C641.029 47.9267 638.088 52.9553 634.01 59.9295C633.648 53.6357 633.393 49.2928 633.148 44.9339C635.398 44.6787 637.179 44.482 638.195 44.3704C638.875 41.7019 639.652 39.6181 639.896 37.4705C640.167 35.0731 639.955 32.6226 639.955 30.1933C638.774 29.1887 637.594 28.184 636.408 27.1793C635.132 29.7468 633.856 32.3143 631.537 36.9709C633.568 30.5229 635.009 25.9566 636.11 22.4642C634.318 19.801 632.867 17.6429 631.42 15.4953C630.288 20.12 629.07 25.1169 627.661 30.8739C626.831 30.9802 624.959 31.2139 623.821 31.3574C624.327 38.6347 624.826 45.7527 625.443 54.5821C621.859 52.089 619.865 50.7016 617.515 49.059C618.259 55.1934 618.966 61.0035 619.764 67.5844C622.593 69.3546 626.608 71.8689 630.617 74.3833C624.199 77.5833 618.733 73.8622 612.782 71.8741C611.261 73.1765 609.421 74.75 607.007 76.8231C614.181 80.7249 616.691 93.0999 629.011 85.9502C625.528 97.7086 614.335 89.1077 608.411 96.1404C610.528 99.2714 612.974 102.891 614.877 105.709C613.33 107.995 611.798 110.27 609.709 113.358C604.03 114.9 599.946 111.78 599.329 104.827C599.084 102.041 600.956 99.1279 601.435 96.2043C601.807 93.9185 601.504 91.5264 599.956 88.1668C596.776 91.7496 593.591 95.3272 589.608 99.803C589.231 96.0289 588.944 93.1319 588.582 89.5012C597.287 90.0487 594.703 83.2498 596.309 77.445C593.331 79.0504 591.182 80.1986 589.518 81.097C589.518 77.3866 589.518 72.9958 589.518 68.605C588.529 68.5306 587.545 68.4561 586.561 68.387C585.902 72.7724 585.243 77.1633 584.626 81.2883C583.711 80.8471 581.733 79.9115 579.335 78.774C579.962 84.717 580.489 89.7722 581.143 96.0182C577.883 94.6467 575.932 93.828 573.342 92.7436C574.023 97.0759 574.64 101.004 575.395 105.82C578.096 107.16 582.079 109.127 586.588 111.359C579.011 115.734 570.705 105.018 563.271 112.625C570.008 115.958 574.102 124.633 583.616 119.546C583.61 120.556 583.61 121.566 583.605 122.57C580.622 122.82 577.601 122.836 574.672 123.368C571.274 123.979 567.955 125.037 563.467 126.196C566.435 129.332 568.785 131.82 571.343 134.525C567.434 136.689 563.552 138.836 559.426 141.127C564.238 145.242 569.295 149.564 574.741 154.226C565.658 158.669 561.808 157.872 558.852 151.727C554.433 152.27 554.8 152.19 553.704 147.193C553.444 146.018 549.849 145.571 547.297 144.604C547.642 143.876 548.584 141.92 549.536 139.937C548.233 138.927 546.802 137.816 545.861 137.082C543.404 140.07 540.916 143.084 537.959 146.677C538.156 148.974 538.47 152.684 538.853 157.208C536.029 156.283 534.046 155.629 531.536 154.805C532.121 158.292 532.583 161.067 533.11 164.193C535.96 165.314 539.698 166.787 543.442 168.259L543.271 169.418C539.789 169.078 536.311 168.7 532.828 168.397C529.483 168.11 526.133 167.898 522.783 167.653C522.581 168.605 522.374 169.551 522.161 170.497C528.042 172.714 533.923 174.93 542.022 177.982C537.193 177.982 534.263 177.812 531.36 178.03C528.499 178.242 525.665 178.843 521.406 179.491C524.474 182.08 526.372 183.691 528.856 185.79C525.171 187.582 521.714 189.262 518.034 191.053C522.554 194.03 527.037 196.985 531.52 199.941C531.27 200.499 531.02 201.062 530.77 201.626C524.293 201.626 517.811 201.626 510.978 201.626C512.26 198.91 513.398 196.502 514.876 193.365C511.941 193.099 509.197 192.844 506.506 192.595C506.134 193.132 505.762 193.668 505.395 194.2C504.342 193.536 503.294 192.871 502.241 192.207C503.656 192.339 505.076 192.467 506.506 192.595C509.808 187.832 513.243 182.888 517.933 176.132C508.968 174.112 501.513 172.437 494.063 170.758C494.052 170.072 494.042 169.386 494.031 168.7C503.209 169.375 509.627 165.931 512.68 156.347C504.613 154.024 496.344 151.642 488.076 149.261C488.139 148.299 488.203 147.342 488.267 146.385C499.327 151.196 503.624 142.855 509.218 136.917C503.363 131.192 493.579 140.984 489.607 132.824C495.674 130.055 501.848 127.232 508.016 124.42C507.761 123.405 507.511 122.395 507.256 121.385C501.173 120.386 495.084 119.386 488.325 118.28C487.283 114.522 487.294 114.873 492.5 114.746C495.068 114.682 497.599 113.045 499.577 112.327C496.514 107.266 493.68 102.652 490.942 97.9851C490.564 97.3472 490.325 95.8801 490.58 95.7259C497.87 91.3511 491.5 85.4027 492.989 80.4006C492.383 80.0604 491.771 79.7254 491.165 79.3852C488.102 83.4677 485.034 87.5501 481.019 92.8978C480.642 88.1508 480.386 84.9614 480.131 81.7773C480.881 82.0696 481.625 82.362 482.375 82.6543C484.412 78.4974 486.454 74.3353 488.496 70.1784C487.974 69.7 487.453 69.2163 486.932 68.7379C484.741 70.0243 482.561 71.3053 480.365 72.597C478.403 68.3284 487.996 62.88 479.137 59.5789C477.164 63.183 474.787 67.5099 472.415 71.8422L471.102 70.7471C471.554 76.1639 472.001 81.586 472.548 88.2094C469.305 86.6731 467.364 85.7536 464.875 84.5735C465.476 89.464 466.04 94.0247 466.651 98.9896C469.725 100.478 473.761 102.429 477.797 104.385C477.786 104.97 477.775 105.549 477.765 106.134C471.873 105.177 465.976 104.22 458.786 103.051C458.473 103.274 456.734 104.507 454.384 106.166C461.536 109.903 465.519 119.732 475.872 113.193C475.967 114.156 476.063 115.107 476.159 116.064C472.995 116.728 469.836 117.388 466.678 118.052C463.163 118.796 459.653 119.551 454.761 120.588C457.829 124.165 460.201 126.924 462.807 129.959C458.962 132.213 455.016 134.531 450.741 137.035C455.474 141.356 460.626 146.055 465.779 150.76C465.625 151.461 465.471 152.152 465.322 152.849C454.102 151.786 444.839 164.373 432.805 156.836C438.798 154.518 444.791 152.2 450.784 149.883C450.645 149.096 450.507 148.309 450.374 147.522C442.76 146.103 435.155 144.684 427.546 143.264C427.7 142.557 427.854 141.85 428.009 141.149C432.965 140.872 437.921 140.601 443.461 140.293C441.999 134.185 433.188 134.945 434.863 128.157C435.097 127.19 435.368 126.185 435.347 125.202C435.256 121.422 435.06 117.648 434.9 113.868C427.849 114.411 429.375 110.206 430.513 106.097C430.678 105.485 430.157 104.688 429.753 103.295C427.488 104.513 425.435 105.618 424.217 106.272C424.217 102.849 424.217 98.7398 424.217 94.636C423.319 94.5669 422.425 94.5086 421.527 94.4395C420.782 98.3891 420.043 102.328 419.368 105.916C418.549 105.64 416.47 104.943 414.358 104.236C414.816 109.472 415.22 114.001 415.704 119.546C412.593 118.265 410.785 117.52 408.243 116.479C408.86 120.55 409.392 124.085 410.035 128.322C413.066 129.656 416.969 131.378 420.872 133.095L420.633 134.339C413.401 133.611 406.17 132.883 398.932 132.155C398.698 133.282 398.464 134.403 398.225 135.525C404.287 138.22 410.339 140.915 416.587 143.695C411.716 144.46 405.611 145.412 397.789 146.635C401.123 149.723 403.271 151.717 406.015 154.252C402.846 155.794 399.815 157.75 396.492 158.728C393.961 159.472 393.801 158.925 394.019 154.975C394.168 152.275 386.048 145.864 383.533 146.507C382.788 146.698 381.805 145.965 380.922 145.656C383.432 140.761 380.071 139.336 376.631 137.114C374.876 135.982 374.599 132.553 373.616 130.081C370.388 134.206 367.899 137.38 364.693 141.478C364.852 143.403 365.15 147.14 365.506 151.504C362.885 150.632 360.811 149.936 358.445 149.149C358.902 155.741 359.7 161.599 367.144 163.523C361.141 163.108 355.143 162.699 349.139 162.284C349.001 162.943 348.857 163.602 348.714 164.262C352 166.531 355.286 168.791 359.524 171.714C355.797 172.878 353.021 173.756 349.378 174.899C350.915 176.738 352.239 178.322 354.191 180.661C351.229 182.41 348.315 184.121 344.88 186.147C349.192 188.959 353.733 191.925 358.971 195.343C351.707 197.671 345.917 199.526 339.679 201.525C341.434 197.719 342.694 194.981 344.13 191.872C339.243 191.245 334.979 190.692 331.395 190.234C336.489 184.664 341.109 179.608 346.56 173.644C341.088 171.247 338.398 165.702 331.49 168.557C329.342 169.444 325.806 166.978 322.812 164.836C332.282 163.672 339.663 160.759 341.173 149.218C333.601 146.815 325.067 144.099 316.532 141.393C316.734 140.527 316.936 139.666 317.138 138.805C320.674 139.049 324.216 139.288 328.087 139.549C331.283 135.668 334.851 131.341 338.414 127.014C338.259 126.35 338.1 125.685 337.935 125.021C334.069 125.425 330.129 126.477 326.359 126.036C323.195 125.664 320.233 123.548 318.085 122.608C324.54 119.248 330.623 116.085 336.701 112.922C336.531 111.795 336.366 110.663 336.196 109.536C330.022 108.324 323.849 107.117 316.319 105.64C316.5 104.678 316.984 102.105 317.112 101.414C321.764 100.744 325.045 100.271 329.049 99.6966C324.742 92.7755 321.132 86.9656 317.494 81.1183C327.183 75.9141 319.754 68.1637 321.897 62.0613C321.227 61.7477 320.552 61.4286 319.882 61.1149C316.819 65.8513 313.756 70.5823 309.965 76.4296C309.311 71.369 308.832 67.6429 308.311 63.6082C310.778 63.1564 312.762 62.795 314.059 62.5558C314.82 57.9098 315.49 53.8271 316.442 48.001C313.107 50.6642 310.784 52.5194 307.652 55.0125C309.103 50.4569 310.326 46.6191 311.411 43.2117C309.832 40.8887 308.354 38.704 306.498 35.9771C305.854 42.1539 305.253 47.9267 304.722 53.0032C303.887 52.5673 301.669 51.4032 299.393 50.2125C300.01 57.596 300.547 64.0919 301.217 72.1293C297.681 69.8063 295.831 68.589 293.236 66.8774C294.039 72.7141 294.757 77.9289 295.56 83.6964C298.495 85.44 302.456 87.7895 307.003 90.4792C299.181 95.8375 290.524 82.1708 283.308 92.4249C290.141 96.0183 293.64 107.266 304.924 99.9572C301.473 111.684 290.37 103.115 284.201 109.717C286.387 112.534 288.769 115.612 291.476 119.11C287.823 121.826 283.946 124.707 279.82 127.775C284.361 132.511 289.636 138.002 296.453 145.104C289.519 146.374 284.653 147.267 278.575 148.378C281.872 152.96 284.728 156.931 287.987 161.466C284.478 161.466 281.388 161.466 278.299 161.466C277.911 162.236 277.528 163.002 277.145 163.767C281.006 166.207 284.887 168.615 288.716 171.114C289.476 171.608 290.683 172.639 290.545 173.059C290.109 174.388 289.429 176.068 288.328 176.674C283.765 179.199 279.012 181.373 273.97 183.856C273.481 181.224 273.082 179.039 272.38 175.233C268.541 178.301 265.303 180.889 261.341 184.058C260.794 181.634 260.336 179.614 260.198 179.008C262.889 176.222 264.771 174.51 266.308 172.522C266.739 171.964 266.154 170.619 266.037 169.636C264.106 169.902 262.176 170.173 259.852 170.492C260.884 168.445 261.889 166.447 262.83 164.575C261.543 163.608 260.283 162.656 259.108 161.763C256.821 164.48 254.184 167.621 251.355 170.986C251.621 173.633 251.977 177.184 252.408 181.426C249.653 180.852 247.835 180.48 245.022 179.89C245.729 182.585 246.208 184.398 246.995 187.396C242.257 187.167 237.625 187.029 233.031 186.566C232.627 186.524 232.446 184.307 232.286 183.627C236.019 183.281 239.444 182.968 244.963 182.463C241.007 179.699 238.694 178.577 237.099 176.812C235.732 175.303 234.232 172.894 234.498 171.151C235.025 167.754 236.748 164.543 238.433 160.036C229.787 162.183 225.294 162.662 224.852 162.911C227.102 159.77 228.899 157.25 230.691 154.741C228.596 154.311 226.501 153.875 224.161 153.396C224.714 152.36 225.639 150.627 226.198 149.574C225.14 148.171 224.225 146.847 223.14 145.688C223.028 145.566 221.949 146.582 221.242 146.746C216.068 148.006 210.708 151.35 206.496 146.177C212.207 143.748 218.142 141.234 224.071 138.714C223.959 137.827 223.842 136.944 223.725 136.057C217.812 135.126 211.894 134.196 205.98 133.266C205.869 133.776 205.752 134.286 205.635 134.797C204.045 133.048 202.46 131.299 200.716 129.38C206.113 129.098 211.218 128.827 216.339 128.556C212.978 123.469 210.261 119.429 207.656 115.32C207.299 114.762 207.273 113.805 207.459 113.13C208.097 110.796 209.389 108.521 209.485 106.187C209.575 104.141 208.395 102.041 207.772 99.9624C206.097 101.259 204.22 102.365 202.795 103.896C201.306 105.507 200.248 107.522 197.802 111.131C197.153 106.373 196.792 103.705 196.728 103.232C200.004 99.0961 202.205 96.6083 203.965 93.8441C204.305 93.3125 202.726 90.6653 202.349 90.7344C200.477 91.0746 198.717 91.9995 196.122 93.0361C197.238 90.0806 198.35 87.1514 199.248 84.7806C197.802 83.1115 196.467 81.57 194.947 79.8158C194.069 84.1109 193.208 88.3104 192.415 92.1749C191.41 91.7497 189.486 90.931 187.374 90.038C187.959 95.6142 188.47 100.515 189.108 106.644C185.694 105.177 183.721 104.327 181.275 103.274C182.009 107.532 182.695 111.492 183.471 115.984C186.534 117.345 190.374 119.051 194.218 120.763C194.245 121.247 194.271 121.736 194.303 122.219C186.821 121.459 179.34 120.694 171.858 119.928C171.73 120.805 171.597 121.683 171.47 122.56C177.84 125.792 182.206 134.324 191.873 128.827C191.91 129.784 191.942 130.751 191.979 131.708C188.895 132.123 185.779 132.42 182.722 132.984C179.361 133.606 176.053 134.478 171.119 135.605C174.373 138.677 176.665 140.846 179.287 143.323C175.463 145.481 171.688 147.602 167.551 149.936C172.204 153.822 177.08 157.899 183.806 163.523C176.803 164.485 172.102 165.133 166.009 165.973C169.396 169.556 171.911 172.225 174.889 175.388C171.98 175.733 169.274 176.063 165.216 176.552C169.433 180.501 171.22 186.162 178.058 182.335C177.893 190.144 171.986 189.283 166.035 190.399C167.125 188.603 167.763 187.561 169.157 185.264C160.766 183.367 152.768 181.559 144.765 179.752C144.845 179.119 144.93 178.492 145.01 177.859C148.881 177.684 153.145 178.46 156.517 177.073C159.968 175.659 162.547 172.129 166.998 168.211C158.426 167.823 152.263 167.547 146.089 167.27L146.259 166.042C151.954 163.64 157.649 161.237 163.344 158.834C163.206 158.042 163.063 157.25 162.914 156.463C155.363 155.214 147.807 153.965 140.251 152.71C140.346 152.014 140.442 151.313 140.538 150.611C145.632 150.218 150.731 149.819 157.889 149.266C154.002 146.087 151.768 144.556 149.907 142.669C147.498 140.224 144.93 138.241 148.525 133.925C150.168 131.953 148.291 127.051 148.014 123.474C145.866 125.042 143.643 126.52 141.596 128.21C140.437 129.162 139.57 130.459 137.422 132.915C136.778 129.066 136.358 126.53 135.933 123.995C136.56 124.293 137.188 124.596 137.81 124.893C140.043 121.491 142.276 118.089 144.505 114.687C143.882 114.129 143.255 113.565 142.627 113.007C140.596 114.076 138.554 115.144 135.534 116.728C136.81 113.682 137.889 111.115 138.831 108.882C137.491 107.426 136.241 106.065 134.619 104.295C133.636 108.032 132.636 111.811 131.684 115.394C131.046 115.155 129.142 114.453 127.063 113.677C127.568 118.807 128.036 123.554 128.642 129.715C125.064 127.923 123.309 127.046 120.655 125.712C121.527 130.081 122.256 133.755 123.08 137.864C126.074 139.14 129.86 140.75 133.646 142.361C133.582 142.877 133.524 143.392 133.46 143.908C129.77 143.392 126.09 142.781 122.389 142.393C118.996 142.042 115.577 141.925 111.86 142.839C117.582 147.772 122.368 154.826 131.716 149.766C131.711 150.733 131.705 151.695 131.7 152.663C125.228 153.662 118.757 154.661 110.728 155.9C114.008 158.893 116.311 160.998 118.911 163.374C114.934 165.335 111.089 167.239 107.048 169.237C111.658 172.921 116.433 176.738 121.208 180.555C120.815 181.586 120.421 182.617 120.023 183.648C109.042 182.048 98.0612 180.453 87.0805 178.853C87.1709 178.253 87.2613 177.652 87.3517 177.051C91.9567 176.669 96.5563 176.281 103.118 175.738C99.2097 172.879 96.8275 171.539 94.9824 169.662C93.3446 167.999 89.9466 166.5 94.089 163.156C95.4662 162.045 94.2219 157.686 94.1794 154.81C92.0045 155.719 89.6276 156.336 87.7186 157.633C86.3467 158.574 85.5916 160.429 83.5656 163.273C82.6191 159.052 82.1405 156.926 82.1299 156.883C85.4108 153.263 87.6282 150.824 89.8403 148.384C89.2979 147.624 88.7502 146.869 88.2078 146.108C86.1287 146.773 84.0495 147.432 82.0076 148.086C80.6569 145.04 89.601 141.011 80.3379 139.07C79.5668 141.186 78.482 144.158 77.4664 146.954C76.3391 146.832 74.5577 146.64 72.9678 146.47C73.4144 150.733 73.8079 154.497 74.2865 159.116C71.2023 158.053 69.3093 157.405 66.7143 156.511C67.4694 160.084 67.1663 164.139 69.0434 166.085C71.2502 168.365 75.3554 168.807 78.4448 171.188C71.5108 170.54 64.5873 169.891 57.6533 169.243C57.5629 169.934 57.4725 170.619 57.3821 171.3C60.9661 173.479 64.5501 175.653 69.8517 178.875C61.45 180.081 54.6276 181.065 47.082 182.149C48.7623 177.615 50.0652 174.096 51.3201 170.72C46.5131 170.098 42.3069 169.556 39.1376 169.147C43.9021 162.965 48.2572 157.59 52.1337 151.887C52.575 151.238 50.4267 147.459 49.2781 147.358C45.5399 147.033 42.961 141.218 38.0263 145.285C36.9894 146.14 32.9586 143.355 30.0712 141.021C40.9296 140.458 46.6939 134.818 49.007 124.702C42.8227 117.26 29.4225 123.176 23.8604 111.955C28.2952 112.518 32.1132 113.002 35.5323 113.433C39.0419 108.617 42.4771 103.896 46.3216 98.6283C41.9878 98.4848 38.7495 94.8009 33.8254 98.1551C32.3153 99.1864 27.3593 95.1517 24.1635 92.2439C34.8038 95.1995 38.9728 87.7415 44.8699 80.2835C38.0263 78.7579 31.9111 77.3918 25.8013 76.0309C25.663 76.6688 25.5248 77.3068 25.3865 77.9446C23.7487 75.7599 22.1109 73.5752 20.0955 70.8855C25.7108 70.3964 31.1401 69.9286 37.2818 69.3917C32.7353 61.567 29.1194 55.3475 25.3972 48.9367C34.639 43.0947 27.8804 34.9935 28.343 27.4132C26.5085 29.6139 24.4187 31.6552 22.9138 34.0685C21.3345 36.5988 20.3136 39.4799 17.1018 42.0208C16.9157 37.8533 16.7349 33.6963 16.5275 29.0876C18.5907 28.7952 20.4306 28.5349 21.8823 28.3276C22.6427 23.2351 23.3339 18.5997 24.2857 12.2314C21.1218 14.8999 18.9045 16.7711 15.9054 19.3067C17.2454 14.5013 18.4418 10.2328 19.4415 6.64468C17.9632 4.35892 16.6232 2.2964 15.1343 0C14.8897 1.58409 14.8844 3.54569 14.225 5.25735C13.7624 6.45871 12.417 7.31451 11.2578 8.54776C12.0714 11.6947 13.0233 15.3731 14.0283 19.2589C11.6194 17.3825 9.5881 15.7984 7.27497 13.9964C7.88117 22.3793 8.39702 29.6033 9.0564 38.7198C5.51492 36.1735 3.77072 34.9138 1.29275 33.1331C1.93086 39.2036 2.51047 44.6627 3.22301 51.4243C5.91369 53.1254 10.2156 55.8364 14.4218 58.4996C10.2103 61.8326 2.98376 60.6844 -3.39196 55.4005C-5.18397 57.0271 -6.97596 58.6645 -9.21995 60.7111C-1.98279 64.0653 -0.185492 78.2689 12.8903 70.8003C11.1249 72.9957 9.35414 75.1966 8.95001 75.6909C2.20738 76.6371 -2.71134 77.3334 -9.33167 78.2636C-5.96035 83.2232 -3.493 86.8539 -1.00439 90.5111C-4.56182 93.4029 -8.45958 96.5762 -12.5807 99.9305C-7.80553 105.432 -2.56776 111.471 4.03661 119.083C-2.76983 120.481 -7.72579 121.496 -14.1334 122.809C-10.5866 127.934 -7.6407 132.202 -4.49273 136.747C-7.60348 136.891 -10.7248 137.04 -15.2181 137.247C-11.4852 142.515 -10.3739 148.75 -2.15832 147.841C-1.13736 159.196 -15.5372 154.624 -17.4941 163.406C-11.1556 173.309 -11.1556 173.309 3.8239 171.092C0.888621 173.192 -2.05195 175.286 -5.19461 177.53C-4.57246 178.742 -3.90779 180.028 -3.02508 181.745C-9.80493 182.824 -16.3561 183.871 -22.8169 184.903C-22.0884 199.845 -7.13552 197.108 -0.148281 204.486C-6.7367 211.131 -14.7343 209.43 -23.3327 208.499C-21.4875 212.194 -20.3762 216.165 -17.8982 218.908C-15.1969 221.895 -11.2247 223.734 -7.80554 226.078C-7.78427 226.876 -7.76299 227.668 -7.73641 228.47C-15.5957 230.379 -23.455 232.287 -31.9152 234.339C-28.395 240.521 -25.3853 245.816 -21.663 252.354C-22.1894 252.689 -24.3324 254.071 -27.2677 255.964C-23.8219 259.823 -20.4772 263.56 -17.0101 267.446C-21.6524 269.476 -30.171 265.298 -30.2933 276.068C-26.1935 278.731 -20.8122 282.229 -15.1225 285.923C-15.4628 286.056 -17.1324 287.38 -18.5256 287.135C-24.8854 286.003 -28.9267 287.73 -29.9636 294.651C-30.0806 295.428 -31.9471 295.954 -33 296.592C-33 297.107 -33 297.623 -33 298.144C-27.9803 300.754 -22.1203 301.817 -19.8498 308.494C-16.8241 317.397 -3.85994 320.183 3.35063 313.74C7.11013 310.386 10.3538 306.447 15.1875 301.344C14.4802 309.222 13.89 315.851 13.2572 322.857C16.9157 322.857 20.1434 322.857 23.9295 322.857C23.536 318.466 23.1904 314.511 22.7862 309.95C33.8626 320.141 37.9465 317.924 42.3069 313.32C56.7227 316.462 68.2086 310.647 80.423 302.838C79.7689 307.399 79.2797 310.817 78.7373 314.607C82.1245 314.607 85.1555 314.607 88.6332 314.607C88.6332 312.422 88.6332 310.312 88.6332 308.159C103.905 312.991 118.826 313.235 134.22 304.879C133.657 308.845 133.285 311.487 132.817 314.766C136.422 314.766 139.788 314.766 143.452 314.766C143.149 312.098 142.861 309.615 142.457 306.075C148.945 311.29 155.001 309.69 161.792 309.541C170.273 309.36 180.616 305.554 188.917 314.368C194.984 320.8 203.944 318.753 211.904 316C214.542 315.085 217.27 314.415 219.955 313.639C220.205 314.431 220.449 315.234 220.699 316.031C218.439 317.472 216.18 318.907 213.967 320.311C215.382 325.042 228.591 333.504 233.765 333.935C242.772 334.679 250.504 332.005 258.677 324.473C257.954 329.921 257.507 333.249 257.007 337.039C260.411 337.039 263.405 337.039 266.919 337.039C266.818 334.955 266.728 333.084 266.638 331.075C283.755 337.023 300.064 330.341 317.032 330.108C316.686 325.828 316.383 322.097 316.043 317.935C325.816 325.882 329.98 326.333 335.686 320.417C343.019 323.537 349.681 322.139 356.078 317.706C357.413 316.786 359.429 316.829 361.141 316.451C368.676 314.782 376.216 313.113 384.267 311.327C384.118 312.863 383.793 316.17 383.432 319.816C386.495 319.816 389.52 319.816 393.067 319.816C393.243 317.86 393.418 315.936 393.455 315.463C401.32 315.463 408.775 315.84 416.177 315.351C423.271 314.883 430.306 313.517 437.362 312.549C437.357 311.688 437.352 310.827 437.341 309.961C435.246 309.259 433.145 308.552 430.933 307.803C434.406 302.386 439.399 301.737 446.349 305.4C458.292 311.699 466.444 309.982 475.351 299.308C475.824 298.739 476.265 298.144 478.637 297.793C478.057 302.843 477.478 307.893 476.829 313.506C480.323 313.506 483.758 313.506 487.379 313.506C487.081 310.115 486.826 307.101 486.464 302.955C492.76 308.398 498.524 312.47 505.602 306.155C506.192 305.623 508.022 306.139 509.117 306.569C521.608 311.539 533.248 310.822 545.047 299.935C544.537 304.975 544.197 308.276 543.761 312.576C546.701 312.741 549.61 312.906 553.13 313.102C553.332 310.652 553.502 308.563 553.673 306.484C554.247 306.415 554.725 306.266 555.177 306.325C560.277 306.957 565.366 307.994 570.481 308.169C575.177 308.324 579.909 307.324 584.605 307.494C585.131 307.51 585.514 311.763 585.509 313.995C587.891 319.742 597.728 318.445 597.792 327.965C597.803 329.634 604.567 332.154 608.422 332.643C612.378 333.143 616.728 332.08 620.668 330.899C628.145 328.667 630.585 331.101 629.15 340C632.771 340 636.387 340 640.008 340C640.008 335.933 640.008 331.867 640.008 327.551C642.768 329.9 645.166 333.462 648.192 334.116C651.435 334.823 655.275 332.797 658.784 332.441C671.807 330.602 684.829 328.762 697.852 326.923C697.825 325.988 697.799 325.047 697.772 324.117C695.289 323.41 692.806 322.703 689.748 321.831Z" fill="url(#paint0_linear_16_95)"/>
<path d="M1290.67 191.087C1289.98 189.854 1288.79 187.733 1288.26 186.766C1294.59 184.629 1299.07 185.771 1303.12 192.299C1299.08 191.906 1295.07 191.513 1290.67 191.087ZM1197.56 312.49C1201.97 312.899 1205.85 313.404 1209.75 313.585C1213.64 313.766 1217.53 313.622 1223 313.622C1213.15 319.592 1204 318.975 1197.56 312.49ZM1141.15 233.465C1144.22 237.138 1146.23 239.546 1149.02 242.906C1140.23 241.045 1132.46 239.398 1124.71 237.755C1124.7 236.809 1124.7 235.857 1124.7 234.906C1134.4 239.456 1139.58 232.397 1145.57 227.565C1147.79 229.324 1149.69 230.828 1153.02 233.465C1148.5 233.465 1145.72 233.465 1141.15 233.465ZM1100.62 241.274C1096.82 240.487 1093.01 239.69 1087.62 238.563C1091.62 235.953 1093.81 234.518 1096.26 232.918C1098.05 235.155 1099.62 237.112 1101.19 239.073C1101 239.807 1100.81 240.541 1100.62 241.274ZM1027.01 318.029C1031.47 319.103 1035.93 320.171 1041.47 321.5C1034.35 327.47 1030.76 322.335 1027.01 318.029ZM980.225 265.073C980.847 266.216 981.501 267.407 982.74 269.687C975.019 269.687 968.324 269.687 961.629 269.687C961.172 269.054 960.72 268.411 960.263 267.773C964.251 266.944 968.244 266.11 972.589 265.206C969.042 261.596 965.889 258.38 962.73 255.169C963.081 254.388 963.427 253.607 963.772 252.831C972.03 254.59 978.22 268.002 988.919 256.02C988.956 257.269 988.999 258.513 989.041 259.757C986.106 261.527 983.176 263.292 980.225 265.073ZM962.735 289.893C970.084 288.819 977.327 287.761 984.574 286.703C984.729 287.596 984.888 288.489 985.048 289.382C978.523 294.379 969.606 294.586 962.735 289.893ZM863.133 276.146C862.517 275.205 861.9 274.269 861.283 273.334C865.787 270.569 870.296 267.805 874.8 265.041C875.135 265.716 875.465 266.391 875.794 267.072C871.572 270.091 867.356 273.116 863.133 276.146ZM784.552 268.044C790.236 266.763 794.501 265.801 800.281 264.499C802.238 265.456 806.008 267.306 809.746 269.134C807.465 272.701 797.282 272.813 784.552 268.044ZM799.877 252.793C800.802 253.952 802.19 255.696 803.992 257.955C797.202 257.955 791.193 257.955 785.179 257.955C785.158 257.376 785.131 256.791 785.11 256.217C789.821 255.122 794.527 254.027 799.877 252.793ZM1382.75 388.836C1384.92 386.449 1387.21 384.594 1388.59 382.207C1389.74 380.235 1389.8 377.635 1390.34 375.307C1388.42 375.036 1386.51 374.6 1384.58 374.52C1381.28 374.393 1377.97 374.483 1374.67 374.483C1374.43 373.521 1374.2 372.559 1373.97 371.591C1380.03 368.71 1386.09 365.824 1394 362.055C1386.37 360.194 1380.67 358.801 1374.43 357.276C1378.92 351.583 1390.27 355.575 1391.6 345.639C1386.75 344.566 1382.14 343.545 1377 342.402C1380.93 339.654 1384.23 337.347 1388.56 334.312C1384.3 333.668 1381.12 333.195 1377.27 332.616C1378.81 329.703 1380.2 327.082 1382.31 323.122C1377.91 323.754 1375.05 324.164 1372.12 324.589C1372.76 321.623 1373.29 319.119 1373.51 318.098C1375.65 312.331 1377.27 307.966 1378.9 303.565C1376.02 303.209 1373.33 303.336 1371.08 302.406C1369.94 301.933 1368.72 299.344 1369.02 298.068C1370.28 292.843 1372.12 287.756 1373.46 283.471C1370.13 281.297 1366.93 279.218 1364.26 277.48C1365.49 273.015 1366.74 268.523 1368.22 263.127C1364.01 264.355 1361.21 265.174 1357.4 266.285C1358.71 261.639 1359.72 258.067 1360.83 254.154C1357.42 253.617 1354.26 253.123 1350.64 252.549C1354.84 246.042 1358.59 240.243 1362.93 233.524C1357.92 231.812 1355.75 224.837 1348.22 228.388C1346.29 229.297 1342.62 226.528 1339.47 224.035C1350.48 223.843 1356.65 218.762 1358.05 206.535C1354.34 205.616 1349.17 204.728 1344.3 203C1340.39 201.613 1336.83 199.21 1333.12 197.259C1333.35 196.6 1333.58 195.941 1333.81 195.282C1337.47 195.723 1341.13 196.169 1345.06 196.642C1348.24 192.305 1351.76 187.494 1355.7 182.114C1351.48 181.322 1348.2 177.495 1343.2 181.54C1342.1 182.428 1337.16 178.563 1332.33 176.017C1338.23 175.108 1342.35 175.475 1345.23 173.763C1348.48 171.839 1350.61 168.038 1354.53 163.562C1347.41 161.935 1341.39 160.559 1335.37 159.182C1335.21 159.878 1335.04 160.574 1334.87 161.276C1333.28 159.059 1331.68 156.843 1329.75 154.158C1335.15 153.579 1340.67 152.989 1346.58 152.356C1342.02 144.415 1338.38 138.078 1334.74 131.758C1344.86 125.969 1337.04 117.633 1339.11 110.904C1338.4 110.569 1337.68 110.234 1336.96 109.893C1334.02 114.927 1331.09 119.956 1327.01 126.936C1326.65 120.642 1326.4 116.294 1326.14 111.935C1328.4 111.685 1330.18 111.483 1331.2 111.371C1331.88 108.708 1332.65 106.619 1332.9 104.471C1333.16 102.074 1332.95 99.6234 1332.95 97.194C1331.77 96.1893 1330.59 95.1899 1329.4 94.1852C1328.13 96.7527 1326.86 99.3151 1324.54 103.972C1326.57 97.5289 1328.01 92.9626 1329.11 89.4648C1327.32 86.8069 1325.86 84.6432 1324.42 82.4956C1323.29 87.1204 1322.06 92.112 1320.66 97.8744C1319.83 97.9807 1317.96 98.2146 1316.82 98.3582C1317.33 105.641 1317.83 112.759 1318.44 121.588C1314.85 119.09 1312.87 117.702 1310.51 116.065C1311.26 122.194 1311.97 128.004 1312.76 134.591C1315.59 136.355 1319.61 138.87 1323.61 141.384C1317.2 144.585 1311.73 140.863 1305.78 138.875C1304.26 140.178 1302.42 141.751 1300 143.824C1307.18 147.731 1309.69 160.096 1322.02 152.952C1318.53 164.71 1307.34 156.109 1301.41 163.142C1303.53 166.273 1305.97 169.893 1307.87 172.711C1306.33 175.002 1304.79 177.266 1302.71 180.365C1297.02 181.902 1292.95 178.781 1292.33 171.833C1292.08 169.048 1293.96 166.129 1294.43 163.206C1294.8 160.92 1294.5 158.528 1292.96 155.168C1289.78 158.751 1286.59 162.329 1282.61 166.805C1282.23 163.036 1281.94 160.133 1281.58 156.508C1290.29 157.05 1287.7 150.251 1289.31 144.452C1286.33 146.046 1284.18 147.2 1282.51 148.098C1282.51 144.388 1282.51 139.997 1282.51 135.611C1281.53 135.532 1280.55 135.462 1279.56 135.388C1278.9 139.774 1278.24 144.159 1277.63 148.29C1276.71 147.854 1274.73 146.913 1272.34 145.775C1272.96 151.724 1273.49 156.774 1274.14 163.02C1270.88 161.648 1268.93 160.83 1266.34 159.745C1267.02 164.083 1267.64 168.006 1268.4 172.822C1271.1 174.162 1275.08 176.134 1279.59 178.361C1272.01 182.736 1263.71 172.019 1256.27 179.626C1263.01 182.959 1267.1 191.635 1276.62 186.553C1276.61 187.557 1276.61 188.568 1276.61 189.578C1273.62 189.822 1270.6 189.843 1267.67 190.37C1264.27 190.981 1260.96 192.039 1256.47 193.198C1259.44 196.334 1261.79 198.827 1264.34 201.528C1260.44 203.691 1256.55 205.839 1252.42 208.13C1257.24 212.244 1262.3 216.571 1267.74 221.228C1258.66 225.667 1254.81 224.88 1251.85 218.73C1247.43 219.272 1247.8 219.192 1246.71 214.201C1246.44 213.02 1242.85 212.579 1240.3 211.606C1240.64 210.878 1241.58 208.922 1242.54 206.939C1241.23 205.929 1239.8 204.818 1238.86 204.09C1236.41 207.072 1233.92 210.086 1230.96 213.68C1231.15 215.976 1231.47 219.686 1231.85 224.21C1229.03 223.285 1227.04 222.631 1224.54 221.807C1225.12 225.3 1225.58 228.07 1226.11 231.195C1228.96 232.317 1232.7 233.789 1236.44 235.262L1236.27 236.421C1232.79 236.08 1229.31 235.703 1225.83 235.4C1222.48 235.113 1219.13 234.906 1215.78 234.656C1215.58 235.607 1215.37 236.554 1215.16 237.5C1221.04 239.717 1226.92 241.933 1235.02 244.985C1230.19 244.985 1227.26 244.82 1224.36 245.032C1221.5 245.245 1218.67 245.846 1214.41 246.494C1217.48 249.088 1219.37 250.688 1221.86 252.793C1218.17 254.585 1214.72 256.265 1211.04 258.056C1215.55 261.033 1220.03 263.989 1224.52 266.944C1224.27 267.508 1224.02 268.066 1223.77 268.629C1217.29 268.629 1210.81 268.629 1203.98 268.629C1205.26 265.913 1206.4 263.505 1207.88 260.368C1204.94 260.103 1202.19 259.848 1199.51 259.603C1199.14 260.135 1198.76 260.672 1198.39 261.208C1197.34 260.539 1196.3 259.874 1195.24 259.21C1196.65 259.337 1198.08 259.47 1199.51 259.603C1202.81 254.84 1206.24 249.896 1210.93 243.135C1201.97 241.115 1194.51 239.44 1187.06 237.76C1187.05 237.074 1187.04 236.389 1187.03 235.703C1196.21 236.384 1202.63 232.933 1205.68 223.349C1197.61 221.026 1189.35 218.644 1181.08 216.263C1181.14 215.306 1181.2 214.349 1181.26 213.387C1192.33 218.203 1196.63 209.863 1202.22 203.92C1196.36 198.195 1186.58 207.986 1182.61 199.827C1188.68 197.057 1194.84 194.24 1201.02 191.422C1200.76 190.412 1200.51 189.397 1200.26 188.387C1194.17 187.387 1188.09 186.388 1181.33 185.283C1180.28 181.524 1180.29 181.875 1185.5 181.748C1188.07 181.684 1190.6 180.046 1192.58 179.329C1189.52 174.268 1186.68 169.654 1183.94 164.987C1183.57 164.349 1183.33 162.882 1183.58 162.727C1190.87 158.358 1184.5 152.404 1185.99 147.402C1185.38 147.067 1184.77 146.727 1184.17 146.387C1181.1 150.469 1178.04 154.552 1174.02 159.899C1173.64 155.152 1173.39 151.963 1173.13 148.779C1173.88 149.071 1174.63 149.363 1175.37 149.656C1177.41 145.499 1179.46 141.336 1181.5 137.18C1180.97 136.701 1180.45 136.223 1179.93 135.739C1177.74 137.025 1175.56 138.307 1173.37 139.598C1171.4 135.33 1181 129.881 1172.14 126.58C1170.17 130.184 1167.79 134.511 1165.41 138.838L1164.1 137.748C1164.55 143.165 1165 148.582 1165.55 155.216C1162.31 153.675 1160.37 152.755 1157.88 151.575C1158.48 156.465 1159.04 161.026 1159.65 165.991C1162.72 167.48 1166.76 169.431 1170.8 171.387C1170.79 171.972 1170.78 172.556 1170.77 173.136C1164.87 172.179 1158.98 171.222 1151.79 170.058C1151.47 170.276 1149.73 171.509 1147.39 173.168C1154.54 176.905 1158.52 186.734 1168.87 180.195C1168.97 181.152 1169.06 182.114 1169.16 183.066C1166 183.73 1162.84 184.389 1159.68 185.059C1156.16 185.798 1152.65 186.553 1147.76 187.589C1150.83 191.167 1153.2 193.926 1155.81 196.967C1151.96 199.215 1148.02 201.533 1143.74 204.037C1148.47 208.358 1153.63 213.063 1158.78 217.767C1158.63 218.464 1158.47 219.155 1158.32 219.857C1147.1 218.788 1137.84 231.376 1125.8 223.838C1131.8 221.52 1137.79 219.203 1143.78 216.885C1143.65 216.098 1143.51 215.311 1143.37 214.525C1135.76 213.105 1128.16 211.686 1120.54 210.267C1120.7 209.56 1120.86 208.853 1121.01 208.151C1125.97 207.875 1130.92 207.603 1136.46 207.295C1135 201.187 1126.19 201.953 1127.86 195.165C1128.1 194.192 1128.37 193.187 1128.35 192.204C1128.26 188.424 1128.06 184.65 1127.9 180.87C1120.85 181.412 1122.38 177.208 1123.52 173.099C1123.68 172.493 1123.15 171.69 1122.75 170.292C1120.49 171.514 1118.44 172.62 1117.22 173.279C1117.22 169.851 1117.22 165.747 1117.22 161.638C1116.32 161.574 1115.42 161.51 1114.52 161.446C1113.78 165.391 1113.04 169.335 1112.37 172.918C1111.55 172.641 1109.47 171.945 1107.36 171.238C1107.82 176.474 1108.22 181.003 1108.71 186.548C1105.59 185.266 1103.79 184.528 1101.25 183.48C1101.86 187.552 1102.39 191.087 1103.03 195.324C1106.07 196.658 1109.97 198.381 1113.87 200.098L1113.64 201.342C1106.4 200.619 1099.17 199.885 1091.93 199.162C1091.7 200.284 1091.47 201.405 1091.23 202.527C1097.28 205.222 1103.34 207.917 1109.58 210.697C1104.71 211.463 1098.61 212.415 1090.79 213.642C1094.13 216.726 1096.27 218.719 1099.01 221.255C1095.85 222.796 1092.82 224.752 1089.49 225.731C1086.96 226.48 1086.8 225.927 1087.02 221.978C1087.17 219.277 1079.05 212.872 1076.54 213.51C1075.79 213.701 1074.8 212.967 1073.92 212.659C1076.43 207.763 1073.07 206.338 1069.63 204.122C1067.88 202.984 1067.6 199.555 1066.62 197.083C1063.38 201.209 1060.9 204.382 1057.7 208.481C1057.85 210.41 1058.15 214.142 1058.51 218.506C1055.89 217.635 1053.81 216.938 1051.45 216.151C1051.9 222.743 1052.7 228.601 1060.15 230.531C1054.14 230.111 1048.14 229.701 1042.14 229.287C1042 229.946 1041.86 230.605 1041.72 231.27C1045 233.529 1048.29 235.793 1052.53 238.717C1048.8 239.887 1046.02 240.758 1042.38 241.901C1043.92 243.74 1045.24 245.325 1047.19 247.664C1044.23 249.413 1041.32 251.13 1037.88 253.15C1042.19 255.962 1046.74 258.928 1051.97 262.346C1044.71 264.674 1038.92 266.53 1032.68 268.528C1034.44 264.728 1035.7 261.984 1037.13 258.88C1032.25 258.247 1027.98 257.695 1024.4 257.232C1029.49 251.667 1034.11 246.611 1039.56 240.647C1034.09 238.249 1031.39 232.705 1024.49 235.56C1022.34 236.447 1018.81 233.981 1015.81 231.839C1025.28 230.674 1032.67 227.766 1034.18 216.22C1026.6 213.812 1018.07 211.107 1009.53 208.39C1009.74 207.529 1009.94 206.673 1010.14 205.812C1013.68 206.051 1017.21 206.285 1021.09 206.551C1024.29 202.67 1027.85 198.343 1031.42 194.016C1031.26 193.352 1031.1 192.687 1030.94 192.023C1027.07 192.427 1023.13 193.479 1019.36 193.038C1016.19 192.666 1013.23 190.556 1011.09 189.609C1017.54 186.25 1023.62 183.087 1029.7 179.924C1029.53 178.797 1029.36 177.67 1029.19 176.538C1023.03 175.331 1016.85 174.119 1009.32 172.641C1009.5 171.679 1009.99 169.106 1010.11 168.415C1014.76 167.746 1018.05 167.273 1022.05 166.698C1017.74 159.772 1014.13 153.967 1010.5 148.12C1020.18 142.921 1012.75 135.165 1014.9 129.062C1014.22 128.749 1013.55 128.43 1012.88 128.116C1009.82 132.853 1006.76 137.584 1002.97 143.436C1002.31 138.37 1001.83 134.644 1001.31 130.609C1003.78 130.157 1005.76 129.796 1007.06 129.557C1007.82 124.911 1008.49 120.828 1009.44 115.007C1006.11 117.665 1003.78 119.52 1000.65 122.014C1002.11 117.463 1003.33 113.62 1004.41 110.212C1002.83 107.889 1001.35 105.705 999.5 102.978C998.857 109.155 998.256 114.928 997.725 120.01C996.89 119.568 994.667 118.404 992.396 117.213C993.013 124.602 993.55 131.093 994.22 139.13C990.684 136.807 988.828 135.59 986.233 133.884C987.042 139.715 987.76 144.93 988.557 150.703C991.498 152.447 995.459 154.791 1000.01 157.486C992.184 162.839 983.527 149.172 976.306 159.426C983.144 163.025 986.643 174.268 997.927 166.964C994.475 178.686 983.373 170.116 977.204 176.719C979.39 179.541 981.772 182.619 984.479 186.112C980.826 188.828 976.949 191.715 972.823 194.776C977.364 199.513 982.634 205.004 989.456 212.111C982.522 213.376 977.651 214.27 971.578 215.381C974.87 219.963 977.731 223.934 980.99 228.474C977.481 228.474 974.391 228.474 971.302 228.474C970.914 229.239 970.531 230.004 970.148 230.77C974.009 233.21 977.89 235.623 981.719 238.116C982.474 238.611 983.681 239.647 983.548 240.057C983.112 241.391 982.431 243.071 981.331 243.682C976.763 246.202 972.009 248.376 966.973 250.858C966.484 248.227 966.085 246.042 965.378 242.241C961.544 245.303 958.306 247.892 954.339 251.06C953.797 248.636 953.339 246.616 953.201 246.016C955.892 243.23 957.774 241.513 959.311 239.525C959.742 238.972 959.157 237.622 959.034 236.639C957.11 236.904 955.179 237.175 952.856 237.494C953.887 235.448 954.892 233.455 955.833 231.583C954.547 230.611 953.286 229.654 952.106 228.766C949.825 231.482 947.182 234.624 944.358 237.989C944.624 240.636 944.98 244.187 945.411 248.434C942.651 247.86 940.838 247.477 938.02 246.898C938.732 249.588 939.211 251.406 939.998 254.404C935.26 254.17 930.628 254.037 926.029 253.57C925.63 253.527 925.449 251.31 925.29 250.63C929.022 250.284 932.447 249.971 937.967 249.466C934.01 246.701 931.692 245.58 930.102 243.815C928.735 242.305 927.231 239.902 927.502 238.159C928.028 234.762 929.751 231.551 931.437 227.044C922.79 229.186 918.297 229.664 917.856 229.914C920.105 226.767 921.902 224.253 923.694 221.744C921.599 221.313 919.499 220.883 917.165 220.399C917.718 219.362 918.643 217.629 919.201 216.577C918.143 215.173 917.228 213.855 916.144 212.691C916.032 212.574 914.953 213.584 914.245 213.754C909.066 215.009 903.711 218.352 899.5 213.18C905.211 210.756 911.145 208.236 917.074 205.716C916.957 204.834 916.846 203.946 916.729 203.059C910.815 202.128 904.897 201.198 898.984 200.268C898.867 200.778 898.755 201.288 898.638 201.799C897.048 200.05 895.459 198.301 893.72 196.382C899.117 196.095 904.222 195.829 909.342 195.558C905.982 190.471 903.265 186.431 900.654 182.321C900.303 181.763 900.276 180.807 900.462 180.132C901.1 177.798 902.393 175.523 902.488 173.189C902.579 171.142 901.398 169.043 900.776 166.964C899.096 168.261 897.219 169.367 895.799 170.898C894.31 172.509 893.252 174.523 890.806 178.133C890.157 173.375 889.79 170.706 889.726 170.233C893.007 166.098 895.209 163.615 896.969 160.846C897.304 160.319 895.73 157.667 895.352 157.736C893.48 158.076 891.72 158.996 889.12 160.038C890.242 157.082 891.353 154.153 892.252 151.782C890.806 150.113 889.471 148.577 887.95 146.817C887.073 151.112 886.211 155.312 885.419 159.176C884.409 158.751 882.489 157.938 880.378 157.04C880.958 162.616 881.473 167.517 882.112 173.646C878.698 172.179 876.725 171.328 874.279 170.276C875.013 174.534 875.699 178.494 876.475 182.986C879.538 184.352 883.377 186.059 887.222 187.765C887.248 188.249 887.275 188.738 887.301 189.227C879.82 188.461 872.343 187.696 864.862 186.93C864.734 187.808 864.601 188.685 864.468 189.562C870.839 192.794 875.21 201.326 884.871 195.829C884.914 196.791 884.946 197.753 884.983 198.71C881.894 199.125 878.783 199.422 875.72 199.986C872.365 200.608 869.057 201.48 864.117 202.607C867.377 205.679 869.669 207.848 872.29 210.331C868.467 212.484 864.691 214.61 860.554 216.938C865.207 220.824 870.078 224.896 876.81 230.525C869.807 231.488 865.106 232.136 859.012 232.976C862.4 236.559 864.915 239.233 867.893 242.385C864.984 242.736 862.277 243.066 858.22 243.555C862.437 247.504 864.224 253.166 871.057 249.338C870.897 257.147 864.989 256.286 859.039 257.402C860.129 255.605 860.762 254.563 862.16 252.267C853.769 250.369 845.772 248.562 837.769 246.754C837.849 246.122 837.934 245.49 838.014 244.862C841.885 244.692 846.144 245.463 849.521 244.076C852.966 242.667 855.551 239.132 860.002 235.214C851.43 234.831 845.261 234.549 839.093 234.273L839.263 233.045C844.958 230.642 850.653 228.24 856.348 225.837C856.21 225.045 856.061 224.258 855.918 223.466C848.361 222.217 840.811 220.967 833.249 219.718C833.35 219.017 833.446 218.315 833.542 217.613C838.636 217.22 843.735 216.821 850.893 216.268C847 213.09 844.772 211.564 842.911 209.671C840.497 207.226 837.934 205.243 841.529 200.932C843.172 198.96 841.295 194.054 841.018 190.476C838.864 192.044 836.647 193.522 834.6 195.212C833.441 196.164 832.569 197.461 830.426 199.917C829.782 196.074 829.362 193.533 828.937 190.997C829.564 191.3 830.186 191.598 830.814 191.901C833.047 188.498 835.281 185.091 837.509 181.689C836.881 181.131 836.259 180.567 835.631 180.009C833.6 181.078 831.558 182.141 828.533 183.73C829.814 180.684 830.893 178.122 831.835 175.884C830.495 174.427 829.245 173.067 827.623 171.297C826.64 175.034 825.64 178.813 824.688 182.401C824.05 182.162 822.146 181.455 820.067 180.679C820.572 185.809 821.04 190.556 821.646 196.722C818.068 194.925 816.313 194.048 813.66 192.719C814.532 197.083 815.26 200.757 816.079 204.866C819.078 206.142 822.864 207.752 826.645 209.363C826.586 209.879 826.523 210.394 826.459 210.91C822.774 210.394 819.094 209.783 815.393 209.395C812.001 209.044 808.581 208.932 804.864 209.841C810.581 214.775 815.372 221.829 824.72 216.773C824.715 217.735 824.709 218.698 824.704 219.665C818.233 220.664 811.761 221.664 803.732 222.903C807.013 225.895 809.315 228 811.91 230.377C807.938 232.344 804.093 234.247 800.052 236.245C804.657 239.924 809.437 243.741 814.213 247.557C813.819 248.589 813.426 249.62 813.027 250.651C802.046 249.051 791.066 247.456 780.085 245.856C780.175 245.255 780.266 244.655 780.356 244.049C784.961 243.671 789.561 243.289 796.122 242.741C792.214 239.887 789.827 238.542 787.987 236.671C786.349 235.007 782.951 233.507 787.093 230.164C788.471 229.047 787.226 224.689 787.184 221.813C785.009 222.722 782.632 223.333 780.723 224.641C779.346 225.576 778.596 227.431 776.57 230.275C775.618 226.055 775.14 223.929 775.134 223.886C778.415 220.266 780.633 217.826 782.845 215.386C782.302 214.626 781.755 213.871 781.212 213.116C779.133 213.775 777.054 214.434 775.012 215.088C773.661 212.042 782.605 208.013 773.342 206.073C772.571 208.188 771.487 211.16 770.471 213.956C769.344 213.834 767.562 213.642 765.972 213.472C766.414 217.735 766.812 221.499 767.291 226.119C764.202 225.055 762.314 224.407 759.719 223.514C760.474 227.086 760.171 231.142 762.048 233.088C764.249 235.368 768.355 235.809 771.449 238.191C764.515 237.542 757.587 236.899 750.658 236.251C750.568 236.936 750.477 237.622 750.387 238.308C753.971 240.482 757.549 242.661 762.856 245.883C754.455 247.09 747.632 248.067 740.087 249.147C741.767 244.618 743.07 241.099 744.325 237.723C739.518 237.101 735.312 236.559 732.142 236.15C736.901 229.973 741.262 224.593 745.138 218.889C745.58 218.24 743.426 214.461 742.283 214.365C738.545 214.036 735.966 208.22 731.026 212.292C729.994 213.143 725.964 210.357 723.076 208.023C733.934 207.46 739.699 201.82 742.012 191.709C735.827 184.267 722.427 190.178 716.86 178.962C721.295 179.52 725.118 180.004 728.532 180.44C732.041 175.618 735.482 170.898 739.321 165.63C734.993 165.486 731.754 161.808 726.83 165.162C725.32 166.188 720.364 162.153 717.168 159.251C727.809 162.201 731.978 154.743 737.875 147.285C731.031 145.759 724.916 144.393 718.806 143.032C718.668 143.67 718.524 144.313 718.391 144.951C716.754 142.761 715.116 140.576 713.101 137.887C718.716 137.397 724.14 136.93 730.287 136.398C725.74 128.568 722.124 122.349 718.402 115.943C727.644 110.096 720.885 101.994 721.348 94.4139C719.513 96.6199 717.424 98.6559 715.919 101.069C714.339 103.6 713.313 106.481 710.107 109.022C709.921 104.859 709.734 100.697 709.532 96.0883C711.59 95.7959 713.435 95.5354 714.887 95.3281C715.642 90.2355 716.339 85.6002 717.285 79.2319C714.127 81.9004 711.909 83.7716 708.91 86.3073C710.25 81.5017 711.447 77.233 712.446 73.6448C710.968 71.359 709.628 69.2911 708.134 67C707.895 68.5841 707.884 70.5457 707.23 72.2574C706.767 73.4588 705.422 74.3201 704.263 75.5534C705.076 78.695 706.028 82.3735 707.033 86.2647C704.624 84.3829 702.593 82.7987 700.28 80.9966C700.881 89.3797 701.402 96.604 702.061 105.721C698.52 103.174 696.776 101.92 694.298 100.134C694.936 106.204 695.516 111.664 696.228 118.425C698.919 120.126 703.221 122.843 707.427 125.501C703.215 128.834 695.989 127.686 689.608 122.402C687.821 124.028 686.029 125.665 683.785 127.712C691.022 131.066 692.82 145.27 705.895 137.801C704.125 139.997 702.354 142.198 701.955 142.692C695.207 143.644 690.294 144.335 683.673 145.265C687.045 150.23 689.507 153.855 692.001 157.518C688.443 160.41 684.545 163.578 680.424 166.932C685.2 172.434 690.437 178.473 697.042 186.091C690.235 187.483 685.279 188.499 678.866 189.812C682.413 194.936 685.364 199.204 688.512 203.75C685.396 203.898 682.28 204.042 677.787 204.255C681.52 209.523 682.626 215.753 690.847 214.849C691.868 226.204 677.468 221.627 675.511 230.414C681.85 240.312 681.85 240.312 696.829 238.095C693.894 240.195 690.953 242.289 687.81 244.533C688.433 245.745 689.097 247.036 689.975 248.748C683.2 249.827 676.649 250.874 670.188 251.906C670.917 266.849 685.87 264.111 692.857 271.489C686.268 278.139 678.271 276.433 669.667 275.502C671.518 279.197 672.629 283.168 675.102 285.906C677.808 288.899 681.78 290.738 685.2 293.082C685.221 293.879 685.242 294.677 685.269 295.474C677.409 297.383 669.55 299.291 661.09 301.343C664.61 307.525 667.62 312.82 671.337 319.358C670.816 319.688 668.668 321.075 665.732 322.973C669.183 326.827 672.528 330.564 675.995 334.45C671.353 336.486 662.834 332.302 662.712 343.072C666.812 345.735 672.193 349.233 677.883 352.928C677.542 353.066 675.867 354.389 674.479 354.14C668.114 353.007 664.078 354.735 663.042 361.656C662.925 362.432 661.058 362.953 660 363.596C660 364.112 660 364.633 660 365.149C665.02 367.759 670.885 368.822 673.15 375.499C676.176 384.403 689.145 387.193 696.356 380.745C700.115 377.386 703.359 373.457 708.193 368.354C707.485 376.227 706.89 382.856 706.262 389.867C709.921 389.867 713.148 389.867 716.929 389.867C716.541 385.471 716.195 381.511 715.791 376.955C726.867 387.145 730.946 384.934 735.312 380.325C749.727 383.472 761.213 377.651 773.427 369.842C772.773 374.403 772.284 377.821 771.742 381.617C775.124 381.617 778.16 381.617 781.638 381.617C781.638 379.432 781.638 377.316 781.638 375.164C796.909 379.99 811.825 380.24 827.224 371.889C826.661 375.844 826.289 378.491 825.821 381.771C829.426 381.771 832.792 381.771 836.456 381.771C836.147 379.097 835.865 376.615 835.456 373.08C841.949 378.3 848.005 376.689 854.79 376.546C863.277 376.365 873.614 372.564 881.92 381.367C887.987 387.799 896.947 385.758 904.908 383.004C907.545 382.095 910.273 381.426 912.958 380.639C913.203 381.442 913.453 382.239 913.703 383.036C911.443 384.472 909.178 385.912 906.971 387.31C908.385 392.052 921.589 400.515 926.768 400.94C935.776 401.684 943.507 399.005 951.68 391.478C950.952 396.932 950.511 400.26 950.005 404.05C953.409 404.05 956.402 404.05 959.917 404.05C959.821 401.961 959.731 400.089 959.641 398.085C976.752 404.034 993.061 397.352 1010.03 397.113C1009.69 392.833 1009.39 389.102 1009.05 384.939C1018.82 392.887 1022.98 393.338 1028.69 387.422C1036.02 390.548 1042.68 389.15 1049.08 384.716C1050.42 383.791 1052.43 383.839 1054.14 383.462C1061.68 381.787 1069.22 380.123 1077.26 378.337C1077.11 379.873 1076.79 383.18 1076.43 386.821C1079.49 386.821 1082.52 386.821 1086.07 386.821C1086.24 384.865 1086.41 382.946 1086.46 382.468C1094.32 382.468 1101.78 382.845 1109.18 382.361C1116.27 381.893 1123.31 380.527 1130.36 379.555C1130.36 378.693 1130.35 377.832 1130.34 376.971C1128.25 376.264 1126.15 375.552 1123.93 374.813C1127.41 369.391 1132.4 368.742 1139.35 372.405C1151.29 378.704 1159.45 376.992 1168.35 366.313C1168.83 365.744 1169.27 365.148 1171.64 364.798C1171.06 369.848 1170.47 374.898 1169.83 380.517C1173.32 380.517 1176.76 380.517 1180.38 380.517C1180.08 377.115 1179.82 374.111 1179.47 369.965C1185.76 375.403 1191.53 379.48 1198.6 373.159C1199.19 372.628 1201.02 373.138 1202.11 373.574C1214.61 378.545 1226.25 377.827 1238.05 366.94C1237.53 371.979 1237.2 375.28 1236.76 379.581C1239.7 379.746 1242.61 379.911 1246.13 380.113C1246.33 377.662 1246.5 375.568 1246.67 373.495C1247.25 373.425 1247.72 373.277 1248.17 373.33C1253.28 373.962 1258.36 375.004 1263.48 375.174C1268.18 375.328 1272.91 374.334 1277.61 374.494C1278.13 374.515 1278.51 378.768 1278.51 381.006C1280.89 386.752 1290.73 385.455 1290.79 394.976C1290.8 396.639 1297.57 399.165 1301.42 399.643C1305.38 400.143 1309.73 399.085 1313.67 397.905C1321.15 395.672 1323.59 398.101 1322.15 407C1325.77 407 1329.39 407 1333 407C1333 402.939 1333 398.872 1333 394.556C1335.77 396.911 1338.17 400.472 1341.19 401.126C1344.43 401.833 1348.27 399.802 1351.78 399.446C1364.81 397.607 1377.83 395.768 1390.85 393.928C1390.83 392.993 1390.8 392.057 1390.77 391.122C1388.29 390.415 1385.81 389.702 1382.75 388.836Z" fill="url(#paint1_linear_16_95)"/>
<path d="M1447.11 126.275C1447.83 125.026 1449.08 122.867 1449.64 121.883C1443.01 119.703 1438.32 120.866 1434.08 127.508C1438.31 127.108 1442.5 126.713 1447.11 126.275ZM1544.53 249.818C1539.92 250.24 1535.85 250.749 1531.78 250.933C1527.72 251.122 1523.64 250.971 1517.92 250.971C1528.22 257.045 1537.8 256.418 1544.53 249.818ZM1603.55 169.406C1600.35 173.138 1598.25 175.594 1595.32 179.013C1604.52 177.114 1612.65 175.437 1620.76 173.771C1620.77 172.803 1620.77 171.834 1620.78 170.871C1610.62 175.497 1605.2 168.313 1598.94 163.395C1596.61 165.186 1594.62 166.722 1591.14 169.406C1595.88 169.406 1598.78 169.406 1603.55 169.406ZM1645.96 177.352C1649.95 176.541 1653.92 175.74 1659.57 174.593C1655.39 171.932 1653.1 170.471 1650.53 168.843C1648.66 171.12 1647.01 173.116 1645.37 175.112C1645.57 175.859 1645.76 176.606 1645.96 177.352ZM1722.98 255.455C1718.32 256.548 1713.65 257.641 1707.86 258.993C1715.31 265.068 1719.06 259.837 1722.98 255.455ZM1771.94 201.56C1771.29 202.728 1770.61 203.94 1769.3 206.266C1777.39 206.266 1784.39 206.266 1791.4 206.266C1791.87 205.617 1792.35 204.962 1792.83 204.313C1788.65 203.469 1784.48 202.625 1779.93 201.7C1783.64 198.027 1786.94 194.76 1790.24 191.487C1789.88 190.697 1789.52 189.902 1789.15 189.107C1780.51 190.903 1774.04 204.546 1762.84 192.358C1762.8 193.624 1762.76 194.89 1762.72 196.156C1765.79 197.957 1768.85 199.758 1771.94 201.56ZM1790.24 226.822C1782.55 225.73 1774.97 224.659 1767.39 223.582C1767.22 224.491 1767.06 225.4 1766.89 226.309C1773.71 231.393 1783.05 231.599 1790.24 226.822ZM1894.46 212.828C1895.1 211.881 1895.75 210.929 1896.39 209.972C1891.68 207.164 1886.96 204.346 1882.25 201.533C1881.9 202.225 1881.55 202.912 1881.21 203.599C1885.63 206.677 1890.04 209.755 1894.46 212.828ZM1976.68 204.589C1970.74 203.291 1966.27 202.312 1960.22 200.986C1958.18 201.96 1954.23 203.837 1950.32 205.698C1952.7 209.328 1963.36 209.442 1976.68 204.589ZM1960.64 189.069C1959.67 190.254 1958.22 192.023 1956.34 194.327C1963.44 194.327 1969.73 194.327 1976.02 194.327C1976.05 193.732 1976.07 193.142 1976.09 192.547C1971.17 191.438 1966.24 190.329 1960.64 189.069ZM1350.77 327.516C1348.5 325.081 1346.09 323.199 1344.65 320.77C1343.45 318.763 1343.39 316.112 1342.82 313.748C1344.83 313.467 1346.83 313.023 1348.84 312.942C1352.3 312.813 1355.76 312.905 1359.22 312.905C1359.47 311.931 1359.71 310.946 1359.95 309.967C1353.62 307.03 1347.28 304.098 1339 300.262C1346.98 298.364 1352.94 296.946 1359.47 295.394C1354.77 289.606 1342.9 293.668 1341.51 283.558C1346.58 282.465 1351.41 281.421 1356.78 280.258C1352.67 277.467 1349.23 275.113 1344.69 272.03C1349.15 271.375 1352.48 270.889 1356.5 270.304C1354.88 267.34 1353.43 264.673 1351.24 260.637C1355.83 261.287 1358.82 261.703 1361.89 262.136C1361.23 259.112 1360.66 256.564 1360.43 255.525C1358.2 249.656 1356.5 245.22 1354.79 240.741C1357.81 240.373 1360.62 240.503 1362.97 239.556C1364.17 239.075 1365.45 236.441 1365.12 235.142C1363.81 229.825 1361.9 224.648 1360.48 220.293C1363.98 218.075 1367.31 215.966 1370.1 214.191C1368.82 209.653 1367.53 205.081 1365.97 199.585C1370.37 200.84 1373.31 201.668 1377.29 202.804C1375.92 198.071 1374.86 194.441 1373.71 190.459C1377.28 189.908 1380.57 189.399 1384.37 188.82C1379.97 182.204 1376.05 176.302 1371.5 169.459C1376.75 167.723 1379.02 160.62 1386.89 164.234C1388.91 165.164 1392.76 162.341 1396.05 159.804C1384.52 159.614 1378.07 154.442 1376.61 141.995C1380.5 141.059 1385.9 140.156 1390.99 138.398C1395.09 136.986 1398.82 134.541 1402.7 132.556C1402.46 131.885 1402.22 131.214 1401.97 130.549C1398.14 130.998 1394.31 131.447 1390.2 131.928C1386.88 127.514 1383.19 122.618 1379.08 117.149C1383.49 116.343 1386.92 112.448 1392.15 116.565C1393.29 117.468 1398.47 113.536 1403.52 110.944C1397.34 110.014 1393.04 110.387 1390.03 108.651C1386.63 106.687 1384.4 102.819 1380.29 98.27C1387.74 96.6092 1394.04 95.208 1400.34 93.8124C1400.51 94.5156 1400.69 95.2297 1400.86 95.9384C1402.53 93.6826 1404.2 91.4268 1406.22 88.6949C1400.57 88.1053 1394.8 87.5048 1388.62 86.861C1393.39 78.7846 1397.2 72.3364 1401 65.899C1390.42 60.0081 1398.59 51.5314 1396.42 44.683C1397.18 44.3367 1397.92 43.996 1398.67 43.6552C1401.75 48.7726 1404.83 53.8953 1409.09 60.9927C1409.47 54.5878 1409.73 50.168 1409.99 45.7268C1407.64 45.4726 1405.78 45.2672 1404.71 45.1536C1404 42.4434 1403.19 40.3174 1402.93 38.1373C1402.65 35.6922 1402.87 33.1983 1402.87 30.7261C1404.11 29.7037 1405.34 28.6869 1406.58 27.6645C1407.91 30.2719 1409.25 32.8847 1411.68 37.6289C1409.55 31.0671 1408.05 26.4201 1406.9 22.8607C1408.77 20.1559 1410.29 17.9543 1411.8 15.7688C1412.98 20.4751 1414.26 25.5602 1415.74 31.4187C1416.6 31.5269 1418.56 31.7703 1419.75 31.9164C1419.22 39.322 1418.7 46.5654 1418.05 55.5506C1421.8 53.0081 1423.89 51.5962 1426.35 49.9301C1425.57 56.1727 1424.83 62.0799 1423.99 68.7824C1421.04 70.5838 1416.84 73.1372 1412.64 75.6959C1419.35 78.9525 1425.07 75.1712 1431.3 73.148C1432.9 74.4734 1434.82 76.0745 1437.34 78.1788C1429.84 82.1549 1427.21 94.7429 1414.32 87.4725C1417.96 99.433 1429.67 90.6803 1435.88 97.8426C1433.66 101.029 1431.1 104.713 1429.11 107.574C1430.73 109.906 1432.33 112.216 1434.52 115.364C1440.46 116.927 1444.73 113.757 1445.38 106.682C1445.64 103.847 1443.67 100.883 1443.17 97.902C1442.79 95.5813 1443.1 93.1417 1444.72 89.7282C1448.05 93.3689 1451.38 97.0093 1455.55 101.57C1455.94 97.7288 1456.25 94.7806 1456.62 91.0859C1447.52 91.6431 1450.22 84.7245 1448.54 78.8172C1451.66 80.4455 1453.9 81.6192 1455.64 82.5334C1455.64 78.7521 1455.64 74.2892 1455.64 69.821C1456.68 69.7452 1457.71 69.6695 1458.73 69.5938C1459.42 74.0621 1460.11 78.525 1460.76 82.7228C1461.72 82.2792 1463.79 81.3217 1466.3 80.1641C1465.64 86.2174 1465.09 91.3564 1464.4 97.7126C1467.82 96.317 1469.86 95.4841 1472.56 94.3805C1471.86 98.7947 1471.21 102.792 1470.42 107.688C1467.6 109.051 1463.42 111.058 1458.71 113.325C1466.63 117.777 1475.33 106.876 1483.1 114.617C1476.05 118.004 1471.78 126.838 1461.82 121.661C1461.82 122.683 1461.83 123.711 1461.83 124.739C1464.95 124.988 1468.11 125.009 1471.17 125.545C1474.73 126.167 1478.2 127.243 1482.9 128.423C1479.79 131.62 1477.33 134.151 1474.66 136.899C1478.75 139.106 1482.81 141.292 1487.13 143.618C1482.09 147.805 1476.8 152.203 1471.1 156.947C1480.61 161.47 1484.63 160.664 1487.73 154.41C1492.35 154.956 1491.97 154.881 1493.12 149.796C1493.39 148.595 1497.15 148.141 1499.82 147.161C1499.45 146.415 1498.48 144.43 1497.48 142.406C1498.84 141.379 1500.34 140.253 1501.32 139.507C1503.89 142.542 1506.49 145.614 1509.59 149.266C1509.39 151.608 1509.05 155.378 1508.66 159.987C1511.61 159.041 1513.68 158.381 1516.31 157.542C1515.7 161.091 1515.21 163.915 1514.67 167.09C1511.69 168.231 1507.77 169.735 1503.85 171.228L1504.03 172.413C1507.67 172.062 1511.31 171.677 1514.96 171.369C1518.46 171.082 1521.96 170.866 1525.47 170.617C1525.68 171.58 1525.9 172.543 1526.11 173.506C1519.96 175.762 1513.82 178.017 1505.34 181.122C1510.39 181.122 1513.45 180.955 1516.49 181.171C1519.49 181.388 1522.45 181.999 1526.91 182.659C1523.7 185.299 1521.71 186.932 1519.11 189.075C1522.97 190.898 1526.59 192.602 1530.44 194.425C1525.71 197.459 1521.02 200.462 1516.33 203.469C1516.59 204.037 1516.85 204.611 1517.11 205.179C1523.89 205.179 1530.67 205.179 1537.82 205.179C1536.48 202.425 1535.29 199.975 1533.75 196.783C1536.81 196.507 1539.69 196.247 1542.5 195.999C1542.89 196.545 1543.28 197.086 1543.67 197.632C1544.76 196.956 1545.86 196.28 1546.96 195.598C1545.48 195.728 1543.99 195.869 1542.5 195.999C1539.04 191.152 1535.45 186.121 1530.54 179.245C1539.93 177.19 1547.72 175.48 1555.52 173.776C1555.53 173.078 1555.54 172.381 1555.55 171.677C1545.95 172.37 1539.24 168.864 1536.04 159.111C1544.48 156.742 1553.13 154.318 1561.79 151.895C1561.72 150.921 1561.65 149.942 1561.58 148.974C1550.01 153.869 1545.51 145.382 1539.66 139.339C1545.79 133.508 1556.02 143.478 1560.19 135.168C1553.84 132.35 1547.38 129.483 1540.92 126.616C1541.18 125.588 1541.45 124.56 1541.71 123.527C1548.08 122.516 1554.45 121.498 1561.53 120.368C1562.61 116.549 1562.6 116.906 1557.16 116.776C1554.47 116.706 1551.82 115.045 1549.75 114.314C1552.96 109.159 1555.92 104.469 1558.79 99.7195C1559.18 99.065 1559.43 97.572 1559.17 97.4205C1551.53 92.9684 1558.2 86.9097 1556.64 81.8247C1557.28 81.4785 1557.92 81.1379 1558.56 80.7917C1561.76 84.9408 1564.96 89.0951 1569.17 94.5372C1569.57 89.7064 1569.83 86.4663 1570.09 83.226C1569.31 83.5181 1568.54 83.8156 1567.75 84.1185C1565.62 79.8828 1563.48 75.6525 1561.35 71.4169C1561.89 70.93 1562.44 70.4431 1562.98 69.9562C1565.27 71.2599 1567.56 72.5636 1569.85 73.8781C1571.91 69.5342 1561.87 63.995 1571.13 60.6303C1573.2 64.298 1575.69 68.7012 1578.17 73.11L1579.54 71.9956C1579.07 77.5133 1578.6 83.0259 1578.03 89.7716C1581.43 88.2028 1583.45 87.2723 1586.06 86.066C1585.43 91.0428 1584.84 95.6895 1584.2 100.742C1580.99 102.257 1576.77 104.242 1572.54 106.227C1572.55 106.822 1572.56 107.417 1572.57 108.012C1578.74 107.033 1584.91 106.06 1592.43 104.875C1592.76 105.097 1594.58 106.352 1597.03 108.04C1589.55 111.848 1585.38 121.85 1574.55 115.196C1574.45 116.17 1574.35 117.144 1574.25 118.118C1577.56 118.794 1580.87 119.459 1584.17 120.141C1587.85 120.898 1591.52 121.661 1596.64 122.721C1593.43 126.356 1590.95 129.169 1588.23 132.258C1592.24 134.552 1596.37 136.905 1600.85 139.458C1595.89 143.856 1590.5 148.638 1585.11 153.426C1585.27 154.134 1585.43 154.843 1585.6 155.551C1597.33 154.459 1607.02 167.279 1619.61 159.609C1613.34 157.245 1607.07 154.892 1600.81 152.528C1600.95 151.732 1601.09 150.926 1601.24 150.131C1609.2 148.681 1617.16 147.237 1625.12 145.793C1624.95 145.073 1624.8 144.359 1624.64 143.64C1619.45 143.364 1614.26 143.083 1608.46 142.769C1610 136.553 1619.22 137.332 1617.47 130.424C1617.22 129.434 1616.93 128.417 1616.96 127.411C1617.05 123.57 1617.25 119.73 1617.43 115.883C1624.8 116.435 1623.21 112.156 1622.02 107.969C1621.84 107.352 1622.38 106.541 1622.81 105.118C1625.18 106.357 1627.32 107.482 1628.6 108.153C1628.6 104.664 1628.6 100.488 1628.6 96.3061C1629.54 96.2412 1630.48 96.1763 1631.41 96.1114C1632.19 100.125 1632.97 104.139 1633.67 107.785C1634.53 107.504 1636.7 106.795 1638.91 106.076C1638.44 111.404 1638.02 116.019 1637.51 121.655C1640.77 120.352 1642.66 119.6 1645.31 118.534C1644.67 122.678 1644.11 126.275 1643.44 130.586C1640.27 131.95 1636.18 133.697 1632.1 135.444L1632.35 136.716C1639.92 135.974 1647.49 135.233 1655.05 134.492C1655.3 135.634 1655.54 136.775 1655.79 137.922C1649.46 140.664 1643.13 143.407 1636.59 146.236C1641.68 147.01 1648.07 147.978 1656.25 149.228C1652.76 152.371 1650.51 154.399 1647.65 156.974C1650.96 158.543 1654.13 160.539 1657.61 161.534C1660.26 162.292 1660.43 161.735 1660.2 157.71C1660.04 154.967 1668.54 148.443 1671.17 149.092C1671.95 149.287 1672.98 148.546 1673.9 148.227C1671.27 143.245 1674.79 141.801 1678.39 139.539C1680.23 138.382 1680.51 134.898 1681.54 132.377C1684.92 136.575 1687.52 139.804 1690.89 143.975C1690.72 145.939 1690.4 149.736 1690.03 154.183C1692.77 153.296 1694.94 152.587 1697.42 151.781C1696.94 158.494 1696.1 164.456 1688.32 166.409C1694.6 165.992 1700.88 165.57 1707.16 165.148C1707.3 165.824 1707.45 166.495 1707.6 167.166C1704.16 169.47 1700.72 171.775 1696.29 174.745C1700.19 175.935 1703.09 176.822 1706.91 177.99C1705.3 179.862 1703.92 181.474 1701.87 183.854C1704.97 185.629 1708.02 187.371 1711.61 189.432C1707.1 192.299 1702.35 195.312 1696.87 198.795C1704.47 201.159 1710.53 203.047 1717.06 205.087C1715.22 201.214 1713.89 198.422 1712.4 195.258C1717.51 194.619 1721.97 194.062 1725.72 193.592C1720.39 187.922 1715.56 182.783 1709.85 176.714C1715.58 174.274 1718.4 168.632 1725.63 171.537C1727.87 172.44 1731.57 169.93 1734.7 167.75C1724.79 166.565 1717.07 163.601 1715.49 151.851C1723.41 149.406 1732.35 146.647 1741.27 143.888C1741.06 143.012 1740.85 142.136 1740.64 141.259C1736.94 141.503 1733.23 141.746 1729.19 142.017C1725.84 138.068 1722.11 133.665 1718.38 129.256C1718.54 128.58 1718.71 127.903 1718.88 127.227C1722.93 127.638 1727.05 128.709 1731 128.26C1734.3 127.882 1737.4 125.734 1739.65 124.771C1732.9 121.352 1726.53 118.139 1720.17 114.915C1720.35 113.768 1720.52 112.621 1720.7 111.474C1727.16 110.241 1733.62 109.008 1741.49 107.509C1741.31 106.53 1740.8 103.912 1740.67 103.209C1735.8 102.527 1732.37 102.046 1728.17 101.456C1732.68 94.4128 1736.46 88.5057 1740.26 82.5498C1730.13 77.2592 1737.91 69.3665 1735.66 63.1618C1736.36 62.8372 1737.07 62.5183 1737.77 62.1937C1740.98 67.0136 1744.18 71.8334 1748.14 77.7839C1748.83 72.634 1749.33 68.8365 1749.87 64.7361C1747.29 64.2762 1745.22 63.903 1743.86 63.6649C1743.06 58.937 1742.36 54.7771 1741.37 48.8537C1744.85 51.5584 1747.29 53.4463 1750.56 55.9888C1749.05 51.3528 1747.76 47.4471 1746.63 43.9796C1748.28 41.6156 1749.83 39.387 1751.77 36.6119C1752.44 42.8978 1753.07 48.7726 1753.63 53.9442C1754.5 53.4952 1756.83 52.3105 1759.2 51.1041C1758.56 58.618 1758 65.223 1757.3 73.4077C1761 71.0437 1762.94 69.7993 1765.65 68.0629C1764.81 73.9971 1764.06 79.304 1763.22 85.1787C1760.14 86.9531 1756 89.3388 1751.24 92.0815C1759.43 97.5289 1768.48 83.6263 1776.03 94.0559C1768.89 97.7182 1765.22 109.159 1753.42 101.726C1757.03 113.655 1768.65 104.934 1775.1 111.653C1772.81 114.526 1770.32 117.658 1767.49 121.212C1771.32 123.981 1775.37 126.913 1779.68 130.035C1774.93 134.849 1769.41 140.443 1762.28 147.67C1769.53 148.963 1774.63 149.872 1780.99 151.002C1777.54 155.66 1774.55 159.701 1771.14 164.32C1774.81 164.32 1778.05 164.32 1781.28 164.32C1781.68 165.099 1782.08 165.878 1782.48 166.657C1778.44 169.14 1774.39 171.591 1770.38 174.133C1769.59 174.642 1768.32 175.691 1768.46 176.113C1768.92 177.466 1769.63 179.181 1770.78 179.797C1775.56 182.367 1780.54 184.579 1785.8 187.105C1786.32 184.428 1786.73 182.199 1787.47 178.331C1791.49 181.453 1794.87 184.087 1799.02 187.311C1799.6 184.844 1800.07 182.789 1800.22 182.172C1797.4 179.337 1795.43 177.59 1793.82 175.572C1793.37 175.004 1793.98 173.63 1794.11 172.63C1796.13 172.905 1798.15 173.17 1800.58 173.506C1799.5 171.418 1798.45 169.389 1797.46 167.485C1798.81 166.495 1800.13 165.527 1801.36 164.618C1803.75 167.382 1806.51 170.585 1809.47 174.009C1809.19 176.703 1808.82 180.317 1808.37 184.633C1811.25 184.049 1813.15 183.665 1816.1 183.07C1815.35 185.807 1814.85 187.657 1814.03 190.708C1818.99 190.476 1823.83 190.335 1828.65 189.859C1829.06 189.821 1829.25 187.565 1829.42 186.873C1825.51 186.516 1821.93 186.202 1816.16 185.683C1820.3 182.87 1822.72 181.728 1824.39 179.932C1825.81 178.396 1827.38 175.951 1827.11 174.177C1826.55 170.72 1824.75 167.452 1822.99 162.865C1832.04 165.045 1836.74 165.532 1837.2 165.792C1834.85 162.589 1832.97 160.031 1831.09 157.472C1833.28 157.034 1835.47 156.596 1837.92 156.103C1837.34 155.048 1836.37 153.29 1835.79 152.214C1836.9 150.791 1837.86 149.444 1839 148.259C1839.11 148.14 1840.24 149.168 1840.98 149.341C1846.39 150.618 1852 154.021 1856.4 148.763C1850.43 146.29 1844.22 143.726 1838.02 141.162C1838.14 140.259 1838.26 139.361 1838.38 138.458C1844.57 137.516 1850.76 136.564 1856.94 135.617C1857.07 136.137 1857.18 136.656 1857.31 137.181C1858.97 135.401 1860.63 133.616 1862.45 131.668C1856.8 131.376 1851.46 131.1 1846.11 130.824C1849.62 125.648 1852.47 121.542 1855.2 117.36C1855.56 116.792 1855.59 115.813 1855.4 115.126C1854.73 112.751 1853.38 110.441 1853.28 108.061C1853.19 105.984 1854.42 103.842 1855.07 101.726C1856.83 103.046 1858.79 104.177 1860.28 105.735C1861.83 107.369 1862.94 109.424 1865.5 113.092C1866.19 108.251 1866.56 105.54 1866.63 105.059C1863.2 100.845 1860.89 98.3184 1859.05 95.5055C1858.7 94.9645 1860.35 92.2652 1860.74 92.3356C1862.7 92.6872 1864.54 93.623 1867.26 94.6832C1866.09 91.6755 1864.93 88.6894 1863.99 86.2768C1865.51 84.5782 1866.9 83.015 1868.49 81.2299C1869.41 85.5954 1870.31 89.8743 1871.14 93.8071C1872.19 93.3689 1874.2 92.5411 1876.41 91.6269C1875.8 97.3069 1875.27 102.289 1874.6 108.532C1878.17 107.033 1880.23 106.173 1882.8 105.097C1882.03 109.435 1881.31 113.46 1880.5 118.036C1877.3 119.421 1873.27 121.158 1869.25 122.894C1869.22 123.392 1869.2 123.884 1869.17 124.382C1877 123.603 1884.82 122.824 1892.65 122.05C1892.79 122.943 1892.92 123.835 1893.06 124.728C1886.39 128.017 1881.82 136.699 1871.71 131.106C1871.67 132.079 1871.63 133.059 1871.59 134.038C1874.83 134.46 1878.08 134.757 1881.28 135.336C1884.8 135.969 1888.26 136.851 1893.42 137.998C1890.02 141.13 1887.62 143.337 1884.87 145.858C1888.88 148.048 1892.83 150.212 1897.15 152.587C1892.29 156.541 1887.19 160.685 1880.15 166.409C1887.47 167.388 1892.39 168.048 1898.77 168.902C1895.22 172.548 1892.59 175.269 1889.48 178.483C1892.52 178.84 1895.36 179.175 1899.6 179.673C1895.18 183.692 1893.31 189.448 1886.16 185.558C1886.33 193.5 1892.51 192.623 1898.74 193.759C1897.6 191.936 1896.94 190.871 1895.47 188.534C1904.25 186.608 1912.62 184.763 1921 182.924C1920.91 182.286 1920.82 181.642 1920.74 181.004C1916.69 180.825 1912.23 181.609 1908.7 180.203C1905.09 178.764 1902.39 175.172 1897.73 171.18C1906.7 170.79 1913.16 170.504 1919.61 170.228L1919.44 168.973C1913.48 166.527 1907.51 164.088 1901.56 161.643C1901.7 160.837 1901.86 160.031 1902.01 159.225C1909.91 157.953 1917.82 156.688 1925.72 155.411C1925.62 154.697 1925.52 153.988 1925.42 153.274C1920.09 152.874 1914.75 152.468 1907.26 151.906C1911.34 148.665 1913.67 147.113 1915.61 145.192C1918.14 142.704 1920.82 140.686 1917.06 136.294C1915.35 134.287 1917.31 129.294 1917.6 125.653C1919.85 127.249 1922.17 128.758 1924.32 130.473C1925.52 131.447 1926.44 132.767 1928.68 135.26C1929.35 131.349 1929.79 128.763 1930.24 126.183C1929.58 126.491 1928.93 126.8 1928.27 127.103C1925.94 123.641 1923.6 120.179 1921.27 116.711C1921.92 116.143 1922.58 115.57 1923.23 115.002C1925.36 116.089 1927.49 117.176 1930.65 118.788C1929.32 115.689 1928.19 113.081 1927.2 110.809C1928.61 109.327 1929.91 107.937 1931.61 106.141C1932.65 109.938 1933.69 113.79 1934.68 117.436C1935.35 117.192 1937.35 116.473 1939.52 115.683C1938.99 120.909 1938.5 125.734 1937.86 132.009C1941.61 130.186 1943.45 129.288 1946.22 127.936C1945.31 132.377 1944.55 136.121 1943.69 140.297C1940.55 141.6 1936.6 143.234 1932.63 144.873C1932.7 145.403 1932.76 145.923 1932.82 146.447C1936.69 145.923 1940.54 145.3 1944.41 144.911C1947.96 144.543 1951.54 144.435 1955.42 145.366C1949.44 150.38 1944.43 157.564 1934.65 152.414C1934.65 153.393 1934.66 154.378 1934.67 155.357C1941.44 156.374 1948.21 157.391 1956.61 158.657C1953.18 161.697 1950.77 163.844 1948.05 166.257C1952.21 168.259 1956.23 170.195 1960.46 172.229C1955.64 175.973 1950.64 179.862 1945.64 183.746C1946.05 184.79 1946.47 185.839 1946.88 186.894C1958.37 185.266 1969.86 183.638 1981.35 182.015C1981.26 181.404 1981.16 180.792 1981.07 180.176C1976.26 179.786 1971.44 179.397 1964.57 178.84C1968.66 175.935 1971.16 174.572 1973.08 172.662C1974.8 170.969 1978.36 169.443 1974.02 166.041C1972.58 164.905 1973.88 160.474 1973.92 157.548C1976.2 158.473 1978.69 159.095 1980.68 160.42C1982.12 161.378 1982.91 163.26 1985.03 166.16C1986.03 161.865 1986.52 159.695 1986.53 159.652C1983.1 155.973 1980.78 153.49 1978.46 151.007C1979.04 150.234 1979.6 149.466 1980.17 148.692C1982.35 149.363 1984.52 150.039 1986.66 150.699C1988.08 147.6 1978.71 143.499 1988.41 141.53C1989.21 143.678 1990.35 146.707 1991.41 149.547C1992.59 149.428 1994.45 149.233 1996.12 149.055C1995.66 153.393 1995.24 157.223 1994.74 161.924C1997.97 160.842 1999.95 160.182 2002.66 159.273C2001.87 162.909 2002.19 167.036 2000.22 169.016C1997.92 171.342 1993.63 171.791 1990.39 174.214C1997.64 173.554 2004.89 172.895 2012.14 172.235C2012.24 172.933 2012.33 173.63 2012.43 174.328C2008.68 176.54 2004.93 178.758 1999.38 182.037C2008.17 183.265 2015.31 184.26 2023.2 185.364C2021.44 180.755 2020.08 177.174 2018.77 173.733C2023.8 173.106 2028.2 172.548 2031.52 172.137C2026.54 165.846 2021.98 160.371 2017.92 154.567C2017.46 153.912 2019.7 150.061 2020.91 149.958C2024.82 149.633 2027.52 143.715 2032.68 147.854C2033.76 148.719 2037.98 145.885 2041 143.51C2029.64 142.942 2023.61 137.197 2021.19 126.908C2027.66 119.335 2041.68 125.356 2047.51 113.936C2042.86 114.509 2038.87 115.002 2035.29 115.44C2031.62 110.533 2028.02 105.73 2024 100.369C2028.53 100.228 2031.92 96.4794 2037.07 99.8928C2038.66 100.937 2043.84 96.8309 2047.18 93.8773C2036.06 96.8796 2031.69 89.2954 2025.52 81.7058C2032.68 80.1533 2039.08 78.7629 2045.48 77.3727C2045.62 78.0272 2045.76 78.6766 2045.9 79.3257C2047.62 77.1024 2049.34 74.879 2051.44 72.1364C2045.57 71.6441 2039.88 71.1625 2033.46 70.6216C2038.21 62.6533 2042 56.3295 2045.9 49.8056C2036.22 43.8551 2043.29 35.611 2042.82 27.897C2044.73 30.1419 2046.92 32.2192 2048.49 34.6697C2050.15 37.2447 2051.22 40.1766 2054.57 42.7624C2054.77 38.5267 2054.96 34.2913 2055.17 29.6012C2053.02 29.3037 2051.09 29.0384 2049.57 28.8328C2048.77 23.6504 2048.06 18.9333 2047.06 12.4473C2050.37 15.1629 2052.69 17.0726 2055.82 19.653C2054.42 14.7627 2053.17 10.4187 2052.12 6.76724C2053.67 4.44114 2055.08 2.33696 2056.64 3.05176e-05C2056.89 1.61749 2056.89 3.60825 2057.58 5.35013C2058.07 6.57269 2059.47 7.44887 2060.69 8.70389C2059.84 11.9009 2058.84 15.6443 2057.79 19.6041C2060.31 17.6891 2062.43 16.0772 2064.86 14.2434C2064.23 22.7797 2063.68 30.1257 2063 39.4031C2066.7 36.8119 2068.53 35.5353 2071.11 33.7231C2070.45 39.8953 2069.84 45.4563 2069.09 52.3318C2066.28 54.0629 2061.78 56.8272 2057.38 59.532C2061.78 62.9292 2069.34 61.7609 2076.01 56.3784C2077.9 58.0392 2079.77 59.6999 2082.11 61.788C2074.54 65.196 2072.66 79.6502 2058.98 72.0497C2060.83 74.2893 2062.68 76.5236 2063.1 77.0266C2070.16 77.995 2075.3 78.6981 2082.23 79.6448C2078.7 84.6973 2076.12 88.3865 2073.52 92.1137C2077.24 95.0565 2081.32 98.2861 2085.63 101.7C2080.63 107.298 2075.15 113.438 2068.24 121.19C2075.36 122.607 2080.55 123.641 2087.26 124.977C2083.55 130.197 2080.46 134.535 2077.17 139.161C2080.42 139.312 2083.69 139.458 2088.39 139.675C2084.48 145.036 2083.32 151.375 2074.72 150.456C2073.66 162.01 2088.73 157.358 2090.78 166.295C2084.14 176.368 2084.14 176.368 2068.46 174.117C2071.54 176.254 2074.61 178.385 2077.9 180.663C2077.25 181.902 2076.56 183.211 2075.64 184.952C2082.73 186.051 2089.58 187.122 2096.34 188.166C2095.58 203.366 2079.93 200.592 2072.62 208.095C2079.51 214.857 2087.89 213.125 2096.88 212.179C2094.95 215.944 2093.79 219.985 2091.19 222.771C2088.37 225.811 2084.21 227.688 2080.64 230.068C2080.61 230.879 2080.59 231.691 2080.56 232.502C2088.79 234.45 2097.01 236.386 2105.86 238.48C2102.18 244.771 2099.03 250.159 2095.14 256.807C2095.68 257.148 2097.93 258.56 2101 260.486C2097.4 264.413 2093.9 268.216 2090.26 272.165C2095.12 274.237 2104.04 269.98 2104.16 280.939C2099.87 283.65 2094.24 287.209 2088.29 290.974C2088.64 291.109 2090.39 292.456 2091.85 292.202C2098.51 291.05 2102.73 292.813 2103.82 299.851C2103.94 300.646 2105.89 301.177 2107 301.831C2107 302.35 2107 302.881 2107 303.411C2101.74 306.067 2095.61 307.143 2093.24 313.943C2090.07 323.004 2076.51 325.839 2068.96 319.277C2065.03 315.858 2061.63 311.861 2056.57 306.662C2057.31 314.684 2057.94 321.43 2058.59 328.56C2054.77 328.56 2051.4 328.56 2047.43 328.56C2047.83 324.091 2048.2 320.061 2048.63 315.42C2037.03 325.79 2032.76 323.54 2028.2 318.85C2013.12 322.052 2001.1 316.129 1988.32 308.182C1989 312.829 1989.52 316.302 1990.08 320.164C1986.54 320.164 1983.37 320.164 1979.73 320.164C1979.73 317.941 1979.73 315.793 1979.73 313.597C1963.75 318.514 1948.14 318.768 1932.03 310.265C1932.62 314.289 1933.01 316.983 1933.5 320.326C1929.72 320.326 1926.2 320.326 1922.37 320.326C1922.69 317.605 1922.99 315.079 1923.42 311.482C1916.62 316.788 1910.28 315.155 1903.19 315.003C1894.31 314.819 1883.49 310.952 1874.8 319.91C1868.45 326.455 1859.07 324.378 1850.75 321.576C1847.99 320.651 1845.13 319.969 1842.32 319.174C1842.07 319.986 1841.8 320.797 1841.54 321.614C1843.91 323.069 1846.28 324.535 1848.58 325.963C1847.11 330.783 1833.29 339.395 1827.88 339.828C1818.44 340.591 1810.36 337.864 1801.81 330.204C1802.57 335.749 1803.03 339.135 1803.56 342.992C1799.99 342.992 1796.87 342.992 1793.18 342.992C1793.29 340.866 1793.38 338.968 1793.48 336.923C1775.57 342.976 1758.51 336.176 1740.75 335.933C1741.11 331.584 1741.43 327.781 1741.78 323.545C1731.56 331.632 1727.2 332.092 1721.24 326.071C1713.56 329.252 1706.59 327.83 1699.9 323.318C1698.5 322.377 1696.39 322.425 1694.6 322.041C1686.71 320.343 1678.82 318.639 1670.4 316.827C1670.56 318.39 1670.9 321.754 1671.27 325.465C1668.07 325.465 1664.9 325.465 1661.19 325.465C1661.01 323.475 1660.82 321.517 1660.79 321.03C1652.56 321.03 1644.76 321.419 1637.01 320.921C1629.59 320.445 1622.23 319.055 1614.84 318.071C1614.86 317.189 1614.86 316.312 1614.87 315.436C1617.06 314.717 1619.26 313.997 1621.58 313.24C1617.94 307.722 1612.72 307.062 1605.44 310.795C1592.95 317.2 1584.42 315.458 1575.1 304.59C1574.6 304.011 1574.14 303.411 1571.66 303.048C1572.26 308.187 1572.88 313.332 1573.56 319.044C1569.89 319.044 1566.3 319.044 1562.51 319.044C1562.82 315.588 1563.09 312.526 1563.47 308.306C1556.89 313.84 1550.85 317.989 1543.45 311.557C1542.83 311.022 1540.91 311.541 1539.77 311.985C1526.7 317.037 1514.52 316.307 1502.17 305.234C1502.71 310.362 1503.06 313.721 1503.52 318.092C1500.44 318.265 1497.4 318.428 1493.71 318.633C1493.5 316.139 1493.32 314.013 1493.15 311.898C1492.55 311.828 1492.04 311.677 1491.57 311.736C1486.24 312.38 1480.91 313.435 1475.56 313.608C1470.65 313.77 1465.69 312.753 1460.78 312.915C1460.23 312.937 1459.83 317.265 1459.84 319.542C1457.34 325.39 1447.06 324.07 1446.98 333.758C1446.97 335.451 1439.89 338.021 1435.87 338.513C1431.72 339.022 1427.17 337.94 1423.05 336.744C1415.22 334.472 1412.68 336.944 1414.17 346C1410.39 346 1406.6 346 1402.81 346C1402.81 341.862 1402.81 337.723 1402.81 333.336C1399.93 335.727 1397.42 339.352 1394.25 340.017C1390.86 340.737 1386.84 338.67 1383.17 338.313C1369.54 336.436 1355.92 334.564 1342.29 332.698C1342.32 331.741 1342.34 330.788 1342.37 329.836C1344.97 329.122 1347.57 328.397 1350.77 327.516Z" fill="url(#paint2_linear_16_95)"/>
<defs>
<linearGradient id="paint0_linear_16_95" x1="1723" y1="346" x2="1723" y2="-93" gradientUnits="userSpaceOnUse">
<stop stop-color="#1C1C46"/>
<stop offset="1" stop-color="#283762"/>
</linearGradient>
<linearGradient id="paint1_linear_16_95" x1="1723" y1="346" x2="1723" y2="-93" gradientUnits="userSpaceOnUse">
<stop stop-color="#1C1C46"/>
<stop offset="1" stop-color="#283762"/>
</linearGradient>
<linearGradient id="paint2_linear_16_95" x1="1723" y1="346" x2="1723" y2="-93" gradientUnits="userSpaceOnUse">
<stop stop-color="#1C1C46"/>
<stop offset="1" stop-color="#283762"/>
</linearGradient>
</defs>
</svg>
