<svg width="1920" height="540" viewBox="0 0 1920 540" fill="none" xmlns="http://www.w3.org/2000/svg">
<path d="M1926.44 106.284C1946.5 120.995 2055.17 222.743 2107 271.778V942.942C1893.01 970.525 1379.09 1006.57 1035.36 930.071C605.701 834.452 844.772 589.89 1149.04 374.748C1453.32 159.606 1371.4 323.261 1491.77 242.353C1612.14 161.445 1593.75 277.291 1695.73 165.123C1797.71 52.955 1786.01 154.094 1829.48 97.0902C1872.94 40.0869 1901.37 87.8961 1926.44 106.284Z" fill="url(#paint0_linear_16_92)"/>
<path d="M40.3087 0C-358.562 1.0582e-06 -371.428 187.599 -399 198.634V809.251C36.6324 816.608 926.646 826.907 1001.64 809.251C1095.38 787.181 1108.25 505.782 1065.97 446.928C1023.7 388.073 999.803 432.214 966.717 393.591C933.631 354.967 889.516 382.556 869.297 356.807C830.697 308.987 784.744 342.093 764.525 314.505C711.219 239.098 674.457 277.721 637.695 242.776C600.933 207.831 580.713 231.741 560.494 226.223C540.275 220.706 551.304 207.831 529.246 198.635C507.189 189.439 448.369 220.706 406.093 158.173C363.816 95.6397 334.406 115.871 292.13 112.193C249.853 108.514 180.005 57.0164 135.89 47.8204C91.7758 38.6244 82.5852 -1.1216e-07 40.3087 0Z" fill="url(#paint1_linear_16_92)"/>
<defs>
<linearGradient id="paint0_linear_16_92" x1="1441.77" y1="186" x2="1440.75" y2="614.507" gradientUnits="userSpaceOnUse">
<stop stop-color="#403960"/>
<stop offset="0.648103" stop-color="#715164"/>
<stop offset="1" stop-color="#845B67"/>
</linearGradient>
<linearGradient id="paint1_linear_16_92" x1="481.5" y1="133" x2="471" y2="626.5" gradientUnits="userSpaceOnUse">
<stop stop-color="#493D5F"/>
<stop offset="1" stop-color="#885D67"/>
</linearGradient>
</defs>
</svg>
